<svg xmlns="http://www.w3.org/2000/svg" xmlns:xlink="http://www.w3.org/1999/xlink" width="500" zoomAndPan="magnify" viewBox="0 0 375 135.000003" height="180" preserveAspectRatio="xMidYMid meet" version="1.0"><defs><clipPath id="23b3e9341a"><path d="M 20.703125 3.675781 L 95.628906 3.675781 L 95.628906 78.601562 L 20.703125 78.601562 Z M 20.703125 3.675781 " clip-rule="nonzero"/></clipPath><clipPath id="02b8a7e874"><path d="M 58.164062 3.675781 C 37.476562 3.675781 20.703125 20.445312 20.703125 41.136719 C 20.703125 61.824219 37.476562 78.601562 58.164062 78.601562 C 78.855469 78.601562 95.628906 61.824219 95.628906 41.136719 C 95.628906 20.445312 78.855469 3.675781 58.164062 3.675781 Z M 58.164062 3.675781 " clip-rule="nonzero"/></clipPath><clipPath id="901ffd7705"><path d="M 20.703125 3.675781 L 95.625 3.675781 L 95.625 78.597656 L 20.703125 78.597656 Z M 20.703125 3.675781 " clip-rule="nonzero"/></clipPath><clipPath id="48dd5fd2ba"><path d="M 58.164062 3.675781 C 37.476562 3.675781 20.703125 20.445312 20.703125 41.136719 C 20.703125 61.820312 37.476562 78.597656 58.164062 78.597656 C 78.851562 78.597656 95.625 61.820312 95.625 41.136719 C 95.625 20.445312 78.851562 3.675781 58.164062 3.675781 Z M 58.164062 3.675781 " clip-rule="nonzero"/></clipPath><clipPath id="43c91aa9bb"><path d="M 3.628906 27.828125 L 97 27.828125 L 97 111.0625 L 3.628906 111.0625 Z M 3.628906 27.828125 " clip-rule="nonzero"/></clipPath><clipPath id="683c88a1d9"><path d="M 56.351562 31.402344 L 95.804688 100.4375 C 97.058594 102.636719 97.050781 105.335938 95.78125 107.527344 C 94.511719 109.714844 92.171875 111.0625 89.640625 111.0625 L 10.925781 111.0625 C 8.394531 111.0625 6.054688 109.714844 4.785156 107.527344 C 3.515625 105.335938 3.507812 102.636719 4.761719 100.4375 L 44.210938 31.402344 C 45.457031 29.222656 47.773438 27.878906 50.28125 27.878906 C 52.792969 27.878906 55.105469 29.222656 56.351562 31.402344 Z M 56.351562 31.402344 " clip-rule="nonzero"/></clipPath><clipPath id="ca91f357c7"><path d="M 3.523438 27.230469 L 97 27.230469 L 97 110.804688 L 3.523438 110.804688 Z M 3.523438 27.230469 " clip-rule="nonzero"/></clipPath><clipPath id="52a049a8c3"><path d="M 56.347656 31.402344 L 95.792969 100.4375 C 97.050781 102.632812 97.042969 105.332031 95.769531 107.519531 C 94.5 109.710938 92.160156 111.058594 89.628906 111.058594 L 10.925781 111.058594 C 8.394531 111.058594 6.054688 109.710938 4.785156 107.519531 C 3.515625 105.332031 3.507812 102.632812 4.761719 100.4375 L 44.207031 31.402344 C 45.449219 29.222656 47.769531 27.878906 50.277344 27.878906 C 52.789062 27.878906 55.105469 29.222656 56.347656 31.402344 Z M 56.347656 31.402344 " clip-rule="nonzero"/></clipPath><clipPath id="26339ceadb"><path d="M 58.164062 11.71875 L 69.160156 11.71875 L 69.160156 22.714844 L 58.164062 22.714844 Z M 58.164062 11.71875 " clip-rule="nonzero"/></clipPath><clipPath id="cd5f0edebc"><path d="M 63.660156 11.71875 L 65.40625 15.464844 L 69.160156 17.214844 L 65.40625 18.96875 L 63.660156 22.714844 L 61.910156 18.96875 L 58.164062 17.214844 L 61.910156 15.464844 Z M 63.660156 11.71875 " clip-rule="nonzero"/></clipPath><clipPath id="1404de8e64"><path d="M 58.164062 11.71875 L 69.144531 11.71875 L 69.144531 22.699219 L 58.164062 22.699219 Z M 58.164062 11.71875 " clip-rule="nonzero"/></clipPath><clipPath id="712a1eb44d"><path d="M 63.65625 11.71875 L 65.402344 15.460938 L 69.144531 17.210938 L 65.402344 18.957031 L 63.65625 22.699219 L 61.90625 18.957031 L 58.164062 17.210938 L 61.90625 15.460938 Z M 63.65625 11.71875 " clip-rule="nonzero"/></clipPath><clipPath id="61e4dbae94"><path d="M 12.636719 36.4375 L 106 36.4375 L 106 119.671875 L 12.636719 119.671875 Z M 12.636719 36.4375 " clip-rule="nonzero"/></clipPath><clipPath id="659d419471"><path d="M 65.363281 40.011719 L 104.8125 109.046875 C 106.066406 111.246094 106.058594 113.945312 104.789062 116.132812 C 103.519531 118.324219 101.179688 119.671875 98.648438 119.671875 L 19.9375 119.671875 C 17.40625 119.671875 15.066406 118.324219 13.792969 116.132812 C 12.523438 113.945312 12.515625 111.246094 13.773438 109.046875 L 53.222656 40.011719 C 54.464844 37.832031 56.78125 36.488281 59.289062 36.488281 C 61.800781 36.488281 64.113281 37.832031 65.363281 40.011719 Z M 65.363281 40.011719 " clip-rule="nonzero"/></clipPath><clipPath id="25d4bbcf83"><path d="M 12.535156 36 L 106 36 L 106 119.410156 L 12.535156 119.410156 Z M 12.535156 36 " clip-rule="nonzero"/></clipPath><clipPath id="6616d71fc7"><path d="M 65.359375 40.011719 L 104.800781 109.046875 C 106.058594 111.242188 106.050781 113.945312 104.78125 116.128906 C 103.511719 118.320312 101.171875 119.667969 98.640625 119.667969 L 19.9375 119.667969 C 17.40625 119.667969 15.066406 118.320312 13.792969 116.128906 C 12.523438 113.945312 12.515625 111.242188 13.773438 109.046875 L 53.21875 40.011719 C 54.460938 37.835938 56.777344 36.488281 59.285156 36.488281 C 61.796875 36.488281 64.113281 37.835938 65.359375 40.011719 Z M 65.359375 40.011719 " clip-rule="nonzero"/></clipPath><clipPath id="815e537596"><path d="M 21.628906 45.570312 L 115 45.570312 L 115 128.796875 L 21.628906 128.796875 Z M 21.628906 45.570312 " clip-rule="nonzero"/></clipPath><clipPath id="9b871221e2"><path d="M 74.351562 49.140625 L 113.800781 118.179688 C 115.058594 120.371094 115.050781 123.074219 113.78125 125.265625 C 112.507812 127.449219 110.167969 128.796875 107.636719 128.796875 L 28.925781 128.796875 C 26.394531 128.796875 24.054688 127.449219 22.785156 125.265625 C 21.515625 123.074219 21.507812 120.371094 22.761719 118.179688 L 62.210938 49.140625 C 63.453125 46.957031 65.773438 45.617188 68.285156 45.617188 C 70.792969 45.617188 73.109375 46.957031 74.351562 49.140625 Z M 74.351562 49.140625 " clip-rule="nonzero"/></clipPath><clipPath id="2aa57fe0fe"><path d="M 21.527344 45 L 115 45 L 115 128.539062 L 21.527344 128.539062 Z M 21.527344 45 " clip-rule="nonzero"/></clipPath><clipPath id="fcadc4ebc2"><path d="M 74.347656 49.140625 L 113.796875 118.171875 C 115.054688 120.371094 115.046875 123.070312 113.769531 125.261719 C 112.5 127.449219 110.160156 128.796875 107.628906 128.796875 L 28.925781 128.796875 C 26.394531 128.796875 24.054688 127.449219 22.785156 125.261719 C 21.515625 123.070312 21.507812 120.371094 22.761719 118.171875 L 62.207031 49.140625 C 63.453125 46.964844 65.773438 45.617188 68.28125 45.617188 C 70.789062 45.617188 73.105469 46.964844 74.347656 49.140625 Z M 74.347656 49.140625 " clip-rule="nonzero"/></clipPath></defs><path fill="#000000" d="M 144.664062 42.707031 L 140.765625 42.707031 L 136.542969 35.898438 L 135.085938 36.933594 L 135.085938 42.707031 L 131.660156 42.707031 L 131.660156 26.539062 L 135.085938 26.539062 L 135.085938 33.929688 C 135.3125 33.617188 135.539062 33.300781 135.757812 32.984375 C 135.976562 32.667969 136.199219 32.355469 136.433594 32.035156 L 140.820312 26.539062 L 144.625 26.539062 L 138.980469 33.695312 Z M 144.664062 42.707031 " fill-opacity="1" fill-rule="nonzero"/><path fill="#000000" d="M 146.703125 26.539062 L 150.128906 26.539062 L 150.128906 42.707031 L 146.703125 42.707031 Z M 146.703125 26.539062 " fill-opacity="1" fill-rule="nonzero"/><path fill="#000000" d="M 154.203125 42.707031 L 154.203125 26.539062 L 157.625 26.539062 L 157.625 39.867188 L 164.179688 39.867188 L 164.179688 42.707031 Z M 154.203125 42.707031 " fill-opacity="1" fill-rule="nonzero"/><path fill="#000000" d="M 176.886719 42.707031 L 175.722656 38.867188 L 169.820312 38.867188 L 168.65625 42.707031 L 164.960938 42.707031 L 170.660156 26.464844 L 174.867188 26.464844 L 180.582031 42.707031 Z M 174.902344 35.988281 L 173.738281 32.21875 C 173.664062 31.976562 173.5625 31.664062 173.445312 31.273438 C 173.324219 30.871094 173.199219 30.464844 173.082031 30.050781 C 172.957031 29.644531 172.851562 29.28125 172.773438 28.976562 C 172.699219 29.28125 172.59375 29.660156 172.460938 30.105469 C 172.339844 30.558594 172.214844 30.980469 172.097656 31.382812 C 171.988281 31.773438 171.902344 32.050781 171.84375 32.21875 L 170.695312 35.988281 Z M 174.902344 35.988281 " fill-opacity="1" fill-rule="nonzero"/><path fill="#000000" d="M 195.300781 26.539062 L 189.820312 42.707031 L 186.070312 42.707031 L 180.589844 26.539062 L 184.046875 26.539062 L 187.089844 36.152344 C 187.132812 36.324219 187.21875 36.636719 187.34375 37.082031 C 187.460938 37.519531 187.585938 37.988281 187.707031 38.484375 C 187.824219 38.984375 187.914062 39.394531 187.960938 39.722656 C 188 39.394531 188.070312 38.988281 188.179688 38.5 C 188.300781 38.003906 188.417969 37.53125 188.527344 37.082031 C 188.644531 36.636719 188.730469 36.324219 188.78125 36.152344 L 191.839844 26.539062 Z M 195.300781 26.539062 " fill-opacity="1" fill-rule="nonzero"/><path fill="#000000" d="M 209.367188 33.621094 L 215.777344 33.621094 L 215.777344 42.015625 C 214.925781 42.296875 214.046875 42.519531 213.136719 42.6875 C 212.226562 42.84375 211.191406 42.925781 210.023438 42.925781 C 208.421875 42.925781 207.054688 42.613281 205.925781 41.980469 C 204.808594 41.351562 203.960938 40.414062 203.378906 39.175781 C 202.796875 37.9375 202.503906 36.417969 202.503906 34.605469 C 202.503906 32.90625 202.832031 31.4375 203.488281 30.199219 C 204.144531 28.960938 205.09375 28.003906 206.347656 27.320312 C 207.605469 26.644531 209.140625 26.300781 210.953125 26.300781 C 211.8125 26.300781 212.65625 26.402344 213.484375 26.59375 C 214.320312 26.773438 215.078125 27.011719 215.761719 27.304688 L 214.613281 30.050781 C 214.125 29.796875 213.5625 29.589844 212.917969 29.414062 C 212.285156 29.246094 211.625 29.160156 210.933594 29.160156 C 209.9375 29.160156 209.070312 29.390625 208.332031 29.851562 C 207.601562 30.300781 207.039062 30.941406 206.636719 31.765625 C 206.238281 32.59375 206.035156 33.558594 206.035156 34.660156 C 206.035156 35.714844 206.171875 36.65625 206.457031 37.480469 C 206.746094 38.296875 207.203125 38.933594 207.820312 39.394531 C 208.441406 39.84375 209.246094 40.066406 210.242188 40.066406 C 210.738281 40.066406 211.152344 40.050781 211.480469 40.011719 C 211.816406 39.96875 212.136719 39.914062 212.429688 39.847656 L 212.429688 36.480469 L 209.367188 36.480469 Z M 209.367188 33.621094 " fill-opacity="1" fill-rule="nonzero"/><path fill="#000000" d="M 224.351562 26.539062 C 225.808594 26.539062 227.015625 26.714844 227.972656 27.066406 C 228.929688 27.421875 229.640625 27.953125 230.105469 28.667969 C 230.566406 29.386719 230.796875 30.289062 230.796875 31.382812 C 230.796875 32.125 230.65625 32.773438 230.378906 33.328125 C 230.097656 33.875 229.726562 34.34375 229.265625 34.730469 C 228.816406 35.109375 228.324219 35.417969 227.792969 35.660156 L 232.542969 42.707031 L 228.738281 42.707031 L 224.878906 36.5 L 223.058594 36.5 L 223.058594 42.707031 L 219.636719 42.707031 L 219.636719 26.539062 Z M 224.097656 29.34375 L 223.058594 29.34375 L 223.058594 33.710938 L 224.167969 33.710938 C 225.296875 33.710938 226.105469 33.527344 226.589844 33.148438 C 227.085938 32.773438 227.335938 32.214844 227.335938 31.472656 C 227.335938 30.707031 227.070312 30.160156 226.535156 29.832031 C 226.011719 29.507812 225.199219 29.34375 224.097656 29.34375 Z M 224.097656 29.34375 " fill-opacity="1" fill-rule="nonzero"/><path fill="#000000" d="M 249.265625 34.605469 C 249.265625 35.84375 249.105469 36.980469 248.792969 38.007812 C 248.484375 39.027344 248.015625 39.914062 247.390625 40.648438 C 246.757812 41.378906 245.957031 41.941406 244.984375 42.34375 C 244.023438 42.730469 242.882812 42.925781 241.5625 42.925781 C 240.238281 42.925781 239.089844 42.730469 238.121094 42.34375 C 237.160156 41.941406 236.363281 41.378906 235.734375 40.648438 C 235.101562 39.914062 234.628906 39.027344 234.316406 38.007812 C 234.011719 36.980469 233.859375 35.839844 233.859375 34.585938 C 233.859375 32.910156 234.132812 31.453125 234.679688 30.214844 C 235.234375 28.96875 236.085938 28.003906 237.226562 27.320312 C 238.367188 26.628906 239.820312 26.28125 241.582031 26.28125 C 243.335938 26.28125 244.785156 26.628906 245.914062 27.320312 C 247.042969 28.003906 247.878906 28.96875 248.425781 30.214844 C 248.980469 31.453125 249.265625 32.921875 249.265625 34.605469 Z M 237.464844 34.605469 C 237.464844 35.734375 237.601562 36.707031 237.882812 37.519531 C 238.160156 38.332031 238.601562 38.957031 239.214844 39.394531 C 239.820312 39.832031 240.601562 40.050781 241.5625 40.050781 C 242.53125 40.050781 243.320312 39.832031 243.929688 39.394531 C 244.535156 38.957031 244.972656 38.332031 245.242188 37.519531 C 245.519531 36.707031 245.660156 35.734375 245.660156 34.605469 C 245.660156 32.90625 245.339844 31.574219 244.710938 30.597656 C 244.078125 29.628906 243.039062 29.140625 241.582031 29.140625 C 240.621094 29.140625 239.832031 29.359375 239.214844 29.796875 C 238.601562 30.234375 238.160156 30.863281 237.882812 31.671875 C 237.601562 32.488281 237.464844 33.464844 237.464844 34.605469 Z M 237.464844 34.605469 " fill-opacity="1" fill-rule="nonzero"/><path fill="#000000" d="M 265.78125 26.539062 L 265.78125 37.007812 C 265.78125 38.113281 265.53125 39.117188 265.035156 40.011719 C 264.546875 40.914062 263.804688 41.625 262.8125 42.144531 C 261.816406 42.667969 260.574219 42.925781 259.082031 42.925781 C 256.933594 42.925781 255.296875 42.378906 254.183594 41.289062 C 253.0625 40.195312 252.507812 38.75 252.507812 36.953125 L 252.507812 26.539062 L 255.914062 26.539062 L 255.914062 36.445312 C 255.914062 37.78125 256.183594 38.714844 256.730469 39.246094 C 257.277344 39.785156 258.082031 40.050781 259.152344 40.050781 C 259.90625 40.050781 260.511719 39.921875 260.972656 39.667969 C 261.449219 39.410156 261.792969 39.019531 262.011719 38.484375 C 262.238281 37.9375 262.359375 37.246094 262.359375 36.40625 L 262.359375 26.539062 Z M 265.78125 26.539062 " fill-opacity="1" fill-rule="nonzero"/><path fill="#000000" d="M 274.890625 26.539062 C 276.976562 26.539062 278.5 26.988281 279.460938 27.886719 C 280.417969 28.785156 280.898438 30.015625 280.898438 31.582031 C 280.898438 32.289062 280.789062 32.964844 280.570312 33.621094 C 280.363281 34.269531 280.015625 34.835938 279.535156 35.332031 C 279.046875 35.832031 278.40625 36.226562 277.605469 36.515625 C 276.800781 36.808594 275.808594 36.953125 274.636719 36.953125 L 273.160156 36.953125 L 273.160156 42.707031 L 269.738281 42.707031 L 269.738281 26.539062 Z M 274.726562 29.34375 L 273.160156 29.34375 L 273.160156 34.148438 L 274.289062 34.148438 C 274.929688 34.148438 275.492188 34.066406 275.964844 33.894531 C 276.4375 33.726562 276.800781 33.457031 277.058594 33.09375 C 277.3125 32.730469 277.441406 32.269531 277.441406 31.710938 C 277.441406 30.90625 277.210938 30.316406 276.765625 29.925781 C 276.328125 29.539062 275.644531 29.34375 274.726562 29.34375 Z M 274.726562 29.34375 " fill-opacity="1" fill-rule="nonzero"/><path fill="#000000" d="M 135.03125 74.082031 L 131.660156 74.082031 L 131.660156 57.910156 L 140.929688 57.910156 L 140.929688 60.714844 L 135.03125 60.714844 L 135.03125 64.882812 L 140.511719 64.882812 L 140.511719 67.6875 L 135.03125 67.6875 Z M 135.03125 74.082031 " fill-opacity="1" fill-rule="nonzero"/><path fill="#000000" d="M 148.808594 57.910156 C 150.265625 57.910156 151.472656 58.089844 152.433594 58.4375 C 153.390625 58.792969 154.097656 59.328125 154.5625 60.042969 C 155.023438 60.761719 155.253906 61.660156 155.253906 62.753906 C 155.253906 63.496094 155.113281 64.148438 154.835938 64.703125 C 154.554688 65.25 154.1875 65.71875 153.726562 66.105469 C 153.277344 66.484375 152.785156 66.792969 152.25 67.035156 L 157.003906 74.082031 L 153.199219 74.082031 L 149.335938 67.871094 L 147.515625 67.871094 L 147.515625 74.082031 L 144.09375 74.082031 L 144.09375 57.910156 Z M 148.554688 60.714844 L 147.515625 60.714844 L 147.515625 65.085938 L 148.628906 65.085938 C 149.757812 65.085938 150.5625 64.898438 151.050781 64.519531 C 151.546875 64.148438 151.796875 63.585938 151.796875 62.84375 C 151.796875 62.082031 151.527344 61.535156 150.996094 61.207031 C 150.472656 60.878906 149.65625 60.714844 148.554688 60.714844 Z M 148.554688 60.714844 " fill-opacity="1" fill-rule="nonzero"/><path fill="#000000" d="M 168.351562 74.082031 L 159.046875 74.082031 L 159.046875 57.910156 L 168.351562 57.910156 L 168.351562 60.714844 L 162.46875 60.714844 L 162.46875 64.265625 L 167.953125 64.265625 L 167.953125 67.089844 L 162.46875 67.089844 L 162.46875 71.238281 L 168.351562 71.238281 Z M 168.351562 74.082031 " fill-opacity="1" fill-rule="nonzero"/><path fill="#000000" d="M 181.039062 74.082031 L 171.734375 74.082031 L 171.734375 57.910156 L 181.039062 57.910156 L 181.039062 60.714844 L 175.15625 60.714844 L 175.15625 64.265625 L 180.636719 64.265625 L 180.636719 67.089844 L 175.15625 67.089844 L 175.15625 71.238281 L 181.039062 71.238281 Z M 181.039062 74.082031 " fill-opacity="1" fill-rule="nonzero"/><path fill="#000000" d="M 197.839844 65.832031 C 197.839844 67.667969 197.484375 69.195312 196.78125 70.421875 C 196.089844 71.636719 195.082031 72.550781 193.761719 73.167969 C 192.4375 73.78125 190.847656 74.082031 188.988281 74.082031 L 184.417969 74.082031 L 184.417969 57.910156 L 189.5 57.910156 C 191.183594 57.910156 192.652344 58.214844 193.90625 58.820312 C 195.152344 59.417969 196.117188 60.304688 196.800781 61.480469 C 197.492188 62.660156 197.839844 64.109375 197.839844 65.832031 Z M 194.269531 65.921875 C 194.269531 64.734375 194.09375 63.753906 193.742188 62.992188 C 193.386719 62.21875 192.871094 61.644531 192.195312 61.28125 C 191.511719 60.90625 190.667969 60.714844 189.664062 60.714844 L 187.84375 60.714844 L 187.84375 71.238281 L 189.316406 71.238281 C 190.992188 71.238281 192.234375 70.796875 193.050781 69.910156 C 193.859375 69.027344 194.269531 67.699219 194.269531 65.921875 Z M 194.269531 65.921875 " fill-opacity="1" fill-rule="nonzero"/><path fill="#000000" d="M 215.863281 65.976562 C 215.863281 67.214844 215.703125 68.355469 215.390625 69.382812 C 215.085938 70.402344 214.617188 71.285156 213.988281 72.023438 C 213.355469 72.75 212.554688 73.316406 211.582031 73.714844 C 210.625 74.101562 209.480469 74.296875 208.160156 74.296875 C 206.835938 74.296875 205.6875 74.101562 204.71875 73.714844 C 203.757812 73.316406 202.960938 72.75 202.332031 72.023438 C 201.699219 71.285156 201.226562 70.402344 200.914062 69.382812 C 200.609375 68.355469 200.457031 67.210938 200.457031 65.960938 C 200.457031 64.285156 200.730469 62.828125 201.277344 61.589844 C 201.832031 60.339844 202.683594 59.375 203.828125 58.695312 C 204.964844 58 206.417969 57.65625 208.179688 57.65625 C 209.9375 57.65625 211.382812 58 212.511719 58.695312 C 213.640625 59.375 214.480469 60.339844 215.023438 61.589844 C 215.582031 62.828125 215.863281 64.292969 215.863281 65.976562 Z M 204.0625 65.976562 C 204.0625 67.105469 204.199219 68.082031 204.480469 68.890625 C 204.761719 69.707031 205.203125 70.328125 205.8125 70.765625 C 206.417969 71.203125 207.199219 71.421875 208.160156 71.421875 C 209.128906 71.421875 209.917969 71.203125 210.527344 70.765625 C 211.132812 70.328125 211.570312 69.707031 211.839844 68.890625 C 212.117188 68.082031 212.257812 67.105469 212.257812 65.976562 C 212.257812 64.277344 211.9375 62.945312 211.308594 61.972656 C 210.679688 61 209.636719 60.515625 208.179688 60.515625 C 207.21875 60.515625 206.429688 60.734375 205.8125 61.171875 C 205.203125 61.605469 204.761719 62.234375 204.480469 63.046875 C 204.199219 63.859375 204.0625 64.839844 204.0625 65.976562 Z M 204.0625 65.976562 " fill-opacity="1" fill-rule="nonzero"/><path fill="#000000" d="M 226.0625 74.082031 L 222.164062 61.386719 L 222.054688 61.386719 C 222.078125 61.695312 222.101562 62.148438 222.128906 62.753906 C 222.164062 63.363281 222.191406 64.011719 222.21875 64.703125 C 222.253906 65.386719 222.273438 66.003906 222.273438 66.558594 L 222.273438 74.082031 L 219.214844 74.082031 L 219.214844 57.910156 L 223.875 57.910156 L 227.699219 70.273438 L 227.773438 70.273438 L 231.832031 57.910156 L 236.496094 57.910156 L 236.496094 74.082031 L 233.308594 74.082031 L 233.308594 66.433594 C 233.308594 65.921875 233.3125 65.335938 233.328125 64.667969 C 233.347656 64 233.371094 63.367188 233.398438 62.773438 C 233.4375 62.167969 233.457031 61.714844 233.472656 61.425781 L 233.363281 61.425781 L 229.191406 74.082031 Z M 226.0625 74.082031 " fill-opacity="1" fill-rule="nonzero"/><path fill="#000000" d="M 260.804688 74.082031 L 256.433594 74.082031 L 249.40625 61.84375 L 249.296875 61.84375 C 249.332031 62.355469 249.359375 62.871094 249.386719 63.390625 C 249.410156 63.902344 249.429688 64.421875 249.441406 64.9375 C 249.464844 65.449219 249.488281 65.960938 249.515625 66.46875 L 249.515625 74.082031 L 246.457031 74.082031 L 246.457031 57.910156 L 250.769531 57.910156 L 257.800781 70.019531 L 257.871094 70.019531 C 257.859375 69.523438 257.839844 69.027344 257.816406 68.527344 C 257.789062 68.03125 257.769531 67.539062 257.746094 67.050781 C 257.730469 66.554688 257.71875 66.058594 257.707031 65.558594 L 257.707031 57.910156 L 260.804688 57.910156 Z M 260.804688 74.082031 " fill-opacity="1" fill-rule="nonzero"/><path fill="#000000" d="M 274.175781 74.082031 L 264.871094 74.082031 L 264.871094 57.910156 L 274.175781 57.910156 L 274.175781 60.714844 L 268.292969 60.714844 L 268.292969 64.265625 L 273.773438 64.265625 L 273.773438 67.089844 L 268.292969 67.089844 L 268.292969 71.238281 L 274.175781 71.238281 Z M 274.175781 74.082031 " fill-opacity="1" fill-rule="nonzero"/><path fill="#000000" d="M 283.785156 74.082031 L 280.359375 74.082031 L 280.359375 60.769531 L 275.972656 60.769531 L 275.972656 57.910156 L 288.171875 57.910156 L 288.171875 60.769531 L 283.785156 60.769531 Z M 283.785156 74.082031 " fill-opacity="1" fill-rule="nonzero"/><path fill="#000000" d="M 310.539062 57.910156 L 306.425781 74.082031 L 302.511719 74.082031 L 300.324219 65.578125 C 300.273438 65.421875 300.214844 65.175781 300.144531 64.847656 C 300.070312 64.511719 299.988281 64.148438 299.90625 63.753906 C 299.832031 63.355469 299.765625 62.988281 299.707031 62.644531 C 299.640625 62.292969 299.601562 62.015625 299.578125 61.808594 C 299.550781 62.015625 299.511719 62.292969 299.453125 62.644531 C 299.386719 62.988281 299.316406 63.351562 299.234375 63.738281 C 299.160156 64.128906 299.085938 64.492188 299.015625 64.832031 C 298.941406 65.171875 298.878906 65.429688 298.832031 65.613281 L 296.648438 74.082031 L 292.769531 74.082031 L 288.636719 57.910156 L 292.003906 57.910156 L 294.078125 66.742188 C 294.140625 67.011719 294.207031 67.324219 294.28125 67.6875 C 294.351562 68.054688 294.425781 68.433594 294.5 68.835938 C 294.582031 69.238281 294.652344 69.628906 294.71875 70 C 294.789062 70.378906 294.835938 70.703125 294.863281 70.964844 C 294.898438 70.6875 294.945312 70.367188 295.007812 70 C 295.066406 69.628906 295.125 69.246094 295.191406 68.855469 C 295.261719 68.46875 295.335938 68.109375 295.410156 67.78125 C 295.480469 67.441406 295.546875 67.171875 295.609375 66.960938 L 297.976562 57.910156 L 301.21875 57.910156 L 303.566406 66.960938 C 303.613281 67.171875 303.675781 67.441406 303.75 67.78125 C 303.820312 68.109375 303.894531 68.46875 303.96875 68.855469 C 304.039062 69.246094 304.105469 69.628906 304.167969 70 C 304.226562 70.378906 304.277344 70.703125 304.3125 70.964844 C 304.359375 70.601562 304.425781 70.160156 304.511719 69.636719 C 304.609375 69.105469 304.714844 68.578125 304.824219 68.054688 C 304.933594 67.535156 305.023438 67.097656 305.097656 66.742188 L 307.152344 57.910156 Z M 310.539062 57.910156 " fill-opacity="1" fill-rule="nonzero"/><path fill="#000000" d="M 327.25 65.976562 C 327.25 67.214844 327.089844 68.355469 326.777344 69.382812 C 326.472656 70.402344 326.003906 71.285156 325.375 72.023438 C 324.742188 72.75 323.941406 73.316406 322.972656 73.714844 C 322.011719 74.101562 320.867188 74.296875 319.546875 74.296875 C 318.222656 74.296875 317.074219 74.101562 316.105469 73.714844 C 315.144531 73.316406 314.347656 72.75 313.722656 72.023438 C 313.089844 71.285156 312.613281 70.402344 312.300781 69.382812 C 311.996094 68.355469 311.84375 67.210938 311.84375 65.960938 C 311.84375 64.285156 312.117188 62.828125 312.664062 61.589844 C 313.21875 60.339844 314.070312 59.375 315.214844 58.695312 C 316.351562 58 317.804688 57.65625 319.566406 57.65625 C 321.324219 57.65625 322.769531 58 323.898438 58.695312 C 325.027344 59.375 325.867188 60.339844 326.414062 61.589844 C 326.96875 62.828125 327.25 64.292969 327.25 65.976562 Z M 315.449219 65.976562 C 315.449219 67.105469 315.585938 68.082031 315.871094 68.890625 C 316.148438 69.707031 316.589844 70.328125 317.199219 70.765625 C 317.804688 71.203125 318.585938 71.421875 319.546875 71.421875 C 320.515625 71.421875 321.304688 71.203125 321.914062 70.765625 C 322.519531 70.328125 322.957031 69.707031 323.226562 68.890625 C 323.503906 68.082031 323.644531 67.105469 323.644531 65.976562 C 323.644531 64.277344 323.324219 62.945312 322.699219 61.972656 C 322.066406 61 321.023438 60.515625 319.566406 60.515625 C 318.605469 60.515625 317.816406 60.734375 317.199219 61.171875 C 316.589844 61.605469 316.148438 62.234375 315.871094 63.046875 C 315.585938 63.859375 315.449219 64.839844 315.449219 65.976562 Z M 315.449219 65.976562 " fill-opacity="1" fill-rule="nonzero"/><path fill="#000000" d="M 335.316406 57.910156 C 336.773438 57.910156 337.980469 58.089844 338.941406 58.4375 C 339.898438 58.792969 340.609375 59.328125 341.070312 60.042969 C 341.53125 60.761719 341.765625 61.660156 341.765625 62.753906 C 341.765625 63.496094 341.621094 64.148438 341.34375 64.703125 C 341.0625 65.25 340.695312 65.71875 340.234375 66.105469 C 339.785156 66.484375 339.292969 66.792969 338.757812 67.035156 L 343.511719 74.082031 L 339.707031 74.082031 L 335.847656 67.871094 L 334.023438 67.871094 L 334.023438 74.082031 L 330.601562 74.082031 L 330.601562 57.910156 Z M 335.0625 60.714844 L 334.023438 60.714844 L 334.023438 65.085938 L 335.136719 65.085938 C 336.265625 65.085938 337.070312 64.898438 337.558594 64.519531 C 338.054688 64.148438 338.304688 63.585938 338.304688 62.84375 C 338.304688 62.082031 338.035156 61.535156 337.503906 61.207031 C 336.980469 60.878906 336.164062 60.714844 335.0625 60.714844 Z M 335.0625 60.714844 " fill-opacity="1" fill-rule="nonzero"/><path fill="#000000" d="M 358.554688 74.082031 L 354.660156 74.082031 L 350.433594 67.269531 L 348.976562 68.308594 L 348.976562 74.082031 L 345.554688 74.082031 L 345.554688 57.910156 L 348.976562 57.910156 L 348.976562 65.304688 C 349.207031 64.988281 349.433594 64.675781 349.652344 64.355469 C 349.871094 64.042969 350.09375 63.726562 350.324219 63.410156 L 354.714844 57.910156 L 358.519531 57.910156 L 352.875 65.066406 Z M 358.554688 74.082031 " fill-opacity="1" fill-rule="nonzero"/><path fill="#000000" d="M 370.136719 69.582031 C 370.136719 70.542969 369.902344 71.378906 369.429688 72.09375 C 368.964844 72.800781 368.289062 73.347656 367.40625 73.734375 C 366.519531 74.109375 365.445312 74.296875 364.183594 74.296875 C 363.609375 74.296875 363.058594 74.261719 362.527344 74.191406 C 361.988281 74.117188 361.480469 74.007812 360.996094 73.863281 C 360.511719 73.714844 360.042969 73.542969 359.59375 73.332031 L 359.59375 70.148438 C 360.359375 70.488281 361.152344 70.796875 361.980469 71.074219 C 362.804688 71.34375 363.625 71.476562 364.4375 71.476562 C 364.996094 71.476562 365.445312 71.402344 365.785156 71.257812 C 366.136719 71.101562 366.386719 70.894531 366.53125 70.640625 C 366.6875 70.382812 366.769531 70.089844 366.769531 69.746094 C 366.769531 69.347656 366.628906 69.007812 366.351562 68.726562 C 366.082031 68.433594 365.714844 68.164062 365.242188 67.90625 C 364.765625 67.652344 364.230469 67.386719 363.636719 67.105469 C 363.261719 66.925781 362.847656 66.707031 362.398438 66.449219 C 361.960938 66.195312 361.542969 65.886719 361.144531 65.523438 C 360.742188 65.148438 360.414062 64.699219 360.160156 64.175781 C 359.90625 63.65625 359.777344 63.023438 359.777344 62.28125 C 359.777344 61.3125 359.996094 60.488281 360.433594 59.804688 C 360.878906 59.113281 361.515625 58.585938 362.34375 58.21875 C 363.167969 57.855469 364.140625 57.675781 365.257812 57.675781 C 366.097656 57.675781 366.898438 57.773438 367.664062 57.964844 C 368.425781 58.160156 369.226562 58.449219 370.066406 58.820312 L 368.953125 61.480469 C 368.214844 61.179688 367.542969 60.945312 366.953125 60.789062 C 366.355469 60.621094 365.753906 60.53125 365.148438 60.53125 C 364.722656 60.53125 364.355469 60.601562 364.058594 60.734375 C 363.75 60.871094 363.519531 61.0625 363.363281 61.316406 C 363.207031 61.5625 363.128906 61.84375 363.128906 62.171875 C 363.128906 62.550781 363.242188 62.871094 363.472656 63.136719 C 363.703125 63.40625 364.042969 63.660156 364.492188 63.902344 C 364.941406 64.148438 365.503906 64.425781 366.1875 64.738281 C 367.011719 65.140625 367.714844 65.554688 368.300781 65.976562 C 368.890625 66.390625 369.347656 66.886719 369.664062 67.46875 C 369.980469 68.042969 370.136719 68.746094 370.136719 69.582031 Z M 370.136719 69.582031 " fill-opacity="1" fill-rule="nonzero"/><path fill="#000000" d="M 141.550781 105.453125 L 140.382812 101.609375 L 134.484375 101.609375 L 133.320312 105.453125 L 129.621094 105.453125 L 135.320312 89.210938 L 139.527344 89.210938 L 145.246094 105.453125 Z M 139.566406 98.734375 L 138.398438 94.964844 C 138.328125 94.722656 138.226562 94.410156 138.109375 94.019531 C 137.984375 93.617188 137.863281 93.210938 137.742188 92.796875 C 137.621094 92.386719 137.515625 92.027344 137.433594 91.722656 C 137.363281 92.027344 137.257812 92.40625 137.125 92.851562 C 137 93.304688 136.878906 93.726562 136.761719 94.128906 C 136.652344 94.519531 136.566406 94.796875 136.503906 94.964844 L 135.359375 98.734375 Z M 139.566406 98.734375 " fill-opacity="1" fill-rule="nonzero"/><path fill="#000000" d="M 156.832031 100.957031 C 156.832031 101.914062 156.59375 102.753906 156.121094 103.46875 C 155.65625 104.171875 154.984375 104.71875 154.101562 105.105469 C 153.210938 105.480469 152.136719 105.671875 150.878906 105.671875 C 150.304688 105.671875 149.753906 105.636719 149.21875 105.5625 C 148.683594 105.488281 148.171875 105.378906 147.691406 105.234375 C 147.203125 105.089844 146.734375 104.914062 146.289062 104.707031 L 146.289062 101.519531 C 147.054688 101.859375 147.84375 102.171875 148.675781 102.449219 C 149.496094 102.71875 150.316406 102.847656 151.132812 102.847656 C 151.6875 102.847656 152.136719 102.777344 152.480469 102.628906 C 152.832031 102.476562 153.082031 102.265625 153.226562 102.011719 C 153.382812 101.757812 153.460938 101.460938 153.460938 101.121094 C 153.460938 100.71875 153.320312 100.382812 153.042969 100.097656 C 152.777344 99.808594 152.40625 99.535156 151.933594 99.28125 C 151.460938 99.023438 150.921875 98.761719 150.332031 98.480469 C 149.953125 98.296875 149.539062 98.078125 149.09375 97.824219 C 148.65625 97.570312 148.238281 97.257812 147.835938 96.894531 C 147.4375 96.523438 147.109375 96.070312 146.851562 95.546875 C 146.597656 95.027344 146.46875 94.394531 146.46875 93.652344 C 146.46875 92.683594 146.6875 91.859375 147.125 91.175781 C 147.574219 90.484375 148.210938 89.957031 149.039062 89.59375 C 149.863281 89.230469 150.832031 89.046875 151.953125 89.046875 C 152.789062 89.046875 153.589844 89.148438 154.355469 89.339844 C 155.121094 89.535156 155.921875 89.820312 156.757812 90.195312 L 155.648438 92.851562 C 154.90625 92.550781 154.238281 92.320312 153.644531 92.160156 C 153.046875 91.992188 152.449219 91.90625 151.84375 91.90625 C 151.414062 91.90625 151.050781 91.972656 150.75 92.105469 C 150.445312 92.242188 150.210938 92.433594 150.058594 92.6875 C 149.898438 92.933594 149.820312 93.214844 149.820312 93.542969 C 149.820312 93.921875 149.933594 94.246094 150.167969 94.507812 C 150.394531 94.777344 150.734375 95.03125 151.1875 95.273438 C 151.632812 95.519531 152.199219 95.796875 152.878906 96.113281 C 153.703125 96.511719 154.410156 96.925781 154.992188 97.351562 C 155.585938 97.765625 156.039062 98.261719 156.359375 98.84375 C 156.671875 99.417969 156.832031 100.117188 156.832031 100.957031 Z M 156.832031 100.957031 " fill-opacity="1" fill-rule="nonzero"/><path fill="#000000" d="M 169.308594 100.957031 C 169.308594 101.914062 169.070312 102.753906 168.597656 103.46875 C 168.132812 104.171875 167.460938 104.71875 166.574219 105.105469 C 165.6875 105.480469 164.613281 105.671875 163.351562 105.671875 C 162.78125 105.671875 162.230469 105.636719 161.695312 105.5625 C 161.160156 105.488281 160.648438 105.378906 160.167969 105.234375 C 159.679688 105.089844 159.210938 104.914062 158.765625 104.707031 L 158.765625 101.519531 C 159.527344 101.859375 160.320312 102.171875 161.148438 102.449219 C 161.972656 102.71875 162.792969 102.847656 163.609375 102.847656 C 164.164062 102.847656 164.613281 102.777344 164.957031 102.628906 C 165.304688 102.476562 165.554688 102.265625 165.703125 102.011719 C 165.855469 101.757812 165.9375 101.460938 165.9375 101.121094 C 165.9375 100.71875 165.796875 100.382812 165.519531 100.097656 C 165.25 99.808594 164.882812 99.535156 164.410156 99.28125 C 163.9375 99.023438 163.398438 98.761719 162.808594 98.480469 C 162.429688 98.296875 162.015625 98.078125 161.570312 97.824219 C 161.132812 97.570312 160.710938 97.257812 160.3125 96.894531 C 159.910156 96.523438 159.582031 96.070312 159.328125 95.546875 C 159.074219 95.027344 158.945312 94.394531 158.945312 93.652344 C 158.945312 92.683594 159.164062 91.859375 159.601562 91.175781 C 160.046875 90.484375 160.683594 89.957031 161.515625 89.59375 C 162.339844 89.230469 163.308594 89.046875 164.425781 89.046875 C 165.265625 89.046875 166.066406 89.148438 166.832031 89.339844 C 167.597656 89.535156 168.398438 89.820312 169.234375 90.195312 L 168.125 92.851562 C 167.382812 92.550781 166.710938 92.320312 166.121094 92.160156 C 165.523438 91.992188 164.921875 91.90625 164.316406 91.90625 C 163.890625 91.90625 163.527344 91.972656 163.226562 92.105469 C 162.921875 92.242188 162.6875 92.433594 162.535156 92.6875 C 162.375 92.933594 162.296875 93.214844 162.296875 93.542969 C 162.296875 93.921875 162.410156 94.246094 162.644531 94.507812 C 162.871094 94.777344 163.210938 95.03125 163.664062 95.273438 C 164.109375 95.519531 164.671875 95.796875 165.355469 96.113281 C 166.179688 96.511719 166.886719 96.925781 167.46875 97.351562 C 168.058594 97.765625 168.515625 98.261719 168.832031 98.84375 C 169.148438 99.417969 169.308594 100.117188 169.308594 100.957031 Z M 169.308594 100.957031 " fill-opacity="1" fill-rule="nonzero"/><path fill="#000000" d="M 186.917969 97.351562 C 186.917969 98.589844 186.757812 99.726562 186.445312 100.753906 C 186.140625 101.773438 185.671875 102.65625 185.042969 103.394531 C 184.410156 104.125 183.609375 104.6875 182.640625 105.089844 C 181.679688 105.476562 180.535156 105.671875 179.214844 105.671875 C 177.890625 105.671875 176.742188 105.476562 175.773438 105.089844 C 174.8125 104.6875 174.015625 104.125 173.390625 103.394531 C 172.757812 102.65625 172.28125 101.773438 171.96875 100.753906 C 171.664062 99.726562 171.511719 98.582031 171.511719 97.332031 C 171.511719 95.65625 171.785156 94.199219 172.332031 92.960938 C 172.886719 91.714844 173.738281 90.75 174.882812 90.066406 C 176.019531 89.375 177.472656 89.027344 179.234375 89.027344 C 180.992188 89.027344 182.4375 89.375 183.566406 90.066406 C 184.695312 90.75 185.535156 91.714844 186.082031 92.960938 C 186.636719 94.199219 186.917969 95.664062 186.917969 97.351562 Z M 175.117188 97.351562 C 175.117188 98.480469 175.253906 99.453125 175.539062 100.261719 C 175.816406 101.078125 176.257812 101.703125 176.867188 102.140625 C 177.472656 102.574219 178.253906 102.792969 179.214844 102.792969 C 180.183594 102.792969 180.972656 102.574219 181.582031 102.140625 C 182.1875 101.703125 182.625 101.078125 182.894531 100.261719 C 183.171875 99.453125 183.3125 98.480469 183.3125 97.351562 C 183.3125 95.652344 182.996094 94.316406 182.367188 93.34375 C 181.734375 92.375 180.691406 91.886719 179.234375 91.886719 C 178.273438 91.886719 177.484375 92.105469 176.867188 92.542969 C 176.257812 92.980469 175.816406 93.609375 175.539062 94.417969 C 175.253906 95.234375 175.117188 96.210938 175.117188 97.351562 Z M 175.117188 97.351562 " fill-opacity="1" fill-rule="nonzero"/><path fill="#000000" d="M 197.132812 91.90625 C 196.480469 91.90625 195.898438 92.03125 195.386719 92.289062 C 194.886719 92.542969 194.460938 92.917969 194.113281 93.398438 C 193.769531 93.871094 193.511719 94.449219 193.328125 95.128906 C 193.15625 95.8125 193.074219 96.566406 193.074219 97.40625 C 193.074219 98.5625 193.210938 99.542969 193.492188 100.355469 C 193.785156 101.15625 194.226562 101.769531 194.820312 102.195312 C 195.414062 102.609375 196.1875 102.8125 197.132812 102.8125 C 197.789062 102.8125 198.445312 102.738281 199.101562 102.59375 C 199.765625 102.449219 200.488281 102.242188 201.269531 101.976562 L 201.269531 104.851562 C 200.550781 105.144531 199.839844 105.351562 199.136719 105.472656 C 198.445312 105.601562 197.667969 105.671875 196.808594 105.671875 C 195.140625 105.671875 193.769531 105.335938 192.691406 104.652344 C 191.621094 103.960938 190.824219 102.996094 190.304688 101.757812 C 189.796875 100.507812 189.542969 99.050781 189.542969 97.386719 C 189.542969 96.160156 189.707031 95.046875 190.035156 94.035156 C 190.371094 93.015625 190.863281 92.136719 191.507812 91.394531 C 192.148438 90.644531 192.9375 90.066406 193.875 89.664062 C 194.820312 89.257812 195.90625 89.046875 197.132812 89.046875 C 197.9375 89.046875 198.738281 89.152344 199.539062 89.355469 C 200.347656 89.566406 201.128906 89.84375 201.867188 90.195312 L 200.757812 92.980469 C 200.148438 92.6875 199.542969 92.441406 198.9375 92.234375 C 198.328125 92.015625 197.726562 91.90625 197.132812 91.90625 Z M 197.132812 91.90625 " fill-opacity="1" fill-rule="nonzero"/><path fill="#000000" d="M 204.703125 89.285156 L 208.125 89.285156 L 208.125 105.453125 L 204.703125 105.453125 Z M 204.703125 89.285156 " fill-opacity="1" fill-rule="nonzero"/><path fill="#000000" d="M 222.089844 105.453125 L 220.925781 101.609375 L 215.023438 101.609375 L 213.859375 105.453125 L 210.164062 105.453125 L 215.863281 89.210938 L 220.070312 89.210938 L 225.785156 105.453125 Z M 220.105469 98.734375 L 218.941406 94.964844 C 218.867188 94.722656 218.765625 94.410156 218.648438 94.019531 C 218.527344 93.617188 218.402344 93.210938 218.285156 92.796875 C 218.160156 92.386719 218.054688 92.027344 217.972656 91.722656 C 217.902344 92.027344 217.796875 92.40625 217.664062 92.851562 C 217.542969 93.304688 217.417969 93.726562 217.300781 94.128906 C 217.191406 94.519531 217.105469 94.796875 217.046875 94.964844 L 215.898438 98.734375 Z M 220.105469 98.734375 " fill-opacity="1" fill-rule="nonzero"/><path fill="#000000" d="M 234.058594 105.453125 L 230.632812 105.453125 L 230.632812 92.140625 L 226.246094 92.140625 L 226.246094 89.285156 L 238.445312 89.285156 L 238.445312 92.140625 L 234.058594 92.140625 Z M 234.058594 105.453125 " fill-opacity="1" fill-rule="nonzero"/><path fill="#000000" d="M 240.949219 89.285156 L 244.371094 89.285156 L 244.371094 105.453125 L 240.949219 105.453125 Z M 240.949219 89.285156 " fill-opacity="1" fill-rule="nonzero"/><path fill="#000000" d="M 263.121094 97.351562 C 263.121094 98.589844 262.964844 99.726562 262.648438 100.753906 C 262.34375 101.773438 261.875 102.65625 261.246094 103.394531 C 260.613281 104.125 259.8125 104.6875 258.84375 105.089844 C 257.882812 105.476562 256.742188 105.671875 255.421875 105.671875 C 254.097656 105.671875 252.949219 105.476562 251.980469 105.089844 C 251.019531 104.6875 250.222656 104.125 249.59375 103.394531 C 248.960938 102.65625 248.488281 101.773438 248.171875 100.753906 C 247.867188 99.726562 247.71875 98.582031 247.71875 97.332031 C 247.71875 95.65625 247.992188 94.199219 248.539062 92.960938 C 249.09375 91.714844 249.945312 90.75 251.085938 90.066406 C 252.226562 89.375 253.675781 89.027344 255.4375 89.027344 C 257.195312 89.027344 258.644531 89.375 259.773438 90.066406 C 260.902344 90.75 261.738281 91.714844 262.285156 92.960938 C 262.839844 94.199219 263.121094 95.664062 263.121094 97.351562 Z M 251.324219 97.351562 C 251.324219 98.480469 251.460938 99.453125 251.742188 100.261719 C 252.019531 101.078125 252.460938 101.703125 253.070312 102.140625 C 253.675781 102.574219 254.460938 102.792969 255.421875 102.792969 C 256.390625 102.792969 257.179688 102.574219 257.789062 102.140625 C 258.394531 101.703125 258.832031 101.078125 259.097656 100.261719 C 259.375 99.453125 259.519531 98.480469 259.519531 97.351562 C 259.519531 95.652344 259.199219 94.316406 258.570312 93.34375 C 257.9375 92.375 256.894531 91.886719 255.4375 91.886719 C 254.476562 91.886719 253.691406 92.105469 253.070312 92.542969 C 252.460938 92.980469 252.019531 93.609375 251.742188 94.417969 C 251.460938 95.234375 251.324219 96.210938 251.324219 97.351562 Z M 251.324219 97.351562 " fill-opacity="1" fill-rule="nonzero"/><path fill="#000000" d="M 280.824219 105.453125 L 276.453125 105.453125 L 269.425781 93.214844 L 269.316406 93.214844 C 269.351562 93.726562 269.378906 94.246094 269.40625 94.765625 C 269.429688 95.273438 269.449219 95.792969 269.460938 96.3125 C 269.484375 96.820312 269.507812 97.332031 269.535156 97.839844 L 269.535156 105.453125 L 266.476562 105.453125 L 266.476562 89.285156 L 270.789062 89.285156 L 277.820312 101.390625 L 277.890625 101.390625 C 277.878906 100.894531 277.859375 100.398438 277.835938 99.898438 C 277.808594 99.402344 277.785156 98.910156 277.765625 98.425781 C 277.75 97.929688 277.738281 97.433594 277.726562 96.929688 L 277.726562 89.285156 L 280.824219 89.285156 Z M 280.824219 105.453125 " fill-opacity="1" fill-rule="nonzero"/><g clip-path="url(#23b3e9341a)"><g clip-path="url(#02b8a7e874)"><path fill="#ffffff" d="M 20.703125 3.675781 L 95.628906 3.675781 L 95.628906 78.601562 L 20.703125 78.601562 Z M 20.703125 3.675781 " fill-opacity="1" fill-rule="nonzero"/></g></g><g clip-path="url(#901ffd7705)"><g clip-path="url(#48dd5fd2ba)"><path stroke-linecap="butt" transform="matrix(0.874026, 0, 0, 0.874026, 20.702951, 3.673809)" fill="none" stroke-linejoin="miter" d="M 42.860417 0.00225635 C 19.191208 0.00225635 0.000198998 19.1888 0.000198998 42.862482 C 0.000198998 66.527226 19.191208 85.722708 42.860417 85.722708 C 66.529625 85.722708 85.720634 66.527226 85.720634 42.862482 C 85.720634 19.1888 66.529625 0.00225635 42.860417 0.00225635 Z M 42.860417 0.00225635 " stroke="#000000" stroke-width="6" stroke-opacity="1" stroke-miterlimit="4"/></g></g><g clip-path="url(#43c91aa9bb)"><g clip-path="url(#683c88a1d9)"><path fill="#ffffff" d="M -1.308594 20.777344 L 102.027344 20.777344 L 102.027344 111.0625 L -1.308594 111.0625 Z M -1.308594 20.777344 " fill-opacity="1" fill-rule="nonzero"/></g></g><g clip-path="url(#ca91f357c7)"><g clip-path="url(#52a049a8c3)"><path stroke-linecap="butt" transform="matrix(0.874026, 0, 0, 0.874026, -1.309585, 20.779929)" fill="none" stroke-linejoin="miter" d="M 65.967433 12.153436 L 111.098036 91.138709 C 112.537138 93.650434 112.528199 96.738695 111.07122 99.241482 C 109.61871 101.748738 106.941622 103.290633 104.045541 103.290633 L 13.998861 103.290633 C 11.102779 103.290633 8.425692 101.748738 6.973182 99.241482 C 5.520672 96.738695 5.511733 93.650434 6.946366 91.138709 L 52.076969 12.153436 C 53.498194 9.659588 56.152935 8.122161 59.022201 8.122161 C 61.895936 8.122161 64.546208 9.659588 65.967433 12.153436 Z M 65.967433 12.153436 " stroke="#000000" stroke-width="6" stroke-opacity="1" stroke-miterlimit="4"/></g></g><g clip-path="url(#26339ceadb)"><g clip-path="url(#cd5f0edebc)"><path fill="#ffffff" d="M 58.164062 11.71875 L 69.160156 11.71875 L 69.160156 22.714844 L 58.164062 22.714844 Z M 58.164062 11.71875 " fill-opacity="1" fill-rule="nonzero"/></g></g><g clip-path="url(#1404de8e64)"><g clip-path="url(#712a1eb44d)"><path stroke-linecap="butt" transform="matrix(0.874026, 0, 0, 0.874026, 58.16566, 11.720735)" fill="none" stroke-linejoin="miter" d="M 6.281953 -0.00227145 L 8.279713 4.279282 L 12.561266 6.281511 L 8.279713 8.279272 L 6.281953 12.560825 L 4.279724 8.279272 L -0.00182828 6.281511 L 4.279724 4.279282 Z M 6.281953 -0.00227145 " stroke="#000000" stroke-width="6" stroke-opacity="1" stroke-miterlimit="4"/></g></g><g clip-path="url(#61e4dbae94)"><g clip-path="url(#659d419471)"><path fill="#ffffff" d="M 7.699219 29.386719 L 111.035156 29.386719 L 111.035156 119.671875 L 7.699219 119.671875 Z M 7.699219 29.386719 " fill-opacity="1" fill-rule="nonzero"/></g></g><g clip-path="url(#25d4bbcf83)"><g clip-path="url(#6616d71fc7)"><path stroke-linecap="butt" transform="matrix(0.874026, 0, 0, 0.874026, 7.699178, 29.388941)" fill="none" stroke-linejoin="miter" d="M 65.970815 12.15385 L 111.096948 91.139124 C 112.536051 93.650849 112.527112 96.743578 111.074602 99.241896 C 109.622092 101.749152 106.945004 103.291048 104.048923 103.291048 L 14.002243 103.291048 C 11.106161 103.291048 8.429074 101.749152 6.972095 99.241896 C 5.519585 96.743578 5.510646 93.650849 6.949748 91.139124 L 52.080351 12.15385 C 53.501576 9.664471 56.151848 8.122576 59.021114 8.122576 C 61.894849 8.122576 64.545121 9.664471 65.970815 12.15385 Z M 65.970815 12.15385 " stroke="#000000" stroke-width="6" stroke-opacity="1" stroke-miterlimit="4"/></g></g><g clip-path="url(#815e537596)"><g clip-path="url(#9b871221e2)"><path fill="#ffffff" d="M 16.691406 38.515625 L 120.023438 38.515625 L 120.023438 128.796875 L 16.691406 128.796875 Z M 16.691406 38.515625 " fill-opacity="1" fill-rule="nonzero"/></g></g><g clip-path="url(#2aa57fe0fe)"><g clip-path="url(#fcadc4ebc2)"><path stroke-linecap="butt" transform="matrix(0.874026, 0, 0, 0.874026, 16.690801, 38.517014)" fill="none" stroke-linejoin="miter" d="M 65.966992 12.154804 L 111.102064 91.135608 C 112.541166 93.651802 112.532228 96.740063 111.070779 99.247319 C 109.618269 101.750106 106.941181 103.292001 104.0451 103.292001 L 13.99842 103.292001 C 11.102339 103.292001 8.425251 101.750106 6.972741 99.247319 C 5.520231 96.740063 5.511292 93.651802 6.945925 91.135608 L 52.076528 12.154804 C 53.502222 9.665425 56.156963 8.123529 59.026229 8.123529 C 61.895495 8.123529 64.545767 9.665425 65.966992 12.154804 Z M 65.966992 12.154804 " stroke="#000000" stroke-width="6" stroke-opacity="1" stroke-miterlimit="4"/></g></g></svg>