<svg xmlns="http://www.w3.org/2000/svg" xmlns:xlink="http://www.w3.org/1999/xlink" width="500" zoomAndPan="magnify" viewBox="0 0 375 135.000003" height="180" preserveAspectRatio="xMidYMid meet" version="1.0"><defs><clipPath id="186bb3ea1c"><path d="M 21.300781 4.308594 L 96.226562 4.308594 L 96.226562 79.234375 L 21.300781 79.234375 Z M 21.300781 4.308594 " clip-rule="nonzero"/></clipPath><clipPath id="0f74284c7e"><path d="M 58.761719 4.308594 C 38.070312 4.308594 21.300781 21.082031 21.300781 41.769531 C 21.300781 62.460938 38.070312 79.234375 58.761719 79.234375 C 79.449219 79.234375 96.226562 62.460938 96.226562 41.769531 C 96.226562 21.082031 79.449219 4.308594 58.761719 4.308594 Z M 58.761719 4.308594 " clip-rule="nonzero"/></clipPath><clipPath id="0c90dcdf42"><path d="M 21.300781 4.308594 L 96.222656 4.308594 L 96.222656 79.230469 L 21.300781 79.230469 Z M 21.300781 4.308594 " clip-rule="nonzero"/></clipPath><clipPath id="1d3859b531"><path d="M 58.761719 4.308594 C 38.070312 4.308594 21.300781 21.082031 21.300781 41.769531 C 21.300781 62.457031 38.070312 79.230469 58.761719 79.230469 C 79.445312 79.230469 96.222656 62.457031 96.222656 41.769531 C 96.222656 21.082031 79.445312 4.308594 58.761719 4.308594 Z M 58.761719 4.308594 " clip-rule="nonzero"/></clipPath><clipPath id="a6161a4cb9"><path d="M 4.226562 28.464844 L 97.683594 28.464844 L 97.683594 111.695312 L 4.226562 111.695312 Z M 4.226562 28.464844 " clip-rule="nonzero"/></clipPath><clipPath id="3fd1065ad9"><path d="M 56.949219 32.039062 L 96.398438 101.070312 C 97.65625 103.269531 97.644531 105.96875 96.375 108.160156 C 95.105469 110.347656 92.765625 111.695312 90.234375 111.695312 L 11.523438 111.695312 C 8.992188 111.695312 6.652344 110.347656 5.382812 108.160156 C 4.113281 105.96875 4.101562 103.269531 5.359375 101.070312 L 44.808594 32.039062 C 46.050781 29.855469 48.367188 28.515625 50.875 28.515625 C 53.390625 28.515625 55.703125 29.855469 56.949219 32.039062 Z M 56.949219 32.039062 " clip-rule="nonzero"/></clipPath><clipPath id="533fdd1cb2"><path d="M 4.121094 28 L 97.628906 28 L 97.628906 111.4375 L 4.121094 111.4375 Z M 4.121094 28 " clip-rule="nonzero"/></clipPath><clipPath id="79f1d28be3"><path d="M 56.945312 32.039062 L 96.390625 101.070312 C 97.644531 103.265625 97.636719 105.964844 96.367188 108.15625 C 95.097656 110.34375 92.757812 111.691406 90.226562 111.691406 L 11.523438 111.691406 C 8.992188 111.691406 6.652344 110.34375 5.382812 108.15625 C 4.113281 105.964844 4.101562 103.265625 5.359375 101.070312 L 44.804688 32.039062 C 46.046875 29.855469 48.363281 28.515625 50.871094 28.515625 C 53.386719 28.515625 55.703125 29.855469 56.945312 32.039062 Z M 56.945312 32.039062 " clip-rule="nonzero"/></clipPath><clipPath id="9fc86dd67e"><path d="M 58.761719 12.355469 L 69.753906 12.355469 L 69.753906 23.347656 L 58.761719 23.347656 Z M 58.761719 12.355469 " clip-rule="nonzero"/></clipPath><clipPath id="b6310303a1"><path d="M 64.253906 12.355469 L 66.003906 16.101562 L 69.753906 17.847656 L 66.003906 19.601562 L 64.253906 23.347656 L 62.507812 19.601562 L 58.761719 17.847656 L 62.507812 16.101562 Z M 64.253906 12.355469 " clip-rule="nonzero"/></clipPath><clipPath id="b96ac2ce57"><path d="M 58.761719 12.355469 L 69.742188 12.355469 L 69.742188 23.332031 L 58.761719 23.332031 Z M 58.761719 12.355469 " clip-rule="nonzero"/></clipPath><clipPath id="6293cad0db"><path d="M 64.25 12.355469 L 66 16.09375 L 69.742188 17.84375 L 66 19.589844 L 64.25 23.332031 L 62.503906 19.589844 L 58.761719 17.84375 L 62.503906 16.09375 Z M 64.25 12.355469 " clip-rule="nonzero"/></clipPath><clipPath id="c8575b19b2"><path d="M 13.234375 37.070312 L 106.691406 37.070312 L 106.691406 120.304688 L 13.234375 120.304688 Z M 13.234375 37.070312 " clip-rule="nonzero"/></clipPath><clipPath id="6d27015923"><path d="M 65.957031 40.644531 L 105.40625 109.679688 C 106.664062 111.878906 106.65625 114.578125 105.386719 116.769531 C 104.113281 118.957031 101.773438 120.304688 99.242188 120.304688 L 20.53125 120.304688 C 18 120.304688 15.660156 118.957031 14.390625 116.769531 C 13.121094 114.578125 13.113281 111.878906 14.367188 109.679688 L 53.816406 40.644531 C 55.058594 38.464844 57.378906 37.121094 59.886719 37.121094 C 62.398438 37.121094 64.710938 38.464844 65.957031 40.644531 Z M 65.957031 40.644531 " clip-rule="nonzero"/></clipPath><clipPath id="dffd832e77"><path d="M 13.128906 37 L 106.636719 37 L 106.636719 120.046875 L 13.128906 120.046875 Z M 13.128906 37 " clip-rule="nonzero"/></clipPath><clipPath id="3e88bc32b2"><path d="M 65.953125 40.644531 L 105.398438 109.679688 C 106.65625 111.875 106.644531 114.578125 105.375 116.761719 C 104.105469 118.953125 101.765625 120.300781 99.234375 120.300781 L 20.53125 120.300781 C 18 120.300781 15.660156 118.953125 14.390625 116.761719 C 13.121094 114.578125 13.113281 111.875 14.367188 109.679688 L 53.8125 40.644531 C 55.054688 38.46875 57.371094 37.121094 59.882812 37.121094 C 62.394531 37.121094 64.710938 38.46875 65.953125 40.644531 Z M 65.953125 40.644531 " clip-rule="nonzero"/></clipPath><clipPath id="3d365c2c68"><path d="M 22.226562 46.203125 L 115.683594 46.203125 L 115.683594 129.433594 L 22.226562 129.433594 Z M 22.226562 46.203125 " clip-rule="nonzero"/></clipPath><clipPath id="36086f75c3"><path d="M 74.949219 49.773438 L 114.398438 118.8125 C 115.65625 121.007812 115.644531 123.710938 114.375 125.898438 C 113.105469 128.085938 110.765625 129.433594 108.234375 129.433594 L 29.523438 129.433594 C 26.992188 129.433594 24.652344 128.085938 23.382812 125.898438 C 22.113281 123.710938 22.101562 121.007812 23.359375 118.8125 L 62.808594 49.773438 C 64.050781 47.59375 66.367188 46.25 68.878906 46.25 C 71.390625 46.25 73.707031 47.59375 74.949219 49.773438 Z M 74.949219 49.773438 " clip-rule="nonzero"/></clipPath><clipPath id="59e88fe5c0"><path d="M 22.125 46 L 115.628906 46 L 115.628906 129.171875 L 22.125 129.171875 Z M 22.125 46 " clip-rule="nonzero"/></clipPath><clipPath id="56e36cd76c"><path d="M 74.945312 49.773438 L 114.394531 118.808594 C 115.648438 121.007812 115.640625 123.707031 114.367188 125.894531 C 113.097656 128.085938 110.757812 129.433594 108.226562 129.433594 L 29.523438 129.433594 C 26.992188 129.433594 24.652344 128.085938 23.382812 125.894531 C 22.113281 123.707031 22.101562 121.007812 23.359375 118.808594 L 62.804688 49.773438 C 64.050781 47.597656 66.367188 46.25 68.875 46.25 C 71.382812 46.25 73.703125 47.597656 74.945312 49.773438 Z M 74.945312 49.773438 " clip-rule="nonzero"/></clipPath></defs><path fill="#000000" d="M 145.257812 43.339844 L 141.363281 43.339844 L 137.136719 36.53125 L 135.679688 37.570312 L 135.679688 43.339844 L 132.257812 43.339844 L 132.257812 27.171875 L 135.679688 27.171875 L 135.679688 34.566406 C 135.910156 34.25 136.136719 33.9375 136.355469 33.617188 C 136.574219 33.304688 136.796875 32.988281 137.027344 32.671875 L 141.417969 27.171875 L 145.222656 27.171875 L 139.578125 34.328125 Z M 145.257812 43.339844 " fill-opacity="1" fill-rule="nonzero"/><path fill="#000000" d="M 147.300781 27.171875 L 150.722656 27.171875 L 150.722656 43.339844 L 147.300781 43.339844 Z M 147.300781 27.171875 " fill-opacity="1" fill-rule="nonzero"/><path fill="#000000" d="M 154.796875 43.339844 L 154.796875 27.171875 L 158.222656 27.171875 L 158.222656 40.5 L 164.777344 40.5 L 164.777344 43.339844 Z M 154.796875 43.339844 " fill-opacity="1" fill-rule="nonzero"/><path fill="#000000" d="M 177.484375 43.339844 L 176.316406 39.5 L 170.417969 39.5 L 169.253906 43.339844 L 165.554688 43.339844 L 171.253906 27.097656 L 175.460938 27.097656 L 181.179688 43.339844 Z M 175.5 36.621094 L 174.332031 32.851562 C 174.261719 32.613281 174.160156 32.296875 174.042969 31.90625 C 173.917969 31.503906 173.796875 31.101562 173.675781 30.6875 C 173.554688 30.277344 173.449219 29.917969 173.367188 29.613281 C 173.292969 29.917969 173.191406 30.292969 173.058594 30.742188 C 172.933594 31.191406 172.8125 31.613281 172.695312 32.015625 C 172.585938 32.40625 172.5 32.683594 172.4375 32.851562 L 171.292969 36.621094 Z M 175.5 36.621094 " fill-opacity="1" fill-rule="nonzero"/><path fill="#000000" d="M 195.898438 27.171875 L 190.414062 43.339844 L 186.664062 43.339844 L 181.183594 27.171875 L 184.644531 27.171875 L 187.683594 36.785156 C 187.730469 36.960938 187.816406 37.269531 187.941406 37.714844 C 188.058594 38.152344 188.179688 38.621094 188.304688 39.117188 C 188.421875 39.617188 188.507812 40.027344 188.558594 40.355469 C 188.59375 40.027344 188.667969 39.621094 188.777344 39.136719 C 188.894531 38.640625 189.015625 38.164062 189.125 37.714844 C 189.242188 37.269531 189.328125 36.960938 189.378906 36.785156 L 192.4375 27.171875 Z M 195.898438 27.171875 " fill-opacity="1" fill-rule="nonzero"/><path fill="#000000" d="M 209.964844 34.253906 L 216.375 34.253906 L 216.375 42.648438 C 215.523438 42.933594 214.644531 43.15625 213.734375 43.324219 C 212.824219 43.476562 211.785156 43.558594 210.621094 43.558594 C 209.019531 43.558594 207.652344 43.246094 206.523438 42.613281 C 205.402344 41.984375 204.558594 41.046875 203.972656 39.808594 C 203.390625 38.570312 203.101562 37.050781 203.101562 35.238281 C 203.101562 33.539062 203.429688 32.070312 204.082031 30.832031 C 204.738281 29.59375 205.691406 28.636719 206.941406 27.953125 C 208.203125 27.277344 209.738281 26.933594 211.550781 26.933594 C 212.410156 26.933594 213.25 27.035156 214.082031 27.226562 C 214.917969 27.410156 215.671875 27.644531 216.355469 27.9375 L 215.210938 30.6875 C 214.722656 30.429688 214.15625 30.222656 213.515625 30.050781 C 212.882812 29.878906 212.222656 29.792969 211.53125 29.792969 C 210.535156 29.792969 209.664062 30.027344 208.925781 30.484375 C 208.199219 30.9375 207.632812 31.574219 207.234375 32.398438 C 206.832031 33.226562 206.632812 34.191406 206.632812 35.292969 C 206.632812 36.347656 206.769531 37.292969 207.050781 38.117188 C 207.34375 38.929688 207.796875 39.566406 208.417969 40.027344 C 209.035156 40.476562 209.84375 40.699219 210.839844 40.699219 C 211.335938 40.699219 211.75 40.683594 212.078125 40.648438 C 212.414062 40.601562 212.734375 40.546875 213.023438 40.484375 L 213.023438 37.113281 L 209.964844 37.113281 Z M 209.964844 34.253906 " fill-opacity="1" fill-rule="nonzero"/><path fill="#000000" d="M 224.945312 27.171875 C 226.402344 27.171875 227.609375 27.347656 228.570312 27.699219 C 229.527344 28.054688 230.238281 28.585938 230.699219 29.300781 C 231.160156 30.023438 231.394531 30.921875 231.394531 32.015625 C 231.394531 32.757812 231.25 33.410156 230.972656 33.964844 C 230.691406 34.511719 230.324219 34.980469 229.863281 35.367188 C 229.414062 35.742188 228.921875 36.054688 228.386719 36.292969 L 233.140625 43.339844 L 229.335938 43.339844 L 225.476562 37.132812 L 223.652344 37.132812 L 223.652344 43.339844 L 220.230469 43.339844 L 220.230469 27.171875 Z M 224.691406 29.976562 L 223.652344 29.976562 L 223.652344 34.347656 L 224.765625 34.347656 C 225.894531 34.347656 226.699219 34.160156 227.1875 33.78125 C 227.683594 33.410156 227.933594 32.847656 227.933594 32.105469 C 227.933594 31.339844 227.664062 30.796875 227.132812 30.46875 C 226.609375 30.140625 225.792969 29.976562 224.691406 29.976562 Z M 224.691406 29.976562 " fill-opacity="1" fill-rule="nonzero"/><path fill="#000000" d="M 249.859375 35.238281 C 249.859375 36.476562 249.703125 37.613281 249.386719 38.644531 C 249.082031 39.664062 248.613281 40.546875 247.984375 41.285156 C 247.351562 42.011719 246.550781 42.578125 245.582031 42.976562 C 244.621094 43.363281 243.476562 43.558594 242.160156 43.558594 C 240.832031 43.558594 239.6875 43.363281 238.71875 42.976562 C 237.757812 42.578125 236.960938 42.011719 236.332031 41.285156 C 235.699219 40.546875 235.226562 39.664062 234.910156 38.644531 C 234.605469 37.613281 234.457031 36.472656 234.457031 35.21875 C 234.457031 33.546875 234.730469 32.089844 235.273438 30.851562 C 235.832031 29.601562 236.683594 28.636719 237.824219 27.953125 C 238.960938 27.261719 240.414062 26.917969 242.175781 26.917969 C 243.933594 26.917969 245.382812 27.261719 246.511719 27.953125 C 247.640625 28.636719 248.476562 29.601562 249.023438 30.851562 C 249.578125 32.089844 249.859375 33.554688 249.859375 35.238281 Z M 238.0625 35.238281 C 238.0625 36.367188 238.199219 37.339844 238.480469 38.152344 C 238.757812 38.964844 239.199219 39.589844 239.808594 40.027344 C 240.414062 40.464844 241.199219 40.683594 242.160156 40.683594 C 243.128906 40.683594 243.914062 40.464844 244.527344 40.027344 C 245.132812 39.589844 245.566406 38.964844 245.835938 38.152344 C 246.113281 37.339844 246.253906 36.367188 246.253906 35.238281 C 246.253906 33.539062 245.9375 32.207031 245.308594 31.234375 C 244.675781 30.261719 243.632812 29.777344 242.175781 29.777344 C 241.214844 29.777344 240.429688 29.996094 239.808594 30.429688 C 239.199219 30.867188 238.757812 31.496094 238.480469 32.308594 C 238.199219 33.121094 238.0625 34.101562 238.0625 35.238281 Z M 238.0625 35.238281 " fill-opacity="1" fill-rule="nonzero"/><path fill="#000000" d="M 266.378906 27.171875 L 266.378906 37.640625 C 266.378906 38.75 266.128906 39.75 265.632812 40.648438 C 265.144531 41.546875 264.402344 42.257812 263.410156 42.777344 C 262.414062 43.300781 261.167969 43.558594 259.675781 43.558594 C 257.527344 43.558594 255.894531 43.011719 254.777344 41.921875 C 253.660156 40.828125 253.101562 39.386719 253.101562 37.585938 L 253.101562 27.171875 L 256.507812 27.171875 L 256.507812 37.078125 C 256.507812 38.414062 256.78125 39.347656 257.328125 39.882812 C 257.875 40.417969 258.679688 40.683594 259.75 40.683594 C 260.5 40.683594 261.105469 40.554688 261.570312 40.300781 C 262.042969 40.046875 262.390625 39.652344 262.609375 39.117188 C 262.835938 38.570312 262.953125 37.878906 262.953125 37.042969 L 262.953125 27.171875 Z M 266.378906 27.171875 " fill-opacity="1" fill-rule="nonzero"/><path fill="#000000" d="M 275.488281 27.171875 C 277.570312 27.171875 279.097656 27.621094 280.058594 28.519531 C 281.011719 29.421875 281.496094 30.648438 281.496094 32.214844 C 281.496094 32.921875 281.386719 33.601562 281.167969 34.253906 C 280.957031 34.902344 280.613281 35.46875 280.128906 35.96875 C 279.644531 36.46875 279 36.859375 278.199219 37.152344 C 277.398438 37.441406 276.40625 37.585938 275.230469 37.585938 L 273.757812 37.585938 L 273.757812 43.339844 L 270.332031 43.339844 L 270.332031 27.171875 Z M 275.324219 29.976562 L 273.757812 29.976562 L 273.757812 34.785156 L 274.886719 34.785156 C 275.527344 34.785156 276.085938 34.703125 276.5625 34.527344 C 277.035156 34.359375 277.398438 34.089844 277.652344 33.726562 C 277.910156 33.363281 278.035156 32.902344 278.035156 32.34375 C 278.035156 31.542969 277.808594 30.949219 277.363281 30.558594 C 276.925781 30.171875 276.242188 29.976562 275.324219 29.976562 Z M 275.324219 29.976562 " fill-opacity="1" fill-rule="nonzero"/><path fill="#000000" d="M 135.625 74.714844 L 132.257812 74.714844 L 132.257812 58.542969 L 141.527344 58.542969 L 141.527344 61.347656 L 135.625 61.347656 L 135.625 65.519531 L 141.109375 65.519531 L 141.109375 68.324219 L 135.625 68.324219 Z M 135.625 74.714844 " fill-opacity="1" fill-rule="nonzero"/><path fill="#000000" d="M 149.40625 58.542969 C 150.863281 58.542969 152.070312 58.722656 153.03125 59.074219 C 153.984375 59.429688 154.695312 59.960938 155.160156 60.675781 C 155.621094 61.394531 155.851562 62.296875 155.851562 63.386719 C 155.851562 64.128906 155.710938 64.78125 155.433594 65.335938 C 155.152344 65.882812 154.78125 66.351562 154.320312 66.738281 C 153.871094 67.117188 153.378906 67.425781 152.847656 67.667969 L 157.601562 74.714844 L 153.792969 74.714844 L 149.933594 68.503906 L 148.113281 68.503906 L 148.113281 74.714844 L 144.691406 74.714844 L 144.691406 58.542969 Z M 149.152344 61.347656 L 148.113281 61.347656 L 148.113281 65.71875 L 149.222656 65.71875 C 150.351562 65.71875 151.160156 65.53125 151.644531 65.15625 C 152.140625 64.78125 152.390625 64.222656 152.390625 63.480469 C 152.390625 62.714844 152.125 62.167969 151.589844 61.839844 C 151.066406 61.511719 150.253906 61.347656 149.152344 61.347656 Z M 149.152344 61.347656 " fill-opacity="1" fill-rule="nonzero"/><path fill="#000000" d="M 168.949219 74.714844 L 159.644531 74.714844 L 159.644531 58.542969 L 168.949219 58.542969 L 168.949219 61.347656 L 163.066406 61.347656 L 163.066406 64.898438 L 168.546875 64.898438 L 168.546875 67.722656 L 163.066406 67.722656 L 163.066406 71.875 L 168.949219 71.875 Z M 168.949219 74.714844 " fill-opacity="1" fill-rule="nonzero"/><path fill="#000000" d="M 181.632812 74.714844 L 172.328125 74.714844 L 172.328125 58.542969 L 181.632812 58.542969 L 181.632812 61.347656 L 175.753906 61.347656 L 175.753906 64.898438 L 181.234375 64.898438 L 181.234375 67.722656 L 175.753906 67.722656 L 175.753906 71.875 L 181.632812 71.875 Z M 181.632812 74.714844 " fill-opacity="1" fill-rule="nonzero"/><path fill="#000000" d="M 198.433594 66.464844 C 198.433594 68.300781 198.078125 69.828125 197.378906 71.054688 C 196.6875 72.269531 195.675781 73.183594 194.355469 73.804688 C 193.03125 74.414062 191.441406 74.714844 189.585938 74.714844 L 185.015625 74.714844 L 185.015625 58.542969 L 190.09375 58.542969 C 191.78125 58.542969 193.25 58.851562 194.503906 59.457031 C 195.75 60.050781 196.714844 60.9375 197.398438 62.113281 C 198.089844 63.292969 198.433594 64.746094 198.433594 66.464844 Z M 194.867188 66.554688 C 194.867188 65.367188 194.6875 64.390625 194.339844 63.625 C 193.984375 62.851562 193.46875 62.277344 192.789062 61.914062 C 192.109375 61.539062 191.265625 61.347656 190.257812 61.347656 L 188.4375 61.347656 L 188.4375 71.875 L 189.914062 71.875 C 191.589844 71.875 192.832031 71.433594 193.644531 70.542969 C 194.457031 69.660156 194.867188 68.332031 194.867188 66.554688 Z M 194.867188 66.554688 " fill-opacity="1" fill-rule="nonzero"/><path fill="#000000" d="M 216.457031 66.609375 C 216.457031 67.847656 216.300781 68.988281 215.984375 70.015625 C 215.679688 71.035156 215.210938 71.917969 214.582031 72.65625 C 213.949219 73.386719 213.148438 73.949219 212.179688 74.351562 C 211.21875 74.738281 210.078125 74.933594 208.757812 74.933594 C 207.433594 74.933594 206.285156 74.738281 205.316406 74.351562 C 204.355469 73.949219 203.558594 73.386719 202.929688 72.65625 C 202.296875 71.917969 201.824219 71.035156 201.507812 70.015625 C 201.203125 68.988281 201.054688 67.84375 201.054688 66.59375 C 201.054688 64.917969 201.328125 63.460938 201.875 62.222656 C 202.429688 60.976562 203.28125 60.011719 204.421875 59.328125 C 205.5625 58.636719 207.011719 58.289062 208.773438 58.289062 C 210.53125 58.289062 211.980469 58.636719 213.109375 59.328125 C 214.238281 60.011719 215.074219 60.976562 215.621094 62.222656 C 216.175781 63.460938 216.457031 64.925781 216.457031 66.609375 Z M 204.660156 66.609375 C 204.660156 67.738281 204.796875 68.714844 205.078125 69.523438 C 205.355469 70.339844 205.796875 70.964844 206.40625 71.398438 C 207.011719 71.835938 207.796875 72.054688 208.757812 72.054688 C 209.726562 72.054688 210.511719 71.835938 211.125 71.398438 C 211.730469 70.964844 212.167969 70.339844 212.433594 69.523438 C 212.710938 68.714844 212.851562 67.738281 212.851562 66.609375 C 212.851562 64.914062 212.535156 63.578125 211.90625 62.605469 C 211.273438 61.636719 210.230469 61.148438 208.773438 61.148438 C 207.8125 61.148438 207.027344 61.367188 206.40625 61.804688 C 205.796875 62.242188 205.355469 62.871094 205.078125 63.679688 C 204.796875 64.496094 204.660156 65.472656 204.660156 66.609375 Z M 204.660156 66.609375 " fill-opacity="1" fill-rule="nonzero"/><path fill="#000000" d="M 226.65625 74.714844 L 222.761719 62.023438 L 222.652344 62.023438 C 222.675781 62.328125 222.695312 62.78125 222.722656 63.386719 C 222.761719 64 222.789062 64.644531 222.816406 65.335938 C 222.851562 66.019531 222.871094 66.636719 222.871094 67.195312 L 222.871094 74.714844 L 219.8125 74.714844 L 219.8125 58.542969 L 224.472656 58.542969 L 228.296875 70.910156 L 228.367188 70.910156 L 232.429688 58.542969 L 237.089844 58.542969 L 237.089844 74.714844 L 233.902344 74.714844 L 233.902344 67.066406 C 233.902344 66.554688 233.910156 65.96875 233.921875 65.300781 C 233.945312 64.636719 233.96875 64.003906 233.996094 63.40625 C 234.03125 62.800781 234.054688 62.351562 234.066406 62.058594 L 233.957031 62.058594 L 229.789062 74.714844 Z M 226.65625 74.714844 " fill-opacity="1" fill-rule="nonzero"/><path fill="#000000" d="M 261.402344 74.714844 L 257.03125 74.714844 L 250 62.476562 L 249.890625 62.476562 C 249.929688 62.988281 249.957031 63.507812 249.984375 64.027344 C 250.007812 64.535156 250.023438 65.054688 250.039062 65.574219 C 250.0625 66.082031 250.082031 66.59375 250.109375 67.101562 L 250.109375 74.714844 L 247.050781 74.714844 L 247.050781 58.542969 L 251.367188 58.542969 L 258.394531 70.652344 L 258.46875 70.652344 C 258.457031 70.15625 258.4375 69.660156 258.414062 69.160156 C 258.386719 68.664062 258.363281 68.171875 258.339844 67.683594 C 258.328125 67.1875 258.3125 66.691406 258.304688 66.191406 L 258.304688 58.542969 L 261.402344 58.542969 Z M 261.402344 74.714844 " fill-opacity="1" fill-rule="nonzero"/><path fill="#000000" d="M 274.773438 74.714844 L 265.46875 74.714844 L 265.46875 58.542969 L 274.773438 58.542969 L 274.773438 61.347656 L 268.890625 61.347656 L 268.890625 64.898438 L 274.371094 64.898438 L 274.371094 67.722656 L 268.890625 67.722656 L 268.890625 71.875 L 274.773438 71.875 Z M 274.773438 74.714844 " fill-opacity="1" fill-rule="nonzero"/><path fill="#000000" d="M 284.378906 74.714844 L 280.957031 74.714844 L 280.957031 61.402344 L 276.570312 61.402344 L 276.570312 58.542969 L 288.769531 58.542969 L 288.769531 61.402344 L 284.378906 61.402344 Z M 284.378906 74.714844 " fill-opacity="1" fill-rule="nonzero"/><path fill="#000000" d="M 311.136719 58.542969 L 307.019531 74.714844 L 303.105469 74.714844 L 300.921875 66.210938 C 300.871094 66.054688 300.8125 65.808594 300.738281 65.480469 C 300.667969 65.144531 300.585938 64.78125 300.503906 64.390625 C 300.429688 63.988281 300.363281 63.621094 300.300781 63.277344 C 300.238281 62.929688 300.199219 62.652344 300.175781 62.441406 C 300.148438 62.652344 300.105469 62.929688 300.046875 63.277344 C 299.984375 63.621094 299.910156 63.984375 299.828125 64.371094 C 299.757812 64.761719 299.683594 65.128906 299.609375 65.464844 C 299.539062 65.804688 299.472656 66.066406 299.429688 66.246094 L 297.242188 74.714844 L 293.363281 74.714844 L 289.230469 58.542969 L 292.601562 58.542969 L 294.675781 67.375 C 294.734375 67.644531 294.804688 67.957031 294.875 68.324219 C 294.949219 68.6875 295.023438 69.070312 295.09375 69.46875 C 295.175781 69.871094 295.25 70.261719 295.3125 70.636719 C 295.386719 71.011719 295.429688 71.335938 295.457031 71.601562 C 295.496094 71.324219 295.539062 71 295.605469 70.636719 C 295.664062 70.261719 295.722656 69.878906 295.785156 69.488281 C 295.859375 69.101562 295.933594 68.742188 296.003906 68.414062 C 296.078125 68.078125 296.140625 67.804688 296.207031 67.59375 L 298.574219 58.542969 L 301.8125 58.542969 L 304.164062 67.59375 C 304.207031 67.804688 304.273438 68.078125 304.34375 68.414062 C 304.417969 68.742188 304.488281 69.101562 304.5625 69.488281 C 304.636719 69.878906 304.699219 70.261719 304.761719 70.636719 C 304.824219 71.011719 304.871094 71.335938 304.910156 71.601562 C 304.953125 71.234375 305.023438 70.792969 305.109375 70.269531 C 305.203125 69.738281 305.308594 69.210938 305.417969 68.6875 C 305.527344 68.167969 305.621094 67.730469 305.691406 67.375 L 307.75 58.542969 Z M 311.136719 58.542969 " fill-opacity="1" fill-rule="nonzero"/><path fill="#000000" d="M 327.847656 66.609375 C 327.847656 67.847656 327.6875 68.988281 327.371094 70.015625 C 327.066406 71.035156 326.597656 71.917969 325.96875 72.65625 C 325.335938 73.386719 324.535156 73.949219 323.566406 74.351562 C 322.605469 74.738281 321.464844 74.933594 320.144531 74.933594 C 318.820312 74.933594 317.671875 74.738281 316.703125 74.351562 C 315.742188 73.949219 314.945312 73.386719 314.316406 72.65625 C 313.683594 71.917969 313.210938 71.035156 312.898438 70.015625 C 312.589844 68.988281 312.441406 67.84375 312.441406 66.59375 C 312.441406 64.917969 312.714844 63.460938 313.261719 62.222656 C 313.816406 60.976562 314.667969 60.011719 315.808594 59.328125 C 316.949219 58.636719 318.398438 58.289062 320.160156 58.289062 C 321.917969 58.289062 323.367188 58.636719 324.496094 59.328125 C 325.625 60.011719 326.460938 60.976562 327.007812 62.222656 C 327.5625 63.460938 327.847656 64.925781 327.847656 66.609375 Z M 316.046875 66.609375 C 316.046875 67.738281 316.183594 68.714844 316.464844 69.523438 C 316.742188 70.339844 317.183594 70.964844 317.792969 71.398438 C 318.398438 71.835938 319.183594 72.054688 320.144531 72.054688 C 321.113281 72.054688 321.902344 71.835938 322.511719 71.398438 C 323.117188 70.964844 323.554688 70.339844 323.820312 69.523438 C 324.101562 68.714844 324.242188 67.738281 324.242188 66.609375 C 324.242188 64.914062 323.921875 63.578125 323.292969 62.605469 C 322.660156 61.636719 321.617188 61.148438 320.160156 61.148438 C 319.203125 61.148438 318.414062 61.367188 317.792969 61.804688 C 317.183594 62.242188 316.742188 62.871094 316.464844 63.679688 C 316.183594 64.496094 316.046875 65.472656 316.046875 66.609375 Z M 316.046875 66.609375 " fill-opacity="1" fill-rule="nonzero"/><path fill="#000000" d="M 335.914062 58.542969 C 337.371094 58.542969 338.578125 58.722656 339.539062 59.074219 C 340.492188 59.429688 341.203125 59.960938 341.667969 60.675781 C 342.128906 61.394531 342.359375 62.296875 342.359375 63.386719 C 342.359375 64.128906 342.21875 64.78125 341.941406 65.335938 C 341.660156 65.882812 341.289062 66.351562 340.832031 66.738281 C 340.378906 67.117188 339.886719 67.425781 339.355469 67.667969 L 344.109375 74.714844 L 340.300781 74.714844 L 336.441406 68.503906 L 334.621094 68.503906 L 334.621094 74.714844 L 331.199219 74.714844 L 331.199219 58.542969 Z M 335.660156 61.347656 L 334.621094 61.347656 L 334.621094 65.71875 L 335.730469 65.71875 C 336.859375 65.71875 337.667969 65.53125 338.152344 65.15625 C 338.648438 64.78125 338.898438 64.222656 338.898438 63.480469 C 338.898438 62.714844 338.632812 62.167969 338.097656 61.839844 C 337.574219 61.511719 336.761719 61.347656 335.660156 61.347656 Z M 335.660156 61.347656 " fill-opacity="1" fill-rule="nonzero"/><path fill="#000000" d="M 359.152344 74.714844 L 355.253906 74.714844 L 351.03125 67.902344 L 349.574219 68.941406 L 349.574219 74.714844 L 346.152344 74.714844 L 346.152344 58.542969 L 349.574219 58.542969 L 349.574219 65.9375 C 349.800781 65.625 350.03125 65.308594 350.25 64.992188 C 350.464844 64.675781 350.691406 64.363281 350.921875 64.042969 L 355.308594 58.542969 L 359.117188 58.542969 L 353.472656 65.699219 Z M 359.152344 74.714844 " fill-opacity="1" fill-rule="nonzero"/><path fill="#000000" d="M 370.734375 70.214844 C 370.734375 71.175781 370.496094 72.015625 370.023438 72.730469 C 369.558594 73.433594 368.886719 73.980469 368.003906 74.367188 C 367.117188 74.742188 366.042969 74.933594 364.78125 74.933594 C 364.207031 74.933594 363.65625 74.894531 363.125 74.824219 C 362.585938 74.75 362.078125 74.640625 361.59375 74.496094 C 361.105469 74.351562 360.636719 74.175781 360.191406 73.96875 L 360.191406 70.78125 C 360.957031 71.121094 361.75 71.433594 362.578125 71.710938 C 363.402344 71.976562 364.21875 72.109375 365.035156 72.109375 C 365.589844 72.109375 366.042969 72.039062 366.382812 71.890625 C 366.734375 71.738281 366.984375 71.527344 367.128906 71.273438 C 367.285156 71.019531 367.367188 70.722656 367.367188 70.378906 C 367.367188 69.980469 367.226562 69.644531 366.945312 69.359375 C 366.679688 69.070312 366.308594 68.796875 365.835938 68.542969 C 365.363281 68.285156 364.824219 68.023438 364.234375 67.738281 C 363.855469 67.558594 363.441406 67.339844 362.996094 67.085938 C 362.558594 66.828125 362.140625 66.519531 361.738281 66.15625 C 361.339844 65.78125 361.011719 65.332031 360.757812 64.808594 C 360.5 64.289062 360.375 63.65625 360.375 62.914062 C 360.375 61.945312 360.59375 61.121094 361.027344 60.4375 C 361.476562 59.746094 362.113281 59.21875 362.941406 58.855469 C 363.765625 58.488281 364.734375 58.308594 365.855469 58.308594 C 366.691406 58.308594 367.492188 58.40625 368.257812 58.597656 C 369.023438 58.796875 369.824219 59.082031 370.660156 59.457031 L 369.550781 62.113281 C 368.808594 61.8125 368.140625 61.582031 367.546875 61.421875 C 366.953125 61.253906 366.351562 61.167969 365.746094 61.167969 C 365.316406 61.167969 364.953125 61.234375 364.652344 61.367188 C 364.347656 61.503906 364.117188 61.695312 363.960938 61.949219 C 363.800781 62.195312 363.722656 62.476562 363.722656 62.804688 C 363.722656 63.183594 363.839844 63.507812 364.070312 63.769531 C 364.296875 64.039062 364.640625 64.292969 365.089844 64.535156 C 365.535156 64.78125 366.101562 65.058594 366.785156 65.371094 C 367.605469 65.773438 368.3125 66.1875 368.894531 66.609375 C 369.488281 67.027344 369.941406 67.523438 370.261719 68.105469 C 370.574219 68.679688 370.734375 69.378906 370.734375 70.214844 Z M 370.734375 70.214844 " fill-opacity="1" fill-rule="nonzero"/><path fill="#000000" d="M 142.144531 106.085938 L 140.980469 102.246094 L 135.082031 102.246094 L 133.914062 106.085938 L 130.21875 106.085938 L 135.917969 89.84375 L 140.125 89.84375 L 145.84375 106.085938 Z M 140.160156 99.367188 L 138.996094 95.597656 C 138.921875 95.355469 138.824219 95.042969 138.703125 94.652344 C 138.582031 94.25 138.457031 93.847656 138.339844 93.433594 C 138.21875 93.023438 138.113281 92.664062 138.03125 92.355469 C 137.957031 92.664062 137.851562 93.039062 137.722656 93.488281 C 137.597656 93.9375 137.476562 94.359375 137.355469 94.761719 C 137.246094 95.152344 137.160156 95.429688 137.101562 95.597656 L 135.953125 99.367188 Z M 140.160156 99.367188 " fill-opacity="1" fill-rule="nonzero"/><path fill="#000000" d="M 157.425781 101.589844 C 157.425781 102.550781 157.191406 103.386719 156.71875 104.101562 C 156.253906 104.808594 155.578125 105.355469 154.695312 105.742188 C 153.808594 106.113281 152.734375 106.304688 151.472656 106.304688 C 150.898438 106.304688 150.347656 106.269531 149.816406 106.195312 C 149.277344 106.125 148.769531 106.015625 148.285156 105.867188 C 147.800781 105.722656 147.332031 105.550781 146.882812 105.339844 L 146.882812 102.152344 C 147.648438 102.496094 148.441406 102.804688 149.269531 103.082031 C 150.09375 103.351562 150.914062 103.484375 151.726562 103.484375 C 152.285156 103.484375 152.734375 103.410156 153.074219 103.265625 C 153.425781 103.109375 153.675781 102.898438 153.820312 102.644531 C 153.976562 102.390625 154.058594 102.09375 154.058594 101.753906 C 154.058594 101.351562 153.917969 101.015625 153.640625 100.734375 C 153.371094 100.441406 153.003906 100.167969 152.53125 99.914062 C 152.054688 99.660156 151.519531 99.394531 150.925781 99.113281 C 150.550781 98.929688 150.136719 98.710938 149.6875 98.457031 C 149.25 98.203125 148.832031 97.894531 148.433594 97.527344 C 148.03125 97.15625 147.703125 96.703125 147.449219 96.179688 C 147.195312 95.664062 147.066406 95.03125 147.066406 94.289062 C 147.066406 93.316406 147.285156 92.492188 147.722656 91.8125 C 148.167969 91.121094 148.804688 90.589844 149.632812 90.226562 C 150.457031 89.863281 151.429688 89.679688 152.546875 89.679688 C 153.386719 89.679688 154.1875 89.78125 154.953125 89.972656 C 155.714844 90.167969 156.515625 90.453125 157.355469 90.828125 L 156.242188 93.488281 C 155.503906 93.1875 154.832031 92.953125 154.242188 92.792969 C 153.644531 92.625 153.042969 92.539062 152.4375 92.539062 C 152.011719 92.539062 151.644531 92.609375 151.347656 92.738281 C 151.039062 92.875 150.808594 93.066406 150.652344 93.324219 C 150.496094 93.566406 150.417969 93.851562 150.417969 94.179688 C 150.417969 94.554688 150.53125 94.878906 150.761719 95.144531 C 150.992188 95.410156 151.332031 95.667969 151.78125 95.90625 C 152.230469 96.152344 152.792969 96.429688 153.476562 96.746094 C 154.300781 97.144531 155.003906 97.5625 155.589844 97.984375 C 156.179688 98.398438 156.636719 98.894531 156.953125 99.476562 C 157.269531 100.050781 157.425781 100.75 157.425781 101.589844 Z M 157.425781 101.589844 " fill-opacity="1" fill-rule="nonzero"/><path fill="#000000" d="M 169.902344 101.589844 C 169.902344 102.550781 169.667969 103.386719 169.191406 104.101562 C 168.730469 104.808594 168.054688 105.355469 167.171875 105.742188 C 166.285156 106.113281 165.210938 106.304688 163.949219 106.304688 C 163.375 106.304688 162.824219 106.269531 162.292969 106.195312 C 161.753906 106.125 161.246094 106.015625 160.761719 105.867188 C 160.277344 105.722656 159.808594 105.550781 159.359375 105.339844 L 159.359375 102.152344 C 160.125 102.496094 160.917969 102.804688 161.746094 103.082031 C 162.570312 103.351562 163.390625 103.484375 164.203125 103.484375 C 164.757812 103.484375 165.210938 103.410156 165.550781 103.265625 C 165.902344 103.109375 166.152344 102.898438 166.296875 102.644531 C 166.453125 102.390625 166.535156 102.09375 166.535156 101.753906 C 166.535156 101.351562 166.394531 101.015625 166.117188 100.734375 C 165.847656 100.441406 165.480469 100.167969 165.003906 99.914062 C 164.53125 99.660156 163.996094 99.394531 163.402344 99.113281 C 163.023438 98.929688 162.609375 98.710938 162.164062 98.457031 C 161.726562 98.203125 161.308594 97.894531 160.910156 97.527344 C 160.507812 97.15625 160.179688 96.703125 159.925781 96.179688 C 159.671875 95.664062 159.542969 95.03125 159.542969 94.289062 C 159.542969 93.316406 159.761719 92.492188 160.199219 91.8125 C 160.644531 91.121094 161.28125 90.589844 162.109375 90.226562 C 162.933594 89.863281 163.902344 89.679688 165.023438 89.679688 C 165.859375 89.679688 166.664062 89.78125 167.425781 89.972656 C 168.191406 90.167969 168.992188 90.453125 169.832031 90.828125 L 168.71875 93.488281 C 167.976562 93.1875 167.308594 92.953125 166.71875 92.792969 C 166.121094 92.625 165.519531 92.539062 164.914062 92.539062 C 164.488281 92.539062 164.121094 92.609375 163.820312 92.738281 C 163.515625 92.875 163.285156 93.066406 163.128906 93.324219 C 162.96875 93.566406 162.894531 93.851562 162.894531 94.179688 C 162.894531 94.554688 163.007812 94.878906 163.238281 95.144531 C 163.464844 95.410156 163.808594 95.667969 164.257812 95.90625 C 164.703125 96.152344 165.269531 96.429688 165.953125 96.746094 C 166.777344 97.144531 167.480469 97.5625 168.0625 97.984375 C 168.65625 98.398438 169.113281 98.894531 169.429688 99.476562 C 169.746094 100.050781 169.902344 100.75 169.902344 101.589844 Z M 169.902344 101.589844 " fill-opacity="1" fill-rule="nonzero"/><path fill="#000000" d="M 187.515625 97.984375 C 187.515625 99.222656 187.355469 100.359375 187.039062 101.390625 C 186.734375 102.410156 186.265625 103.292969 185.640625 104.027344 C 185.007812 104.757812 184.203125 105.320312 183.234375 105.722656 C 182.273438 106.109375 181.132812 106.304688 179.8125 106.304688 C 178.488281 106.304688 177.339844 106.109375 176.371094 105.722656 C 175.410156 105.320312 174.613281 104.757812 173.984375 104.027344 C 173.351562 103.292969 172.878906 102.410156 172.566406 101.390625 C 172.261719 100.359375 172.109375 99.21875 172.109375 97.964844 C 172.109375 96.289062 172.382812 94.832031 172.929688 93.59375 C 173.484375 92.347656 174.335938 91.382812 175.476562 90.699219 C 176.617188 90.007812 178.070312 89.664062 179.832031 89.664062 C 181.585938 89.664062 183.035156 90.007812 184.164062 90.699219 C 185.292969 91.382812 186.128906 92.347656 186.675781 93.59375 C 187.230469 94.832031 187.515625 96.300781 187.515625 97.984375 Z M 175.714844 97.984375 C 175.714844 99.113281 175.851562 100.085938 176.132812 100.898438 C 176.410156 101.710938 176.851562 102.335938 177.464844 102.773438 C 178.070312 103.210938 178.851562 103.429688 179.8125 103.429688 C 180.78125 103.429688 181.570312 103.210938 182.179688 102.773438 C 182.785156 102.335938 183.222656 101.710938 183.488281 100.898438 C 183.769531 100.085938 183.910156 99.113281 183.910156 97.984375 C 183.910156 96.285156 183.589844 94.953125 182.960938 93.976562 C 182.328125 93.007812 181.285156 92.519531 179.832031 92.519531 C 178.871094 92.519531 178.082031 92.738281 177.464844 93.175781 C 176.851562 93.613281 176.410156 94.242188 176.132812 95.050781 C 175.851562 95.867188 175.714844 96.847656 175.714844 97.984375 Z M 175.714844 97.984375 " fill-opacity="1" fill-rule="nonzero"/><path fill="#000000" d="M 197.730469 92.539062 C 197.074219 92.539062 196.492188 92.667969 195.984375 92.921875 C 195.480469 93.175781 195.058594 93.550781 194.707031 94.03125 C 194.367188 94.507812 194.105469 95.085938 193.925781 95.761719 C 193.753906 96.445312 193.671875 97.199219 193.671875 98.039062 C 193.671875 99.195312 193.808594 100.179688 194.089844 100.988281 C 194.378906 101.789062 194.820312 102.402344 195.417969 102.828125 C 196.011719 103.242188 196.785156 103.445312 197.730469 103.445312 C 198.386719 103.445312 199.042969 103.375 199.699219 103.226562 C 200.363281 103.082031 201.085938 102.878906 201.863281 102.609375 L 201.863281 105.484375 C 201.144531 105.777344 200.433594 105.988281 199.734375 106.105469 C 199.042969 106.238281 198.261719 106.304688 197.402344 106.304688 C 195.738281 106.304688 194.367188 105.96875 193.289062 105.285156 C 192.21875 104.59375 191.421875 103.628906 190.902344 102.390625 C 190.394531 101.144531 190.136719 99.6875 190.136719 98.019531 C 190.136719 96.796875 190.300781 95.679688 190.628906 94.671875 C 190.964844 93.648438 191.457031 92.773438 192.105469 92.03125 C 192.746094 91.277344 193.535156 90.699219 194.472656 90.300781 C 195.417969 89.890625 196.5 89.679688 197.730469 89.679688 C 198.53125 89.679688 199.332031 89.785156 200.132812 89.992188 C 200.945312 90.199219 201.722656 90.476562 202.464844 90.828125 L 201.355469 93.613281 C 200.746094 93.324219 200.140625 93.078125 199.535156 92.867188 C 198.921875 92.648438 198.324219 92.539062 197.730469 92.539062 Z M 197.730469 92.539062 " fill-opacity="1" fill-rule="nonzero"/><path fill="#000000" d="M 205.300781 89.917969 L 208.722656 89.917969 L 208.722656 106.085938 L 205.300781 106.085938 Z M 205.300781 89.917969 " fill-opacity="1" fill-rule="nonzero"/><path fill="#000000" d="M 222.6875 106.085938 L 221.519531 102.246094 L 215.621094 102.246094 L 214.457031 106.085938 L 210.757812 106.085938 L 216.457031 89.84375 L 220.664062 89.84375 L 226.382812 106.085938 Z M 220.699219 99.367188 L 219.535156 95.597656 C 219.460938 95.355469 219.363281 95.042969 219.246094 94.652344 C 219.121094 94.25 219 93.847656 218.878906 93.433594 C 218.757812 93.023438 218.652344 92.664062 218.570312 92.355469 C 218.496094 92.664062 218.394531 93.039062 218.261719 93.488281 C 218.136719 93.9375 218.015625 94.359375 217.898438 94.761719 C 217.789062 95.152344 217.703125 95.429688 217.640625 95.597656 L 216.496094 99.367188 Z M 220.699219 99.367188 " fill-opacity="1" fill-rule="nonzero"/><path fill="#000000" d="M 234.652344 106.085938 L 231.230469 106.085938 L 231.230469 92.777344 L 226.84375 92.777344 L 226.84375 89.917969 L 239.042969 89.917969 L 239.042969 92.777344 L 234.652344 92.777344 Z M 234.652344 106.085938 " fill-opacity="1" fill-rule="nonzero"/><path fill="#000000" d="M 241.542969 89.917969 L 244.96875 89.917969 L 244.96875 106.085938 L 241.542969 106.085938 Z M 241.542969 89.917969 " fill-opacity="1" fill-rule="nonzero"/><path fill="#000000" d="M 263.71875 97.984375 C 263.71875 99.222656 263.558594 100.359375 263.246094 101.390625 C 262.941406 102.410156 262.472656 103.292969 261.84375 104.027344 C 261.210938 104.757812 260.410156 105.320312 259.441406 105.722656 C 258.480469 106.109375 257.335938 106.304688 256.015625 106.304688 C 254.691406 106.304688 253.542969 106.109375 252.574219 105.722656 C 251.613281 105.320312 250.816406 104.757812 250.191406 104.027344 C 249.558594 103.292969 249.082031 102.410156 248.769531 101.390625 C 248.464844 100.359375 248.3125 99.21875 248.3125 97.964844 C 248.3125 96.289062 248.585938 94.832031 249.132812 93.59375 C 249.6875 92.347656 250.539062 91.382812 251.683594 90.699219 C 252.820312 90.007812 254.273438 89.664062 256.035156 89.664062 C 257.792969 89.664062 259.238281 90.007812 260.367188 90.699219 C 261.496094 91.382812 262.335938 92.347656 262.882812 93.59375 C 263.4375 94.832031 263.71875 96.300781 263.71875 97.984375 Z M 251.917969 97.984375 C 251.917969 99.113281 252.054688 100.085938 252.339844 100.898438 C 252.617188 101.710938 253.058594 102.335938 253.667969 102.773438 C 254.273438 103.210938 255.054688 103.429688 256.015625 103.429688 C 256.988281 103.429688 257.773438 103.210938 258.382812 102.773438 C 258.988281 102.335938 259.425781 101.710938 259.695312 100.898438 C 259.972656 100.085938 260.113281 99.113281 260.113281 97.984375 C 260.113281 96.285156 259.796875 94.953125 259.167969 93.976562 C 258.535156 93.007812 257.492188 92.519531 256.035156 92.519531 C 255.074219 92.519531 254.285156 92.738281 253.667969 93.175781 C 253.058594 93.613281 252.617188 94.242188 252.339844 95.050781 C 252.054688 95.867188 251.917969 96.847656 251.917969 97.984375 Z M 251.917969 97.984375 " fill-opacity="1" fill-rule="nonzero"/><path fill="#000000" d="M 281.417969 106.085938 L 277.050781 106.085938 L 270.019531 93.851562 L 269.910156 93.851562 C 269.949219 94.359375 269.976562 94.878906 270.003906 95.398438 C 270.023438 95.90625 270.042969 96.425781 270.058594 96.945312 C 270.078125 97.457031 270.101562 97.964844 270.128906 98.476562 L 270.128906 106.085938 L 267.070312 106.085938 L 267.070312 89.917969 L 271.386719 89.917969 L 278.414062 102.027344 L 278.488281 102.027344 C 278.472656 101.53125 278.457031 101.035156 278.433594 100.53125 C 278.40625 100.035156 278.382812 99.546875 278.359375 99.058594 C 278.347656 98.5625 278.332031 98.066406 278.324219 97.566406 L 278.324219 89.917969 L 281.417969 89.917969 Z M 281.417969 106.085938 " fill-opacity="1" fill-rule="nonzero"/><g clip-path="url(#186bb3ea1c)"><g clip-path="url(#0f74284c7e)"><path fill="#f98b8b" d="M 21.300781 4.308594 L 96.226562 4.308594 L 96.226562 79.234375 L 21.300781 79.234375 Z M 21.300781 4.308594 " fill-opacity="1" fill-rule="nonzero"/></g></g><g clip-path="url(#0c90dcdf42)"><g clip-path="url(#1d3859b531)"><path stroke-linecap="butt" transform="matrix(0.874026, 0, 0, 0.874026, 21.299077, 4.307756)" fill="none" stroke-linejoin="miter" d="M 42.862175 0.000958755 C 19.188493 0.000958755 0.00194962 19.191969 0.00194962 42.861179 C 0.00194962 66.530389 19.188493 85.721398 42.862175 85.721398 C 66.526919 85.721398 85.722401 66.530389 85.722401 42.861179 C 85.722401 19.191969 66.526919 0.000958755 42.862175 0.000958755 Z M 42.862175 0.000958755 " stroke="#000000" stroke-width="6" stroke-opacity="1" stroke-miterlimit="4"/></g></g><g clip-path="url(#a6161a4cb9)"><g clip-path="url(#3fd1065ad9)"><path fill="#adfff0" d="M -0.714844 21.414062 L 102.621094 21.414062 L 102.621094 111.695312 L -0.714844 111.695312 Z M -0.714844 21.414062 " fill-opacity="1" fill-rule="nonzero"/></g></g><g clip-path="url(#533fdd1cb2)"><g clip-path="url(#79f1d28be3)"><path stroke-linecap="butt" transform="matrix(0.874026, 0, 0, 0.874026, -0.713451, 21.41389)" fill="none" stroke-linejoin="miter" d="M 65.969188 12.156589 L 111.099799 91.137382 C 112.534432 93.649107 112.525494 96.737367 111.072983 99.244623 C 109.620473 101.74741 106.943385 103.289305 104.047303 103.289305 L 14.000606 103.289305 C 11.104524 103.289305 8.427436 101.74741 6.974925 99.244623 C 5.522415 96.737367 5.509007 93.649107 6.94811 91.137382 L 52.078721 12.156589 C 53.499946 9.658272 56.150219 8.125315 59.019485 8.125315 C 61.89769 8.125315 64.547963 9.658272 65.969188 12.156589 Z M 65.969188 12.156589 " stroke="#000000" stroke-width="6" stroke-opacity="1" stroke-miterlimit="4"/></g></g><g clip-path="url(#9fc86dd67e)"><g clip-path="url(#b6310303a1)"><path fill="#ffffff" d="M 58.761719 12.355469 L 69.753906 12.355469 L 69.753906 23.347656 L 58.761719 23.347656 Z M 58.761719 12.355469 " fill-opacity="1" fill-rule="nonzero"/></g></g><g clip-path="url(#b96ac2ce57)"><g clip-path="url(#6293cad0db)"><path stroke-linecap="butt" transform="matrix(0.874026, 0, 0, 0.874026, 58.76178, 12.354682)" fill="none" stroke-linejoin="miter" d="M 6.279244 0.000900105 L 8.281473 4.277984 L 12.563026 6.280213 L 8.281473 8.277973 L 6.279244 12.559526 L 4.281483 8.277973 L -0.0000700255 6.280213 L 4.281483 4.277984 Z M 6.279244 0.000900105 " stroke="#000000" stroke-width="6" stroke-opacity="1" stroke-miterlimit="4"/></g></g><g clip-path="url(#c8575b19b2)"><g clip-path="url(#6d27015923)"><path fill="#adb3ff" d="M 8.296875 30.019531 L 111.628906 30.019531 L 111.628906 120.304688 L 8.296875 120.304688 Z M 8.296875 30.019531 " fill-opacity="1" fill-rule="nonzero"/></g></g><g clip-path="url(#dffd832e77)"><g clip-path="url(#3e88bc32b2)"><path stroke-linecap="butt" transform="matrix(0.874026, 0, 0, 0.874026, 8.295308, 30.022888)" fill="none" stroke-linejoin="miter" d="M 65.968105 12.152551 L 111.098716 91.137813 C 112.537819 93.649538 112.524411 96.742268 111.0719 99.240585 C 109.61939 101.747841 106.942302 103.289736 104.04622 103.289736 L 13.999523 103.289736 C 11.103441 103.289736 8.426353 101.747841 6.973842 99.240585 C 5.521332 96.742268 5.512394 93.649538 6.947027 91.137813 L 52.077638 12.152551 C 53.498863 9.663172 56.149136 8.121277 59.022871 8.121277 C 61.896607 8.121277 64.54688 9.663172 65.968105 12.152551 Z M 65.968105 12.152551 " stroke="#000000" stroke-width="6" stroke-opacity="1" stroke-miterlimit="4"/></g></g><g clip-path="url(#3d365c2c68)"><g clip-path="url(#36086f75c3)"><path fill="#ffadd7" d="M 17.285156 39.148438 L 120.621094 39.148438 L 120.621094 129.433594 L 17.285156 129.433594 Z M 17.285156 39.148438 " fill-opacity="1" fill-rule="nonzero"/></g></g><g clip-path="url(#59e88fe5c0)"><g clip-path="url(#56e36cd76c)"><path stroke-linecap="butt" transform="matrix(0.874026, 0, 0, 0.874026, 17.286927, 39.150961)" fill="none" stroke-linejoin="miter" d="M 65.968755 12.153505 L 111.103835 91.138767 C 112.538469 93.654961 112.52953 96.743221 111.072551 99.246008 C 109.62004 101.753264 106.942952 103.295159 104.04687 103.295159 L 14.000173 103.295159 C 11.104091 103.295159 8.427003 101.753264 6.974493 99.246008 C 5.521982 96.743221 5.508575 93.654961 6.947677 91.138767 L 52.078288 12.153505 C 53.503983 9.664126 56.154255 8.122231 59.023522 8.122231 C 61.892788 8.122231 64.54753 9.664126 65.968755 12.153505 Z M 65.968755 12.153505 " stroke="#000000" stroke-width="6" stroke-opacity="1" stroke-miterlimit="4"/></g></g></svg>