<svg xmlns="http://www.w3.org/2000/svg" xmlns:xlink="http://www.w3.org/1999/xlink" width="500" zoomAndPan="magnify" viewBox="0 0 375 374.999991" height="500" preserveAspectRatio="xMidYMid meet" version="1.0"><defs><clipPath id="8348860f6a"><path d="M 75.886719 5.960938 L 292.171875 5.960938 L 292.171875 222.242188 L 75.886719 222.242188 Z M 75.886719 5.960938 " clip-rule="nonzero"/></clipPath><clipPath id="6b44c79d20"><path d="M 184.023438 5.960938 C 124.296875 5.960938 75.886719 54.371094 75.886719 114.09375 C 75.886719 173.816406 124.296875 222.242188 184.023438 222.242188 C 243.746094 222.242188 292.171875 173.816406 292.171875 114.09375 C 292.171875 54.371094 243.746094 5.960938 184.023438 5.960938 Z M 184.023438 5.960938 " clip-rule="nonzero"/></clipPath><clipPath id="4ff92a25be"><path d="M 75.886719 5.960938 L 292.15625 5.960938 L 292.15625 222.226562 L 75.886719 222.226562 Z M 75.886719 5.960938 " clip-rule="nonzero"/></clipPath><clipPath id="3125a1ed46"><path d="M 184.023438 5.960938 C 124.296875 5.960938 75.886719 54.371094 75.886719 114.09375 C 75.886719 173.804688 124.296875 222.226562 184.023438 222.226562 C 243.734375 222.226562 292.15625 173.804688 292.15625 114.09375 C 292.15625 54.371094 243.734375 5.960938 184.023438 5.960938 Z M 184.023438 5.960938 " clip-rule="nonzero"/></clipPath><clipPath id="9935c3bac6"><path d="M 27 75.683594 L 296 75.683594 L 296 315.945312 L 27 315.945312 Z M 27 75.683594 " clip-rule="nonzero"/></clipPath><clipPath id="02324b8fc1"><path d="M 178.792969 86 L 292.667969 285.277344 C 296.296875 291.625 296.269531 299.414062 292.605469 305.738281 C 288.9375 312.058594 282.183594 315.945312 274.875 315.945312 L 47.664062 315.945312 C 40.355469 315.945312 33.601562 312.058594 29.9375 305.738281 C 26.269531 299.414062 26.242188 291.625 29.871094 285.277344 L 143.746094 86 C 147.332031 79.703125 154.023438 75.828125 161.261719 75.828125 C 168.515625 75.828125 175.191406 79.703125 178.792969 86 Z M 178.792969 86 " clip-rule="nonzero"/></clipPath><clipPath id="ae80bdf58b"><path d="M 27 75 L 296 75 L 296 315.199219 L 27 315.199219 Z M 27 75 " clip-rule="nonzero"/></clipPath><clipPath id="2f77f5c797"><path d="M 178.78125 86 L 292.644531 285.277344 C 296.269531 291.609375 296.242188 299.402344 292.578125 305.722656 C 288.910156 312.042969 282.15625 315.933594 274.851562 315.933594 L 47.664062 315.933594 C 40.355469 315.933594 33.601562 312.042969 29.9375 305.722656 C 26.269531 299.402344 26.242188 291.609375 29.871094 285.277344 L 143.734375 86 C 147.320312 79.703125 154.007812 75.828125 161.25 75.828125 C 168.503906 75.828125 175.191406 79.703125 178.78125 86 Z M 178.78125 86 " clip-rule="nonzero"/></clipPath><clipPath id="a5b917954a"><path d="M 184.023438 29.179688 L 215.757812 29.179688 L 215.757812 60.914062 L 184.023438 60.914062 Z M 184.023438 29.179688 " clip-rule="nonzero"/></clipPath><clipPath id="d4b538440c"><path d="M 199.882812 29.179688 L 204.929688 39.992188 L 215.757812 45.039062 L 204.929688 50.097656 L 199.882812 60.914062 L 194.835938 50.097656 L 184.023438 45.039062 L 194.835938 39.992188 Z M 199.882812 29.179688 " clip-rule="nonzero"/></clipPath><clipPath id="f04f23d5ba"><path d="M 184.023438 29.179688 L 215.71875 29.179688 L 215.71875 60.875 L 184.023438 60.875 Z M 184.023438 29.179688 " clip-rule="nonzero"/></clipPath><clipPath id="e4e733db30"><path d="M 199.871094 29.179688 L 204.917969 39.980469 L 215.71875 45.027344 L 204.917969 50.074219 L 199.871094 60.875 L 194.824219 50.074219 L 184.023438 45.027344 L 194.824219 39.980469 Z M 199.871094 29.179688 " clip-rule="nonzero"/></clipPath><clipPath id="c2dfb289f8"><path d="M 53 100.53125 L 322 100.53125 L 322 340.796875 L 53 340.796875 Z M 53 100.53125 " clip-rule="nonzero"/></clipPath><clipPath id="de88bab0f2"><path d="M 204.796875 110.847656 L 318.675781 310.125 C 322.300781 316.472656 322.273438 324.265625 318.609375 330.585938 C 314.941406 336.90625 308.1875 340.796875 300.882812 340.796875 L 73.667969 340.796875 C 66.363281 340.796875 59.605469 336.90625 55.941406 330.585938 C 52.273438 324.265625 52.25 316.472656 55.875 310.125 L 169.75 110.847656 C 173.339844 104.554688 180.027344 100.675781 187.269531 100.675781 C 194.523438 100.675781 201.199219 104.554688 204.796875 110.847656 Z M 204.796875 110.847656 " clip-rule="nonzero"/></clipPath><clipPath id="2dfee2d0d7"><path d="M 53 100 L 322 100 L 322 340.046875 L 53 340.046875 Z M 53 100 " clip-rule="nonzero"/></clipPath><clipPath id="a563c45d57"><path d="M 204.785156 110.847656 L 318.648438 310.125 C 322.273438 316.460938 322.25 324.265625 318.582031 330.570312 C 314.917969 336.894531 308.160156 340.78125 300.855469 340.78125 L 73.667969 340.78125 C 66.363281 340.78125 59.605469 336.894531 55.941406 330.570312 C 52.273438 324.265625 52.25 316.460938 55.875 310.125 L 169.738281 110.847656 C 173.324219 104.566406 180.015625 100.675781 187.253906 100.675781 C 194.507812 100.675781 201.199219 104.566406 204.785156 110.847656 Z M 204.785156 110.847656 " clip-rule="nonzero"/></clipPath><clipPath id="9098d76c33"><path d="M 79 127 L 348 127 L 348 367.140625 L 79 367.140625 Z M 79 127 " clip-rule="nonzero"/></clipPath><clipPath id="4b36df0ab7"><path d="M 230.75 137.195312 L 344.628906 336.484375 C 348.253906 342.820312 348.226562 350.625 344.5625 356.945312 C 340.894531 363.253906 334.140625 367.140625 326.835938 367.140625 L 99.621094 367.140625 C 92.3125 367.140625 85.558594 363.253906 81.894531 356.945312 C 78.226562 350.625 78.199219 342.820312 81.828125 336.484375 L 195.703125 137.195312 C 199.292969 130.898438 205.980469 127.023438 213.234375 127.023438 C 220.476562 127.023438 227.164062 130.898438 230.75 137.195312 Z M 230.75 137.195312 " clip-rule="nonzero"/></clipPath><clipPath id="895b3f8530"><path d="M 79 127 L 348 127 L 348 366.394531 L 79 366.394531 Z M 79 127 " clip-rule="nonzero"/></clipPath><clipPath id="244e48f8b7"><path d="M 230.738281 137.195312 L 344.613281 336.472656 C 348.242188 342.820312 348.214844 350.613281 344.535156 356.933594 C 340.867188 363.253906 334.113281 367.140625 326.808594 367.140625 L 99.621094 367.140625 C 92.3125 367.140625 85.558594 363.253906 81.894531 356.933594 C 78.226562 350.613281 78.199219 342.820312 81.828125 336.472656 L 195.691406 137.195312 C 199.292969 130.914062 205.980469 127.023438 213.222656 127.023438 C 220.460938 127.023438 227.148438 130.914062 230.738281 137.195312 Z M 230.738281 137.195312 " clip-rule="nonzero"/></clipPath></defs><g clip-path="url(#8348860f6a)"><g clip-path="url(#6b44c79d20)"><path fill="#f98b8b" d="M 75.886719 5.960938 L 292.171875 5.960938 L 292.171875 222.242188 L 75.886719 222.242188 Z M 75.886719 5.960938 " fill-opacity="1" fill-rule="nonzero"/></g></g><g clip-path="url(#4ff92a25be)"><g clip-path="url(#3125a1ed46)"><path stroke-linecap="butt" transform="matrix(2.523, 0, 0, 2.522999, 75.882686, 5.953242)" fill="none" stroke-linejoin="miter" d="M 42.861978 0.0030502 C 19.189139 0.0030502 0.00159843 19.190592 0.00159843 42.861885 C 0.00159843 66.528534 19.189139 85.720721 42.861978 85.720721 C 66.528624 85.720721 85.720809 66.528534 85.720809 42.861885 C 85.720809 19.190592 66.528624 0.0030502 42.861978 0.0030502 Z M 42.861978 0.0030502 " stroke="#000000" stroke-width="6" stroke-opacity="1" stroke-miterlimit="4"/></g></g><g clip-path="url(#9935c3bac6)"><g clip-path="url(#02324b8fc1)"><path fill="#adfff0" d="M 12.339844 55.328125 L 310.632812 55.328125 L 310.632812 315.945312 L 12.339844 315.945312 Z M 12.339844 55.328125 " fill-opacity="1" fill-rule="nonzero"/></g></g><g clip-path="url(#ae80bdf58b)"><g clip-path="url(#2f77f5c797)"><path stroke-linecap="butt" transform="matrix(2.523, 0, 0, 2.522999, 12.340375, 55.332536)" fill="none" stroke-linejoin="miter" d="M 65.969443 12.155161 L 111.099566 91.139464 C 112.536348 93.649188 112.52551 96.73796 111.073245 99.243039 C 109.619433 101.748118 106.942497 103.290181 104.047258 103.290181 L 14.000671 103.290181 C 11.103884 103.290181 8.426949 101.748118 6.974684 99.243039 C 5.520872 96.73796 5.510034 93.649188 6.948364 91.139464 L 52.078487 12.155161 C 53.499786 9.659372 56.150401 8.123501 59.020868 8.123501 C 61.89598 8.123501 64.546595 9.659372 65.969443 12.155161 Z M 65.969443 12.155161 " stroke="#000000" stroke-width="6" stroke-opacity="1" stroke-miterlimit="4"/></g></g><g clip-path="url(#a5b917954a)"><g clip-path="url(#d4b538440c)"><path fill="#ffffff" d="M 184.023438 29.179688 L 215.757812 29.179688 L 215.757812 60.914062 L 184.023438 60.914062 Z M 184.023438 29.179688 " fill-opacity="1" fill-rule="nonzero"/></g></g><g clip-path="url(#f04f23d5ba)"><g clip-path="url(#e4e733db30)"><path stroke-linecap="butt" transform="matrix(2.523, 0, 0, 2.522999, 184.024123, 29.181883)" fill="none" stroke-linejoin="miter" d="M 6.281004 -0.00087018 L 8.281351 4.280059 L 12.56228 6.280406 L 8.281351 8.280754 L 6.281004 12.561683 L 4.280657 8.280754 L -0.000271627 6.280406 L 4.280657 4.280059 Z M 6.281004 -0.00087018 " stroke="#000000" stroke-width="6" stroke-opacity="1" stroke-miterlimit="4"/></g></g><g clip-path="url(#c2dfb289f8)"><g clip-path="url(#de88bab0f2)"><path fill="#adb3ff" d="M 38.34375 80.175781 L 336.636719 80.175781 L 336.636719 340.796875 L 38.34375 340.796875 Z M 38.34375 80.175781 " fill-opacity="1" fill-rule="nonzero"/></g></g><g clip-path="url(#2dfee2d0d7)"><g clip-path="url(#a563c45d57)"><path stroke-linecap="butt" transform="matrix(2.523, 0, 0, 2.522999, 38.345451, 80.183666)" fill="none" stroke-linejoin="miter" d="M 65.968979 12.153785 L 111.099102 91.138088 C 112.535884 93.64936 112.526594 96.742776 111.072782 99.241662 C 109.620517 101.748289 106.942034 103.288804 104.046794 103.288804 L 14.000208 103.288804 C 11.104968 103.288804 8.426485 101.748289 6.97422 99.241662 C 5.520408 96.742776 5.511118 93.64936 6.9479 91.138088 L 52.078023 12.153785 C 53.499322 9.664188 56.151486 8.122125 59.020404 8.122125 C 61.895516 8.122125 64.547679 9.664188 65.968979 12.153785 Z M 65.968979 12.153785 " stroke="#000000" stroke-width="6" stroke-opacity="1" stroke-miterlimit="4"/></g></g><g clip-path="url(#9098d76c33)"><g clip-path="url(#4b36df0ab7)"><path fill="#ffadd7" d="M 64.296875 106.523438 L 362.589844 106.523438 L 362.589844 367.140625 L 64.296875 367.140625 Z M 64.296875 106.523438 " fill-opacity="1" fill-rule="nonzero"/></g></g><g clip-path="url(#895b3f8530)"><g clip-path="url(#244e48f8b7)"><path stroke-linecap="butt" transform="matrix(2.523, 0, 0, 2.522999, 64.301045, 106.533099)" fill="none" stroke-linejoin="miter" d="M 65.968 12.15308 L 111.102768 91.137384 C 112.541098 93.6533 112.53026 96.742072 111.071803 99.247151 C 109.61799 101.75223 106.941055 103.292745 104.045816 103.292745 L 13.999229 103.292745 C 11.102441 103.292745 8.425506 101.75223 6.973242 99.247151 C 5.519429 96.742072 5.508591 93.6533 6.946921 91.137384 L 52.077045 12.15308 C 53.504537 9.663484 56.155152 8.121421 59.025619 8.121421 C 61.894538 8.121421 64.545153 9.663484 65.968 12.15308 Z M 65.968 12.15308 " stroke="#000000" stroke-width="6" stroke-opacity="1" stroke-miterlimit="4"/></g></g></svg>