<svg xmlns="http://www.w3.org/2000/svg" xmlns:xlink="http://www.w3.org/1999/xlink" width="500" zoomAndPan="magnify" viewBox="0 0 375 374.999991" height="500" preserveAspectRatio="xMidYMid meet" version="1.0"><defs><g/><clipPath id="73161f0d89"><path d="M 56.390625 133.816406 L 120.683594 133.816406 L 120.683594 198.109375 L 56.390625 198.109375 Z M 56.390625 133.816406 " clip-rule="nonzero"/></clipPath><clipPath id="f050a032a8"><path d="M 88.535156 133.816406 C 70.78125 133.816406 56.390625 148.207031 56.390625 165.960938 C 56.390625 183.714844 70.78125 198.109375 88.535156 198.109375 C 106.289062 198.109375 120.683594 183.714844 120.683594 165.960938 C 120.683594 148.207031 106.289062 133.816406 88.535156 133.816406 Z M 88.535156 133.816406 " clip-rule="nonzero"/></clipPath><clipPath id="86f5868e99"><path d="M 56.390625 133.816406 L 120.679688 133.816406 L 120.679688 198.105469 L 56.390625 198.105469 Z M 56.390625 133.816406 " clip-rule="nonzero"/></clipPath><clipPath id="e092f83e3e"><path d="M 88.535156 133.816406 C 70.78125 133.816406 56.390625 148.207031 56.390625 165.960938 C 56.390625 183.710938 70.78125 198.105469 88.535156 198.105469 C 106.285156 198.105469 120.679688 183.710938 120.679688 165.960938 C 120.679688 148.207031 106.285156 133.816406 88.535156 133.816406 Z M 88.535156 133.816406 " clip-rule="nonzero"/></clipPath><clipPath id="7590fe1b66"><path d="M 41.738281 154.542969 L 121.933594 154.542969 L 121.933594 225.964844 L 41.738281 225.964844 Z M 41.738281 154.542969 " clip-rule="nonzero"/></clipPath><clipPath id="370f56fd1b"><path d="M 86.980469 157.609375 L 120.832031 216.847656 C 121.910156 218.734375 121.902344 221.050781 120.8125 222.929688 C 119.722656 224.808594 117.714844 225.964844 115.542969 225.964844 L 48 225.964844 C 45.828125 225.964844 43.820312 224.808594 42.730469 222.929688 C 41.640625 221.050781 41.632812 218.734375 42.710938 216.847656 L 76.5625 157.609375 C 77.628906 155.738281 79.617188 154.585938 81.769531 154.585938 C 83.925781 154.585938 85.910156 155.738281 86.980469 157.609375 Z M 86.980469 157.609375 " clip-rule="nonzero"/></clipPath><clipPath id="702af511eb"><path d="M 41.648438 154.027344 L 121.886719 154.027344 L 121.886719 225.742188 L 41.648438 225.742188 Z M 41.648438 154.027344 " clip-rule="nonzero"/></clipPath><clipPath id="b2e704526a"><path d="M 86.976562 157.609375 L 120.824219 216.847656 C 121.902344 218.730469 121.894531 221.046875 120.804688 222.925781 C 119.714844 224.804688 117.707031 225.960938 115.535156 225.960938 L 48 225.960938 C 45.828125 225.960938 43.820312 224.804688 42.730469 222.925781 C 41.640625 221.046875 41.632812 218.730469 42.710938 216.847656 L 76.558594 157.609375 C 77.625 155.738281 79.613281 154.585938 81.765625 154.585938 C 83.921875 154.585938 85.910156 155.738281 86.976562 157.609375 Z M 86.976562 157.609375 " clip-rule="nonzero"/></clipPath><clipPath id="b94c3cb920"><path d="M 88.535156 140.71875 L 97.96875 140.71875 L 97.96875 150.152344 L 88.535156 150.152344 Z M 88.535156 140.71875 " clip-rule="nonzero"/></clipPath><clipPath id="38f4701886"><path d="M 93.25 140.71875 L 94.75 143.933594 L 97.96875 145.433594 L 94.75 146.9375 L 93.25 150.152344 L 91.75 146.9375 L 88.535156 145.433594 L 91.75 143.933594 Z M 93.25 140.71875 " clip-rule="nonzero"/></clipPath><clipPath id="bbe075d11a"><path d="M 88.535156 140.71875 L 97.957031 140.71875 L 97.957031 150.140625 L 88.535156 150.140625 Z M 88.535156 140.71875 " clip-rule="nonzero"/></clipPath><clipPath id="b0e8b65f4c"><path d="M 93.246094 140.71875 L 94.746094 143.929688 L 97.957031 145.429688 L 94.746094 146.929688 L 93.246094 150.140625 L 91.746094 146.929688 L 88.535156 145.429688 L 91.746094 143.929688 Z M 93.246094 140.71875 " clip-rule="nonzero"/></clipPath><clipPath id="c7c665b80c"><path d="M 49.46875 161.929688 L 129.664062 161.929688 L 129.664062 233.351562 L 49.46875 233.351562 Z M 49.46875 161.929688 " clip-rule="nonzero"/></clipPath><clipPath id="0abbebda7d"><path d="M 94.710938 164.996094 L 128.5625 224.234375 C 129.640625 226.121094 129.632812 228.4375 128.542969 230.316406 C 127.453125 232.195312 125.445312 233.351562 123.273438 233.351562 L 55.730469 233.351562 C 53.558594 233.351562 51.550781 232.195312 50.460938 230.316406 C 49.371094 228.4375 49.363281 226.121094 50.441406 224.234375 L 84.292969 164.996094 C 85.359375 163.125 87.347656 161.972656 89.5 161.972656 C 91.65625 161.972656 93.640625 163.125 94.710938 164.996094 Z M 94.710938 164.996094 " clip-rule="nonzero"/></clipPath><clipPath id="3cac796b85"><path d="M 49.378906 161.414062 L 129.617188 161.414062 L 129.617188 233.128906 L 49.378906 233.128906 Z M 49.378906 161.414062 " clip-rule="nonzero"/></clipPath><clipPath id="59ac6d44a3"><path d="M 94.707031 164.996094 L 128.554688 224.234375 C 129.632812 226.117188 129.625 228.4375 128.535156 230.3125 C 127.445312 232.191406 125.4375 233.347656 123.265625 233.347656 L 55.730469 233.347656 C 53.558594 233.347656 51.550781 232.191406 50.460938 230.3125 C 49.371094 228.4375 49.363281 226.117188 50.441406 224.234375 L 84.289062 164.996094 C 85.355469 163.128906 87.34375 161.972656 89.496094 161.972656 C 91.652344 161.972656 93.640625 163.128906 94.707031 164.996094 Z M 94.707031 164.996094 " clip-rule="nonzero"/></clipPath><clipPath id="8947d90cf7"><path d="M 57.183594 169.765625 L 137.378906 169.765625 L 137.378906 241.183594 L 57.183594 241.183594 Z M 57.183594 169.765625 " clip-rule="nonzero"/></clipPath><clipPath id="badb008074"><path d="M 102.425781 172.828125 L 136.277344 232.070312 C 137.355469 233.953125 137.347656 236.273438 136.257812 238.152344 C 135.167969 240.027344 133.160156 241.183594 130.988281 241.183594 L 63.445312 241.183594 C 61.273438 241.183594 59.265625 240.027344 58.175781 238.152344 C 57.085938 236.273438 57.078125 233.953125 58.15625 232.070312 L 92.007812 172.828125 C 93.074219 170.957031 95.0625 169.804688 97.21875 169.804688 C 99.371094 169.804688 101.359375 170.957031 102.425781 172.828125 Z M 102.425781 172.828125 " clip-rule="nonzero"/></clipPath><clipPath id="b848465356"><path d="M 57.097656 169.246094 L 137.332031 169.246094 L 137.332031 240.960938 L 57.097656 240.960938 Z M 57.097656 169.246094 " clip-rule="nonzero"/></clipPath><clipPath id="b9d038168a"><path d="M 102.421875 172.828125 L 136.273438 232.066406 C 137.351562 233.953125 137.34375 236.269531 136.25 238.148438 C 135.160156 240.027344 133.152344 241.183594 130.980469 241.183594 L 63.445312 241.183594 C 61.273438 241.183594 59.265625 240.027344 58.175781 238.148438 C 57.085938 236.269531 57.078125 233.953125 58.15625 232.066406 L 92.003906 172.828125 C 93.074219 170.960938 95.0625 169.804688 97.214844 169.804688 C 99.367188 169.804688 101.355469 170.960938 102.421875 172.828125 Z M 102.421875 172.828125 " clip-rule="nonzero"/></clipPath></defs><g fill="#000000" fill-opacity="1"><g transform="translate(149.852661, 167.309314)"><g><path d="M 12.90625 0 L 9.5625 0 L 5.9375 -5.84375 L 4.6875 -4.953125 L 4.6875 0 L 1.75 0 L 1.75 -13.875 L 4.6875 -13.875 L 4.6875 -7.53125 C 4.882812 -7.800781 5.078125 -8.070312 5.265625 -8.34375 C 5.453125 -8.613281 5.644531 -8.882812 5.84375 -9.15625 L 9.609375 -13.875 L 12.875 -13.875 L 8.03125 -7.734375 Z M 12.90625 0 "/></g></g></g><g fill="#000000" fill-opacity="1"><g transform="translate(162.760062, 167.309314)"><g><path d="M 1.75 0 L 1.75 -13.875 L 4.6875 -13.875 L 4.6875 0 Z M 1.75 0 "/></g></g></g><g fill="#000000" fill-opacity="1"><g transform="translate(169.194781, 167.309314)"><g><path d="M 1.75 0 L 1.75 -13.875 L 4.6875 -13.875 L 4.6875 -2.4375 L 10.3125 -2.4375 L 10.3125 0 Z M 1.75 0 "/></g></g></g><g fill="#000000" fill-opacity="1"><g transform="translate(180.175572, 167.309314)"><g><path d="M 10.234375 0 L 9.234375 -3.296875 L 4.171875 -3.296875 L 3.171875 0 L 0 0 L 4.890625 -13.9375 L 8.5 -13.9375 L 13.40625 0 Z M 8.53125 -5.765625 L 7.53125 -9 C 7.46875 -9.207031 7.382812 -9.476562 7.28125 -9.8125 C 7.175781 -10.15625 7.070312 -10.503906 6.96875 -10.859375 C 6.863281 -11.210938 6.773438 -11.519531 6.703125 -11.78125 C 6.640625 -11.519531 6.550781 -11.195312 6.4375 -10.8125 C 6.332031 -10.425781 6.226562 -10.0625 6.125 -9.71875 C 6.03125 -9.382812 5.957031 -9.144531 5.90625 -9 L 4.921875 -5.765625 Z M 8.53125 -5.765625 "/></g></g></g><g fill="#000000" fill-opacity="1"><g transform="translate(193.58599, 167.309314)"><g><path d="M 12.625 -13.875 L 7.921875 0 L 4.703125 0 L 0 -13.875 L 2.96875 -13.875 L 5.578125 -5.625 C 5.617188 -5.476562 5.691406 -5.210938 5.796875 -4.828125 C 5.898438 -4.453125 6.003906 -4.050781 6.109375 -3.625 C 6.210938 -3.195312 6.285156 -2.84375 6.328125 -2.5625 C 6.359375 -2.84375 6.421875 -3.191406 6.515625 -3.609375 C 6.617188 -4.035156 6.71875 -4.441406 6.8125 -4.828125 C 6.914062 -5.210938 6.988281 -5.476562 7.03125 -5.625 L 9.65625 -13.875 Z M 12.625 -13.875 "/></g></g></g><g fill="#000000" fill-opacity="1"><g transform="translate(206.218169, 167.309314)"><g/></g></g><g fill="#000000" fill-opacity="1"><g transform="translate(211.26724, 167.309314)"><g><path d="M 7.015625 -7.796875 L 12.515625 -7.796875 L 12.515625 -0.59375 C 11.785156 -0.351562 11.03125 -0.160156 10.25 -0.015625 C 9.46875 0.117188 8.578125 0.1875 7.578125 0.1875 C 6.203125 0.1875 5.03125 -0.0820312 4.0625 -0.625 C 3.101562 -1.164062 2.375 -1.96875 1.875 -3.03125 C 1.375 -4.09375 1.125 -5.398438 1.125 -6.953125 C 1.125 -8.410156 1.40625 -9.671875 1.96875 -10.734375 C 2.53125 -11.796875 3.347656 -12.617188 4.421875 -13.203125 C 5.503906 -13.785156 6.820312 -14.078125 8.375 -14.078125 C 9.113281 -14.078125 9.835938 -13.992188 10.546875 -13.828125 C 11.265625 -13.671875 11.914062 -13.46875 12.5 -13.21875 L 11.515625 -10.859375 C 11.097656 -11.078125 10.613281 -11.257812 10.0625 -11.40625 C 9.519531 -11.550781 8.953125 -11.625 8.359375 -11.625 C 7.503906 -11.625 6.757812 -11.425781 6.125 -11.03125 C 5.5 -10.644531 5.015625 -10.097656 4.671875 -9.390625 C 4.328125 -8.679688 4.15625 -7.851562 4.15625 -6.90625 C 4.15625 -6 4.273438 -5.191406 4.515625 -4.484375 C 4.765625 -3.785156 5.15625 -3.238281 5.6875 -2.84375 C 6.21875 -2.457031 6.910156 -2.265625 7.765625 -2.265625 C 8.191406 -2.265625 8.546875 -2.28125 8.828125 -2.3125 C 9.117188 -2.351562 9.390625 -2.398438 9.640625 -2.453125 L 9.640625 -5.34375 L 7.015625 -5.34375 Z M 7.015625 -7.796875 "/></g></g></g><g fill="#000000" fill-opacity="1"><g transform="translate(225.342011, 167.309314)"><g><path d="M 5.796875 -13.875 C 7.046875 -13.875 8.082031 -13.722656 8.90625 -13.421875 C 9.726562 -13.117188 10.335938 -12.660156 10.734375 -12.046875 C 11.128906 -11.429688 11.328125 -10.65625 11.328125 -9.71875 C 11.328125 -9.082031 11.207031 -8.523438 10.96875 -8.046875 C 10.726562 -7.578125 10.410156 -7.175781 10.015625 -6.84375 C 9.628906 -6.519531 9.207031 -6.253906 8.75 -6.046875 L 12.828125 0 L 9.5625 0 L 6.25 -5.328125 L 4.6875 -5.328125 L 4.6875 0 L 1.75 0 L 1.75 -13.875 Z M 5.578125 -11.46875 L 4.6875 -11.46875 L 4.6875 -7.71875 L 5.640625 -7.71875 C 6.609375 -7.71875 7.300781 -7.878906 7.71875 -8.203125 C 8.144531 -8.523438 8.359375 -9.003906 8.359375 -9.640625 C 8.359375 -10.296875 8.128906 -10.765625 7.671875 -11.046875 C 7.222656 -11.328125 6.523438 -11.46875 5.578125 -11.46875 Z M 5.578125 -11.46875 "/></g></g></g><g fill="#000000" fill-opacity="1"><g transform="translate(238.173486, 167.309314)"><g><path d="M 14.34375 -6.953125 C 14.34375 -5.890625 14.207031 -4.914062 13.9375 -4.03125 C 13.675781 -3.15625 13.273438 -2.398438 12.734375 -1.765625 C 12.191406 -1.140625 11.503906 -0.65625 10.671875 -0.3125 C 9.847656 0.0195312 8.867188 0.1875 7.734375 0.1875 C 6.597656 0.1875 5.613281 0.0195312 4.78125 -0.3125 C 3.957031 -0.65625 3.273438 -1.140625 2.734375 -1.765625 C 2.191406 -2.398438 1.785156 -3.15625 1.515625 -4.03125 C 1.253906 -4.914062 1.125 -5.894531 1.125 -6.96875 C 1.125 -8.40625 1.359375 -9.65625 1.828125 -10.71875 C 2.304688 -11.789062 3.035156 -12.617188 4.015625 -13.203125 C 4.992188 -13.796875 6.238281 -14.09375 7.75 -14.09375 C 9.257812 -14.09375 10.5 -13.796875 11.46875 -13.203125 C 12.4375 -12.617188 13.15625 -11.789062 13.625 -10.71875 C 14.101562 -9.65625 14.34375 -8.398438 14.34375 -6.953125 Z M 4.21875 -6.953125 C 4.21875 -5.984375 4.335938 -5.148438 4.578125 -4.453125 C 4.816406 -3.753906 5.195312 -3.21875 5.71875 -2.84375 C 6.238281 -2.46875 6.910156 -2.28125 7.734375 -2.28125 C 8.566406 -2.28125 9.242188 -2.46875 9.765625 -2.84375 C 10.285156 -3.21875 10.660156 -3.753906 10.890625 -4.453125 C 11.128906 -5.148438 11.25 -5.984375 11.25 -6.953125 C 11.25 -8.410156 10.976562 -9.554688 10.4375 -10.390625 C 9.894531 -11.222656 9 -11.640625 7.75 -11.640625 C 6.925781 -11.640625 6.25 -11.453125 5.71875 -11.078125 C 5.195312 -10.703125 4.816406 -10.164062 4.578125 -9.46875 C 4.335938 -8.769531 4.21875 -7.929688 4.21875 -6.953125 Z M 4.21875 -6.953125 "/></g></g></g><g fill="#000000" fill-opacity="1"><g transform="translate(253.643386, 167.309314)"><g><path d="M 13.046875 -13.875 L 13.046875 -4.890625 C 13.046875 -3.941406 12.832031 -3.082031 12.40625 -2.3125 C 11.988281 -1.539062 11.351562 -0.929688 10.5 -0.484375 C 9.644531 -0.0351562 8.578125 0.1875 7.296875 0.1875 C 5.453125 0.1875 4.050781 -0.28125 3.09375 -1.21875 C 2.132812 -2.15625 1.65625 -3.394531 1.65625 -4.9375 L 1.65625 -13.875 L 4.578125 -13.875 L 4.578125 -5.375 C 4.578125 -4.226562 4.8125 -3.425781 5.28125 -2.96875 C 5.75 -2.507812 6.441406 -2.28125 7.359375 -2.28125 C 8.003906 -2.28125 8.523438 -2.390625 8.921875 -2.609375 C 9.328125 -2.828125 9.625 -3.164062 9.8125 -3.625 C 10.007812 -4.09375 10.109375 -4.6875 10.109375 -5.40625 L 10.109375 -13.875 Z M 13.046875 -13.875 "/></g></g></g><g fill="#000000" fill-opacity="1"><g transform="translate(268.335045, 167.309314)"><g><path d="M 6.171875 -13.875 C 7.960938 -13.875 9.269531 -13.488281 10.09375 -12.71875 C 10.914062 -11.945312 11.328125 -10.890625 11.328125 -9.546875 C 11.328125 -8.941406 11.234375 -8.359375 11.046875 -7.796875 C 10.867188 -7.242188 10.570312 -6.753906 10.15625 -6.328125 C 9.738281 -5.898438 9.1875 -5.5625 8.5 -5.3125 C 7.8125 -5.0625 6.960938 -4.9375 5.953125 -4.9375 L 4.6875 -4.9375 L 4.6875 0 L 1.75 0 L 1.75 -13.875 Z M 6.03125 -11.46875 L 4.6875 -11.46875 L 4.6875 -7.34375 L 5.65625 -7.34375 C 6.207031 -7.34375 6.6875 -7.414062 7.09375 -7.5625 C 7.5 -7.707031 7.8125 -7.9375 8.03125 -8.25 C 8.25 -8.5625 8.359375 -8.957031 8.359375 -9.4375 C 8.359375 -10.125 8.164062 -10.632812 7.78125 -10.96875 C 7.40625 -11.300781 6.820312 -11.46875 6.03125 -11.46875 Z M 6.03125 -11.46875 "/></g></g></g><g fill="#000000" fill-opacity="1"><g transform="translate(149.852661, 194.230211)"><g><path d="M 4.640625 0 L 1.75 0 L 1.75 -13.875 L 9.703125 -13.875 L 9.703125 -11.46875 L 4.640625 -11.46875 L 4.640625 -7.890625 L 9.34375 -7.890625 L 9.34375 -5.484375 L 4.640625 -5.484375 Z M 4.640625 0 "/></g></g></g><g fill="#000000" fill-opacity="1"><g transform="translate(160.520249, 194.230211)"><g><path d="M 5.796875 -13.875 C 7.046875 -13.875 8.082031 -13.722656 8.90625 -13.421875 C 9.726562 -13.117188 10.335938 -12.660156 10.734375 -12.046875 C 11.128906 -11.429688 11.328125 -10.65625 11.328125 -9.71875 C 11.328125 -9.082031 11.207031 -8.523438 10.96875 -8.046875 C 10.726562 -7.578125 10.410156 -7.175781 10.015625 -6.84375 C 9.628906 -6.519531 9.207031 -6.253906 8.75 -6.046875 L 12.828125 0 L 9.5625 0 L 6.25 -5.328125 L 4.6875 -5.328125 L 4.6875 0 L 1.75 0 L 1.75 -13.875 Z M 5.578125 -11.46875 L 4.6875 -11.46875 L 4.6875 -7.71875 L 5.640625 -7.71875 C 6.609375 -7.71875 7.300781 -7.878906 7.71875 -8.203125 C 8.144531 -8.523438 8.359375 -9.003906 8.359375 -9.640625 C 8.359375 -10.296875 8.128906 -10.765625 7.671875 -11.046875 C 7.222656 -11.328125 6.523438 -11.46875 5.578125 -11.46875 Z M 5.578125 -11.46875 "/></g></g></g><g fill="#000000" fill-opacity="1"><g transform="translate(173.351724, 194.230211)"><g><path d="M 9.734375 0 L 1.75 0 L 1.75 -13.875 L 9.734375 -13.875 L 9.734375 -11.46875 L 4.6875 -11.46875 L 4.6875 -8.421875 L 9.390625 -8.421875 L 9.390625 -6 L 4.6875 -6 L 4.6875 -2.4375 L 9.734375 -2.4375 Z M 9.734375 0 "/></g></g></g><g fill="#000000" fill-opacity="1"><g transform="translate(184.237607, 194.230211)"><g><path d="M 9.734375 0 L 1.75 0 L 1.75 -13.875 L 9.734375 -13.875 L 9.734375 -11.46875 L 4.6875 -11.46875 L 4.6875 -8.421875 L 9.390625 -8.421875 L 9.390625 -6 L 4.6875 -6 L 4.6875 -2.4375 L 9.734375 -2.4375 Z M 9.734375 0 "/></g></g></g><g fill="#000000" fill-opacity="1"><g transform="translate(195.12349, 194.230211)"><g><path d="M 13.265625 -7.078125 C 13.265625 -5.503906 12.960938 -4.191406 12.359375 -3.140625 C 11.765625 -2.097656 10.898438 -1.3125 9.765625 -0.78125 C 8.628906 -0.257812 7.265625 0 5.671875 0 L 1.75 0 L 1.75 -13.875 L 6.109375 -13.875 C 7.554688 -13.875 8.816406 -13.613281 9.890625 -13.09375 C 10.960938 -12.582031 11.789062 -11.820312 12.375 -10.8125 C 12.96875 -9.800781 13.265625 -8.554688 13.265625 -7.078125 Z M 10.203125 -7 C 10.203125 -8.019531 10.050781 -8.859375 9.75 -9.515625 C 9.445312 -10.179688 9.003906 -10.671875 8.421875 -10.984375 C 7.835938 -11.304688 7.113281 -11.46875 6.25 -11.46875 L 4.6875 -11.46875 L 4.6875 -2.4375 L 5.953125 -2.4375 C 7.390625 -2.4375 8.457031 -2.816406 9.15625 -3.578125 C 9.851562 -4.335938 10.203125 -5.476562 10.203125 -7 Z M 10.203125 -7 "/></g></g></g><g fill="#000000" fill-opacity="1"><g transform="translate(209.511446, 194.230211)"><g><path d="M 14.34375 -6.953125 C 14.34375 -5.890625 14.207031 -4.914062 13.9375 -4.03125 C 13.675781 -3.15625 13.273438 -2.398438 12.734375 -1.765625 C 12.191406 -1.140625 11.503906 -0.65625 10.671875 -0.3125 C 9.847656 0.0195312 8.867188 0.1875 7.734375 0.1875 C 6.597656 0.1875 5.613281 0.0195312 4.78125 -0.3125 C 3.957031 -0.65625 3.273438 -1.140625 2.734375 -1.765625 C 2.191406 -2.398438 1.785156 -3.15625 1.515625 -4.03125 C 1.253906 -4.914062 1.125 -5.894531 1.125 -6.96875 C 1.125 -8.40625 1.359375 -9.65625 1.828125 -10.71875 C 2.304688 -11.789062 3.035156 -12.617188 4.015625 -13.203125 C 4.992188 -13.796875 6.238281 -14.09375 7.75 -14.09375 C 9.257812 -14.09375 10.5 -13.796875 11.46875 -13.203125 C 12.4375 -12.617188 13.15625 -11.789062 13.625 -10.71875 C 14.101562 -9.65625 14.34375 -8.398438 14.34375 -6.953125 Z M 4.21875 -6.953125 C 4.21875 -5.984375 4.335938 -5.148438 4.578125 -4.453125 C 4.816406 -3.753906 5.195312 -3.21875 5.71875 -2.84375 C 6.238281 -2.46875 6.910156 -2.28125 7.734375 -2.28125 C 8.566406 -2.28125 9.242188 -2.46875 9.765625 -2.84375 C 10.285156 -3.21875 10.660156 -3.753906 10.890625 -4.453125 C 11.128906 -5.148438 11.25 -5.984375 11.25 -6.953125 C 11.25 -8.410156 10.976562 -9.554688 10.4375 -10.390625 C 9.894531 -11.222656 9 -11.640625 7.75 -11.640625 C 6.925781 -11.640625 6.25 -11.453125 5.71875 -11.078125 C 5.195312 -10.703125 4.816406 -10.164062 4.578125 -9.46875 C 4.335938 -8.769531 4.21875 -7.929688 4.21875 -6.953125 Z M 4.21875 -6.953125 "/></g></g></g><g fill="#000000" fill-opacity="1"><g transform="translate(224.981346, 194.230211)"><g><path d="M 7.625 0 L 4.28125 -10.890625 L 4.1875 -10.890625 C 4.207031 -10.628906 4.226562 -10.238281 4.25 -9.71875 C 4.28125 -9.195312 4.304688 -8.640625 4.328125 -8.046875 C 4.359375 -7.460938 4.375 -6.929688 4.375 -6.453125 L 4.375 0 L 1.75 0 L 1.75 -13.875 L 5.75 -13.875 L 9.03125 -3.265625 L 9.09375 -3.265625 L 12.578125 -13.875 L 16.578125 -13.875 L 16.578125 0 L 13.84375 0 L 13.84375 -6.5625 C 13.84375 -7 13.847656 -7.503906 13.859375 -8.078125 C 13.878906 -8.648438 13.898438 -9.191406 13.921875 -9.703125 C 13.953125 -10.222656 13.972656 -10.609375 13.984375 -10.859375 L 13.890625 -10.859375 L 10.3125 0 Z M 7.625 0 "/></g></g></g><g fill="#000000" fill-opacity="1"><g transform="translate(243.307966, 194.230211)"><g/></g></g><g fill="#000000" fill-opacity="1"><g transform="translate(248.357037, 194.230211)"><g><path d="M 14.0625 0 L 10.3125 0 L 4.28125 -10.5 L 4.1875 -10.5 C 4.21875 -10.0625 4.242188 -9.617188 4.265625 -9.171875 C 4.285156 -8.734375 4.300781 -8.289062 4.3125 -7.84375 C 4.332031 -7.40625 4.351562 -6.96875 4.375 -6.53125 L 4.375 0 L 1.75 0 L 1.75 -13.875 L 5.453125 -13.875 L 11.484375 -3.484375 L 11.546875 -3.484375 C 11.535156 -3.910156 11.519531 -4.335938 11.5 -4.765625 C 11.476562 -5.191406 11.457031 -5.613281 11.4375 -6.03125 C 11.425781 -6.457031 11.414062 -6.882812 11.40625 -7.3125 L 11.40625 -13.875 L 14.0625 -13.875 Z M 14.0625 0 "/></g></g></g><g fill="#000000" fill-opacity="1"><g transform="translate(264.159121, 194.230211)"><g><path d="M 9.734375 0 L 1.75 0 L 1.75 -13.875 L 9.734375 -13.875 L 9.734375 -11.46875 L 4.6875 -11.46875 L 4.6875 -8.421875 L 9.390625 -8.421875 L 9.390625 -6 L 4.6875 -6 L 4.6875 -2.4375 L 9.734375 -2.4375 Z M 9.734375 0 "/></g></g></g><g fill="#000000" fill-opacity="1"><g transform="translate(275.045004, 194.230211)"><g><path d="M 7.09375 0 L 4.15625 0 L 4.15625 -11.421875 L 0.390625 -11.421875 L 0.390625 -13.875 L 10.859375 -13.875 L 10.859375 -11.421875 L 7.09375 -11.421875 Z M 7.09375 0 "/></g></g></g><g fill="#000000" fill-opacity="1"><g transform="translate(286.301017, 194.230211)"><g><path d="M 18.796875 -13.875 L 15.265625 0 L 11.90625 0 L 10.03125 -7.296875 C 9.988281 -7.429688 9.9375 -7.640625 9.875 -7.921875 C 9.8125 -8.210938 9.742188 -8.523438 9.671875 -8.859375 C 9.609375 -9.203125 9.550781 -9.519531 9.5 -9.8125 C 9.445312 -10.113281 9.410156 -10.351562 9.390625 -10.53125 C 9.367188 -10.351562 9.332031 -10.113281 9.28125 -9.8125 C 9.226562 -9.519531 9.164062 -9.207031 9.09375 -8.875 C 9.03125 -8.539062 8.96875 -8.226562 8.90625 -7.9375 C 8.84375 -7.644531 8.789062 -7.421875 8.75 -7.265625 L 6.875 0 L 3.546875 0 L 0 -13.875 L 2.890625 -13.875 L 4.671875 -6.296875 C 4.722656 -6.066406 4.78125 -5.796875 4.84375 -5.484375 C 4.90625 -5.171875 4.96875 -4.84375 5.03125 -4.5 C 5.101562 -4.15625 5.164062 -3.820312 5.21875 -3.5 C 5.28125 -3.175781 5.320312 -2.898438 5.34375 -2.671875 C 5.375 -2.910156 5.414062 -3.1875 5.46875 -3.5 C 5.519531 -3.820312 5.570312 -4.148438 5.625 -4.484375 C 5.6875 -4.816406 5.75 -5.125 5.8125 -5.40625 C 5.875 -5.695312 5.929688 -5.929688 5.984375 -6.109375 L 8.015625 -13.875 L 10.796875 -13.875 L 12.8125 -6.109375 C 12.851562 -5.929688 12.90625 -5.695312 12.96875 -5.40625 C 13.03125 -5.125 13.09375 -4.816406 13.15625 -4.484375 C 13.21875 -4.148438 13.273438 -3.820312 13.328125 -3.5 C 13.378906 -3.175781 13.421875 -2.898438 13.453125 -2.671875 C 13.492188 -2.984375 13.550781 -3.363281 13.625 -3.8125 C 13.707031 -4.269531 13.796875 -4.722656 13.890625 -5.171875 C 13.984375 -5.617188 14.0625 -5.992188 14.125 -6.296875 L 15.890625 -13.875 Z M 18.796875 -13.875 "/></g></g></g><g fill="#000000" fill-opacity="1"><g transform="translate(305.092675, 194.230211)"><g><path d="M 14.34375 -6.953125 C 14.34375 -5.890625 14.207031 -4.914062 13.9375 -4.03125 C 13.675781 -3.15625 13.273438 -2.398438 12.734375 -1.765625 C 12.191406 -1.140625 11.503906 -0.65625 10.671875 -0.3125 C 9.847656 0.0195312 8.867188 0.1875 7.734375 0.1875 C 6.597656 0.1875 5.613281 0.0195312 4.78125 -0.3125 C 3.957031 -0.65625 3.273438 -1.140625 2.734375 -1.765625 C 2.191406 -2.398438 1.785156 -3.15625 1.515625 -4.03125 C 1.253906 -4.914062 1.125 -5.894531 1.125 -6.96875 C 1.125 -8.40625 1.359375 -9.65625 1.828125 -10.71875 C 2.304688 -11.789062 3.035156 -12.617188 4.015625 -13.203125 C 4.992188 -13.796875 6.238281 -14.09375 7.75 -14.09375 C 9.257812 -14.09375 10.5 -13.796875 11.46875 -13.203125 C 12.4375 -12.617188 13.15625 -11.789062 13.625 -10.71875 C 14.101562 -9.65625 14.34375 -8.398438 14.34375 -6.953125 Z M 4.21875 -6.953125 C 4.21875 -5.984375 4.335938 -5.148438 4.578125 -4.453125 C 4.816406 -3.753906 5.195312 -3.21875 5.71875 -2.84375 C 6.238281 -2.46875 6.910156 -2.28125 7.734375 -2.28125 C 8.566406 -2.28125 9.242188 -2.46875 9.765625 -2.84375 C 10.285156 -3.21875 10.660156 -3.753906 10.890625 -4.453125 C 11.128906 -5.148438 11.25 -5.984375 11.25 -6.953125 C 11.25 -8.410156 10.976562 -9.554688 10.4375 -10.390625 C 9.894531 -11.222656 9 -11.640625 7.75 -11.640625 C 6.925781 -11.640625 6.25 -11.453125 5.71875 -11.078125 C 5.195312 -10.703125 4.816406 -10.164062 4.578125 -9.46875 C 4.335938 -8.769531 4.21875 -7.929688 4.21875 -6.953125 Z M 4.21875 -6.953125 "/></g></g></g><g fill="#000000" fill-opacity="1"><g transform="translate(320.562575, 194.230211)"><g><path d="M 5.796875 -13.875 C 7.046875 -13.875 8.082031 -13.722656 8.90625 -13.421875 C 9.726562 -13.117188 10.335938 -12.660156 10.734375 -12.046875 C 11.128906 -11.429688 11.328125 -10.65625 11.328125 -9.71875 C 11.328125 -9.082031 11.207031 -8.523438 10.96875 -8.046875 C 10.726562 -7.578125 10.410156 -7.175781 10.015625 -6.84375 C 9.628906 -6.519531 9.207031 -6.253906 8.75 -6.046875 L 12.828125 0 L 9.5625 0 L 6.25 -5.328125 L 4.6875 -5.328125 L 4.6875 0 L 1.75 0 L 1.75 -13.875 Z M 5.578125 -11.46875 L 4.6875 -11.46875 L 4.6875 -7.71875 L 5.640625 -7.71875 C 6.609375 -7.71875 7.300781 -7.878906 7.71875 -8.203125 C 8.144531 -8.523438 8.359375 -9.003906 8.359375 -9.640625 C 8.359375 -10.296875 8.128906 -10.765625 7.671875 -11.046875 C 7.222656 -11.328125 6.523438 -11.46875 5.578125 -11.46875 Z M 5.578125 -11.46875 "/></g></g></g><g fill="#000000" fill-opacity="1"><g transform="translate(333.39405, 194.230211)"><g><path d="M 12.90625 0 L 9.5625 0 L 5.9375 -5.84375 L 4.6875 -4.953125 L 4.6875 0 L 1.75 0 L 1.75 -13.875 L 4.6875 -13.875 L 4.6875 -7.53125 C 4.882812 -7.800781 5.078125 -8.070312 5.265625 -8.34375 C 5.453125 -8.613281 5.644531 -8.882812 5.84375 -9.15625 L 9.609375 -13.875 L 12.875 -13.875 L 8.03125 -7.734375 Z M 12.90625 0 "/></g></g></g><g fill="#000000" fill-opacity="1"><g transform="translate(346.301451, 194.230211)"><g><path d="M 9.9375 -3.859375 C 9.9375 -3.035156 9.734375 -2.316406 9.328125 -1.703125 C 8.929688 -1.097656 8.351562 -0.628906 7.59375 -0.296875 C 6.832031 0.0234375 5.910156 0.1875 4.828125 0.1875 C 4.335938 0.1875 3.863281 0.15625 3.40625 0.09375 C 2.945312 0.03125 2.507812 -0.0625 2.09375 -0.1875 C 1.675781 -0.3125 1.273438 -0.460938 0.890625 -0.640625 L 0.890625 -3.375 C 1.546875 -3.082031 2.226562 -2.816406 2.9375 -2.578125 C 3.644531 -2.347656 4.347656 -2.234375 5.046875 -2.234375 C 5.523438 -2.234375 5.910156 -2.296875 6.203125 -2.421875 C 6.503906 -2.554688 6.71875 -2.734375 6.84375 -2.953125 C 6.976562 -3.171875 7.046875 -3.425781 7.046875 -3.71875 C 7.046875 -4.0625 6.925781 -4.351562 6.6875 -4.59375 C 6.457031 -4.84375 6.140625 -5.078125 5.734375 -5.296875 C 5.328125 -5.515625 4.867188 -5.742188 4.359375 -5.984375 C 4.035156 -6.140625 3.679688 -6.328125 3.296875 -6.546875 C 2.921875 -6.765625 2.5625 -7.03125 2.21875 -7.34375 C 1.875 -7.664062 1.59375 -8.050781 1.375 -8.5 C 1.15625 -8.945312 1.046875 -9.488281 1.046875 -10.125 C 1.046875 -10.957031 1.234375 -11.664062 1.609375 -12.25 C 1.992188 -12.84375 2.539062 -13.296875 3.25 -13.609375 C 3.957031 -13.921875 4.789062 -14.078125 5.75 -14.078125 C 6.46875 -14.078125 7.15625 -13.992188 7.8125 -13.828125 C 8.46875 -13.660156 9.15625 -13.414062 9.875 -13.09375 L 8.921875 -10.8125 C 8.285156 -11.070312 7.710938 -11.269531 7.203125 -11.40625 C 6.691406 -11.550781 6.175781 -11.625 5.65625 -11.625 C 5.289062 -11.625 4.976562 -11.566406 4.71875 -11.453125 C 4.457031 -11.335938 4.257812 -11.171875 4.125 -10.953125 C 3.988281 -10.742188 3.921875 -10.5 3.921875 -10.21875 C 3.921875 -9.894531 4.019531 -9.617188 4.21875 -9.390625 C 4.414062 -9.160156 4.707031 -8.941406 5.09375 -8.734375 C 5.476562 -8.523438 5.960938 -8.285156 6.546875 -8.015625 C 7.253906 -7.671875 7.859375 -7.316406 8.359375 -6.953125 C 8.867188 -6.597656 9.257812 -6.171875 9.53125 -5.671875 C 9.800781 -5.179688 9.9375 -4.578125 9.9375 -3.859375 Z M 9.9375 -3.859375 "/></g></g></g><g fill="#000000" fill-opacity="1"><g transform="translate(149.852661, 221.151108)"><g><path d="M 10.234375 0 L 9.234375 -3.296875 L 4.171875 -3.296875 L 3.171875 0 L 0 0 L 4.890625 -13.9375 L 8.5 -13.9375 L 13.40625 0 Z M 8.53125 -5.765625 L 7.53125 -9 C 7.46875 -9.207031 7.382812 -9.476562 7.28125 -9.8125 C 7.175781 -10.15625 7.070312 -10.503906 6.96875 -10.859375 C 6.863281 -11.210938 6.773438 -11.519531 6.703125 -11.78125 C 6.640625 -11.519531 6.550781 -11.195312 6.4375 -10.8125 C 6.332031 -10.425781 6.226562 -10.0625 6.125 -9.71875 C 6.03125 -9.382812 5.957031 -9.144531 5.90625 -9 L 4.921875 -5.765625 Z M 8.53125 -5.765625 "/></g></g></g><g fill="#000000" fill-opacity="1"><g transform="translate(163.26308, 221.151108)"><g><path d="M 9.9375 -3.859375 C 9.9375 -3.035156 9.734375 -2.316406 9.328125 -1.703125 C 8.929688 -1.097656 8.351562 -0.628906 7.59375 -0.296875 C 6.832031 0.0234375 5.910156 0.1875 4.828125 0.1875 C 4.335938 0.1875 3.863281 0.15625 3.40625 0.09375 C 2.945312 0.03125 2.507812 -0.0625 2.09375 -0.1875 C 1.675781 -0.3125 1.273438 -0.460938 0.890625 -0.640625 L 0.890625 -3.375 C 1.546875 -3.082031 2.226562 -2.816406 2.9375 -2.578125 C 3.644531 -2.347656 4.347656 -2.234375 5.046875 -2.234375 C 5.523438 -2.234375 5.910156 -2.296875 6.203125 -2.421875 C 6.503906 -2.554688 6.71875 -2.734375 6.84375 -2.953125 C 6.976562 -3.171875 7.046875 -3.425781 7.046875 -3.71875 C 7.046875 -4.0625 6.925781 -4.351562 6.6875 -4.59375 C 6.457031 -4.84375 6.140625 -5.078125 5.734375 -5.296875 C 5.328125 -5.515625 4.867188 -5.742188 4.359375 -5.984375 C 4.035156 -6.140625 3.679688 -6.328125 3.296875 -6.546875 C 2.921875 -6.765625 2.5625 -7.03125 2.21875 -7.34375 C 1.875 -7.664062 1.59375 -8.050781 1.375 -8.5 C 1.15625 -8.945312 1.046875 -9.488281 1.046875 -10.125 C 1.046875 -10.957031 1.234375 -11.664062 1.609375 -12.25 C 1.992188 -12.84375 2.539062 -13.296875 3.25 -13.609375 C 3.957031 -13.921875 4.789062 -14.078125 5.75 -14.078125 C 6.46875 -14.078125 7.15625 -13.992188 7.8125 -13.828125 C 8.46875 -13.660156 9.15625 -13.414062 9.875 -13.09375 L 8.921875 -10.8125 C 8.285156 -11.070312 7.710938 -11.269531 7.203125 -11.40625 C 6.691406 -11.550781 6.175781 -11.625 5.65625 -11.625 C 5.289062 -11.625 4.976562 -11.566406 4.71875 -11.453125 C 4.457031 -11.335938 4.257812 -11.171875 4.125 -10.953125 C 3.988281 -10.742188 3.921875 -10.5 3.921875 -10.21875 C 3.921875 -9.894531 4.019531 -9.617188 4.21875 -9.390625 C 4.414062 -9.160156 4.707031 -8.941406 5.09375 -8.734375 C 5.476562 -8.523438 5.960938 -8.285156 6.546875 -8.015625 C 7.253906 -7.671875 7.859375 -7.316406 8.359375 -6.953125 C 8.867188 -6.597656 9.257812 -6.171875 9.53125 -5.671875 C 9.800781 -5.179688 9.9375 -4.578125 9.9375 -3.859375 Z M 9.9375 -3.859375 "/></g></g></g><g fill="#000000" fill-opacity="1"><g transform="translate(173.96863, 221.151108)"><g><path d="M 9.9375 -3.859375 C 9.9375 -3.035156 9.734375 -2.316406 9.328125 -1.703125 C 8.929688 -1.097656 8.351562 -0.628906 7.59375 -0.296875 C 6.832031 0.0234375 5.910156 0.1875 4.828125 0.1875 C 4.335938 0.1875 3.863281 0.15625 3.40625 0.09375 C 2.945312 0.03125 2.507812 -0.0625 2.09375 -0.1875 C 1.675781 -0.3125 1.273438 -0.460938 0.890625 -0.640625 L 0.890625 -3.375 C 1.546875 -3.082031 2.226562 -2.816406 2.9375 -2.578125 C 3.644531 -2.347656 4.347656 -2.234375 5.046875 -2.234375 C 5.523438 -2.234375 5.910156 -2.296875 6.203125 -2.421875 C 6.503906 -2.554688 6.71875 -2.734375 6.84375 -2.953125 C 6.976562 -3.171875 7.046875 -3.425781 7.046875 -3.71875 C 7.046875 -4.0625 6.925781 -4.351562 6.6875 -4.59375 C 6.457031 -4.84375 6.140625 -5.078125 5.734375 -5.296875 C 5.328125 -5.515625 4.867188 -5.742188 4.359375 -5.984375 C 4.035156 -6.140625 3.679688 -6.328125 3.296875 -6.546875 C 2.921875 -6.765625 2.5625 -7.03125 2.21875 -7.34375 C 1.875 -7.664062 1.59375 -8.050781 1.375 -8.5 C 1.15625 -8.945312 1.046875 -9.488281 1.046875 -10.125 C 1.046875 -10.957031 1.234375 -11.664062 1.609375 -12.25 C 1.992188 -12.84375 2.539062 -13.296875 3.25 -13.609375 C 3.957031 -13.921875 4.789062 -14.078125 5.75 -14.078125 C 6.46875 -14.078125 7.15625 -13.992188 7.8125 -13.828125 C 8.46875 -13.660156 9.15625 -13.414062 9.875 -13.09375 L 8.921875 -10.8125 C 8.285156 -11.070312 7.710938 -11.269531 7.203125 -11.40625 C 6.691406 -11.550781 6.175781 -11.625 5.65625 -11.625 C 5.289062 -11.625 4.976562 -11.566406 4.71875 -11.453125 C 4.457031 -11.335938 4.257812 -11.171875 4.125 -10.953125 C 3.988281 -10.742188 3.921875 -10.5 3.921875 -10.21875 C 3.921875 -9.894531 4.019531 -9.617188 4.21875 -9.390625 C 4.414062 -9.160156 4.707031 -8.941406 5.09375 -8.734375 C 5.476562 -8.523438 5.960938 -8.285156 6.546875 -8.015625 C 7.253906 -7.671875 7.859375 -7.316406 8.359375 -6.953125 C 8.867188 -6.597656 9.257812 -6.171875 9.53125 -5.671875 C 9.800781 -5.179688 9.9375 -4.578125 9.9375 -3.859375 Z M 9.9375 -3.859375 "/></g></g></g><g fill="#000000" fill-opacity="1"><g transform="translate(184.674181, 221.151108)"><g><path d="M 14.34375 -6.953125 C 14.34375 -5.890625 14.207031 -4.914062 13.9375 -4.03125 C 13.675781 -3.15625 13.273438 -2.398438 12.734375 -1.765625 C 12.191406 -1.140625 11.503906 -0.65625 10.671875 -0.3125 C 9.847656 0.0195312 8.867188 0.1875 7.734375 0.1875 C 6.597656 0.1875 5.613281 0.0195312 4.78125 -0.3125 C 3.957031 -0.65625 3.273438 -1.140625 2.734375 -1.765625 C 2.191406 -2.398438 1.785156 -3.15625 1.515625 -4.03125 C 1.253906 -4.914062 1.125 -5.894531 1.125 -6.96875 C 1.125 -8.40625 1.359375 -9.65625 1.828125 -10.71875 C 2.304688 -11.789062 3.035156 -12.617188 4.015625 -13.203125 C 4.992188 -13.796875 6.238281 -14.09375 7.75 -14.09375 C 9.257812 -14.09375 10.5 -13.796875 11.46875 -13.203125 C 12.4375 -12.617188 13.15625 -11.789062 13.625 -10.71875 C 14.101562 -9.65625 14.34375 -8.398438 14.34375 -6.953125 Z M 4.21875 -6.953125 C 4.21875 -5.984375 4.335938 -5.148438 4.578125 -4.453125 C 4.816406 -3.753906 5.195312 -3.21875 5.71875 -2.84375 C 6.238281 -2.46875 6.910156 -2.28125 7.734375 -2.28125 C 8.566406 -2.28125 9.242188 -2.46875 9.765625 -2.84375 C 10.285156 -3.21875 10.660156 -3.753906 10.890625 -4.453125 C 11.128906 -5.148438 11.25 -5.984375 11.25 -6.953125 C 11.25 -8.410156 10.976562 -9.554688 10.4375 -10.390625 C 9.894531 -11.222656 9 -11.640625 7.75 -11.640625 C 6.925781 -11.640625 6.25 -11.453125 5.71875 -11.078125 C 5.195312 -10.703125 4.816406 -10.164062 4.578125 -9.46875 C 4.335938 -8.769531 4.21875 -7.929688 4.21875 -6.953125 Z M 4.21875 -6.953125 "/></g></g></g><g fill="#000000" fill-opacity="1"><g transform="translate(200.14408, 221.151108)"><g><path d="M 7.640625 -11.625 C 7.078125 -11.625 6.578125 -11.515625 6.140625 -11.296875 C 5.710938 -11.078125 5.347656 -10.757812 5.046875 -10.34375 C 4.753906 -9.9375 4.53125 -9.441406 4.375 -8.859375 C 4.226562 -8.273438 4.15625 -7.625 4.15625 -6.90625 C 4.15625 -5.914062 4.273438 -5.070312 4.515625 -4.375 C 4.765625 -3.6875 5.144531 -3.160156 5.65625 -2.796875 C 6.164062 -2.441406 6.828125 -2.265625 7.640625 -2.265625 C 8.203125 -2.265625 8.765625 -2.328125 9.328125 -2.453125 C 9.898438 -2.578125 10.519531 -2.753906 11.1875 -2.984375 L 11.1875 -0.515625 C 10.570312 -0.265625 9.960938 -0.0859375 9.359375 0.015625 C 8.765625 0.128906 8.097656 0.1875 7.359375 0.1875 C 5.929688 0.1875 4.753906 -0.101562 3.828125 -0.6875 C 2.910156 -1.28125 2.226562 -2.109375 1.78125 -3.171875 C 1.34375 -4.242188 1.125 -5.492188 1.125 -6.921875 C 1.125 -7.972656 1.265625 -8.929688 1.546875 -9.796875 C 1.835938 -10.671875 2.257812 -11.425781 2.8125 -12.0625 C 3.363281 -12.707031 4.039062 -13.203125 4.84375 -13.546875 C 5.65625 -13.898438 6.585938 -14.078125 7.640625 -14.078125 C 8.328125 -14.078125 9.015625 -13.988281 9.703125 -13.8125 C 10.398438 -13.632812 11.066406 -13.394531 11.703125 -13.09375 L 10.75 -10.703125 C 10.226562 -10.953125 9.707031 -11.164062 9.1875 -11.34375 C 8.664062 -11.53125 8.148438 -11.625 7.640625 -11.625 Z M 7.640625 -11.625 "/></g></g></g><g fill="#000000" fill-opacity="1"><g transform="translate(212.5295, 221.151108)"><g><path d="M 1.75 0 L 1.75 -13.875 L 4.6875 -13.875 L 4.6875 0 Z M 1.75 0 "/></g></g></g><g fill="#000000" fill-opacity="1"><g transform="translate(218.964219, 221.151108)"><g><path d="M 10.234375 0 L 9.234375 -3.296875 L 4.171875 -3.296875 L 3.171875 0 L 0 0 L 4.890625 -13.9375 L 8.5 -13.9375 L 13.40625 0 Z M 8.53125 -5.765625 L 7.53125 -9 C 7.46875 -9.207031 7.382812 -9.476562 7.28125 -9.8125 C 7.175781 -10.15625 7.070312 -10.503906 6.96875 -10.859375 C 6.863281 -11.210938 6.773438 -11.519531 6.703125 -11.78125 C 6.640625 -11.519531 6.550781 -11.195312 6.4375 -10.8125 C 6.332031 -10.425781 6.226562 -10.0625 6.125 -9.71875 C 6.03125 -9.382812 5.957031 -9.144531 5.90625 -9 L 4.921875 -5.765625 Z M 8.53125 -5.765625 "/></g></g></g><g fill="#000000" fill-opacity="1"><g transform="translate(232.374638, 221.151108)"><g><path d="M 7.09375 0 L 4.15625 0 L 4.15625 -11.421875 L 0.390625 -11.421875 L 0.390625 -13.875 L 10.859375 -13.875 L 10.859375 -11.421875 L 7.09375 -11.421875 Z M 7.09375 0 "/></g></g></g><g fill="#000000" fill-opacity="1"><g transform="translate(243.630651, 221.151108)"><g><path d="M 1.75 0 L 1.75 -13.875 L 4.6875 -13.875 L 4.6875 0 Z M 1.75 0 "/></g></g></g><g fill="#000000" fill-opacity="1"><g transform="translate(250.06537, 221.151108)"><g><path d="M 14.34375 -6.953125 C 14.34375 -5.890625 14.207031 -4.914062 13.9375 -4.03125 C 13.675781 -3.15625 13.273438 -2.398438 12.734375 -1.765625 C 12.191406 -1.140625 11.503906 -0.65625 10.671875 -0.3125 C 9.847656 0.0195312 8.867188 0.1875 7.734375 0.1875 C 6.597656 0.1875 5.613281 0.0195312 4.78125 -0.3125 C 3.957031 -0.65625 3.273438 -1.140625 2.734375 -1.765625 C 2.191406 -2.398438 1.785156 -3.15625 1.515625 -4.03125 C 1.253906 -4.914062 1.125 -5.894531 1.125 -6.96875 C 1.125 -8.40625 1.359375 -9.65625 1.828125 -10.71875 C 2.304688 -11.789062 3.035156 -12.617188 4.015625 -13.203125 C 4.992188 -13.796875 6.238281 -14.09375 7.75 -14.09375 C 9.257812 -14.09375 10.5 -13.796875 11.46875 -13.203125 C 12.4375 -12.617188 13.15625 -11.789062 13.625 -10.71875 C 14.101562 -9.65625 14.34375 -8.398438 14.34375 -6.953125 Z M 4.21875 -6.953125 C 4.21875 -5.984375 4.335938 -5.148438 4.578125 -4.453125 C 4.816406 -3.753906 5.195312 -3.21875 5.71875 -2.84375 C 6.238281 -2.46875 6.910156 -2.28125 7.734375 -2.28125 C 8.566406 -2.28125 9.242188 -2.46875 9.765625 -2.84375 C 10.285156 -3.21875 10.660156 -3.753906 10.890625 -4.453125 C 11.128906 -5.148438 11.25 -5.984375 11.25 -6.953125 C 11.25 -8.410156 10.976562 -9.554688 10.4375 -10.390625 C 9.894531 -11.222656 9 -11.640625 7.75 -11.640625 C 6.925781 -11.640625 6.25 -11.453125 5.71875 -11.078125 C 5.195312 -10.703125 4.816406 -10.164062 4.578125 -9.46875 C 4.335938 -8.769531 4.21875 -7.929688 4.21875 -6.953125 Z M 4.21875 -6.953125 "/></g></g></g><g fill="#000000" fill-opacity="1"><g transform="translate(265.53527, 221.151108)"><g><path d="M 14.0625 0 L 10.3125 0 L 4.28125 -10.5 L 4.1875 -10.5 C 4.21875 -10.0625 4.242188 -9.617188 4.265625 -9.171875 C 4.285156 -8.734375 4.300781 -8.289062 4.3125 -7.84375 C 4.332031 -7.40625 4.351562 -6.96875 4.375 -6.53125 L 4.375 0 L 1.75 0 L 1.75 -13.875 L 5.453125 -13.875 L 11.484375 -3.484375 L 11.546875 -3.484375 C 11.535156 -3.910156 11.519531 -4.335938 11.5 -4.765625 C 11.476562 -5.191406 11.457031 -5.613281 11.4375 -6.03125 C 11.425781 -6.457031 11.414062 -6.882812 11.40625 -7.3125 L 11.40625 -13.875 L 14.0625 -13.875 Z M 14.0625 0 "/></g></g></g><g clip-path="url(#73161f0d89)"><g clip-path="url(#f050a032a8)"><path fill="#ffffff" d="M 56.390625 133.816406 L 120.683594 133.816406 L 120.683594 198.109375 L 56.390625 198.109375 Z M 56.390625 133.816406 " fill-opacity="1" fill-rule="nonzero"/></g></g><g clip-path="url(#86f5868e99)"><g clip-path="url(#e092f83e3e)"><path stroke-linecap="butt" transform="matrix(0.75, 0, 0, 0.75, 56.38892, 133.814595)" fill="none" stroke-linejoin="miter" d="M 42.861651 0.00241472 C 19.189775 0.00241472 0.00227334 19.189916 0.00227334 42.861793 C 0.00227334 66.528461 19.189775 85.72117 42.861651 85.72117 C 66.528319 85.72117 85.721029 66.528461 85.721029 42.861793 C 85.721029 19.189916 66.528319 0.00241472 42.861651 0.00241472 Z M 42.861651 0.00241472 " stroke="#000000" stroke-width="6" stroke-opacity="1" stroke-miterlimit="4"/></g></g><g clip-path="url(#7590fe1b66)"><g clip-path="url(#370f56fd1b)"><path fill="#ffffff" d="M 37.5 148.492188 L 126.171875 148.492188 L 126.171875 225.964844 L 37.5 225.964844 Z M 37.5 148.492188 " fill-opacity="1" fill-rule="nonzero"/></g></g><g clip-path="url(#702af511eb)"><g clip-path="url(#b2e704526a)"><path stroke-linecap="butt" transform="matrix(0.75, 0, 0, 0.75, 37.500002, 148.493325)" fill="none" stroke-linejoin="miter" d="M 65.968752 12.154734 L 111.098963 91.139114 C 112.536463 93.649531 112.526046 96.738072 111.072921 99.243281 C 109.619796 101.748489 106.942713 103.290156 104.046879 103.290156 L 13.999998 103.290156 C 11.104165 103.290156 8.427081 101.748489 6.973956 99.243281 C 5.520831 96.738072 5.510414 93.649531 6.947914 91.139114 L 52.078126 12.154734 C 53.500001 9.659942 56.151043 8.123483 59.020834 8.123483 C 61.895835 8.123483 64.546877 9.659942 65.968752 12.154734 Z M 65.968752 12.154734 " stroke="#000000" stroke-width="6" stroke-opacity="1" stroke-miterlimit="4"/></g></g><g clip-path="url(#b94c3cb920)"><g clip-path="url(#38f4701886)"><path fill="#ffffff" d="M 88.535156 140.71875 L 97.96875 140.71875 L 97.96875 150.152344 L 88.535156 150.152344 Z M 88.535156 140.71875 " fill-opacity="1" fill-rule="nonzero"/></g></g><g clip-path="url(#bbe075d11a)"><g clip-path="url(#b0e8b65f4c)"><path stroke-linecap="butt" transform="matrix(0.75, 0, 0, 0.75, 88.53561, 140.719649)" fill="none" stroke-linejoin="miter" d="M 6.280646 -0.00119888 L 8.280646 4.280051 L 12.561896 6.280052 L 8.280646 8.280052 L 6.280646 12.561302 L 4.280645 8.280052 L -0.000604848 6.280052 L 4.280645 4.280051 Z M 6.280646 -0.00119888 " stroke="#000000" stroke-width="6" stroke-opacity="1" stroke-miterlimit="4"/></g></g><g clip-path="url(#c7c665b80c)"><g clip-path="url(#0abbebda7d)"><path fill="#ffffff" d="M 45.230469 155.878906 L 133.902344 155.878906 L 133.902344 233.351562 L 45.230469 233.351562 Z M 45.230469 155.878906 " fill-opacity="1" fill-rule="nonzero"/></g></g><g clip-path="url(#3cac796b85)"><g clip-path="url(#59ac6d44a3)"><path stroke-linecap="butt" transform="matrix(0.75, 0, 0, 0.75, 45.230406, 155.880707)" fill="none" stroke-linejoin="miter" d="M 65.968838 12.153849 L 111.099049 91.138229 C 112.536549 93.648646 112.526132 96.742397 111.073007 99.242397 C 109.619882 101.747605 106.942799 103.289272 104.046965 103.289272 L 14.000084 103.289272 C 11.104251 103.289272 8.427167 101.747605 6.974042 99.242397 C 5.520917 96.742397 5.5105 93.648646 6.948 91.138229 L 52.078212 12.153849 C 53.500087 9.664266 56.151129 8.122599 59.02092 8.122599 C 61.895921 8.122599 64.546962 9.664266 65.968838 12.153849 Z M 65.968838 12.153849 " stroke="#000000" stroke-width="6" stroke-opacity="1" stroke-miterlimit="4"/></g></g><g clip-path="url(#8947d90cf7)"><g clip-path="url(#badb008074)"><path fill="#ffffff" d="M 52.945312 163.710938 L 141.617188 163.710938 L 141.617188 241.183594 L 52.945312 241.183594 Z M 52.945312 163.710938 " fill-opacity="1" fill-rule="nonzero"/></g></g><g clip-path="url(#b848465356)"><g clip-path="url(#b9d038168a)"><path stroke-linecap="butt" transform="matrix(0.75, 0, 0, 0.75, 52.946103, 163.713491)" fill="none" stroke-linejoin="miter" d="M 65.9677 12.152846 L 111.103119 91.137227 C 112.540619 93.652852 112.530203 96.741394 111.071869 99.246602 C 109.618744 101.751811 106.941661 103.293477 104.045827 103.293477 L 13.998946 103.293477 C 11.103113 103.293477 8.426029 101.751811 6.972904 99.246602 C 5.519779 96.741394 5.509362 93.652852 6.946863 91.137227 L 52.077074 12.152846 C 53.504157 9.663263 56.155199 8.121596 59.024991 8.121596 C 61.894783 8.121596 64.545825 9.663263 65.9677 12.152846 Z M 65.9677 12.152846 " stroke="#000000" stroke-width="6" stroke-opacity="1" stroke-miterlimit="4"/></g></g></svg>