<svg xmlns="http://www.w3.org/2000/svg" xmlns:xlink="http://www.w3.org/1999/xlink" width="500" zoomAndPan="magnify" viewBox="0 0 375 135.000003" height="180" preserveAspectRatio="xMidYMid meet" version="1.0"><defs><clipPath id="f830658aea"><path d="M 21.652344 4.304688 L 95.78125 4.304688 L 95.78125 78.433594 L 21.652344 78.433594 Z M 21.652344 4.304688 " clip-rule="nonzero"/></clipPath><clipPath id="963ac8836f"><path d="M 58.714844 4.304688 C 38.246094 4.304688 21.652344 20.898438 21.652344 41.367188 C 21.652344 61.835938 38.246094 78.433594 58.714844 78.433594 C 79.1875 78.433594 95.78125 61.835938 95.78125 41.367188 C 95.78125 20.898438 79.1875 4.304688 58.714844 4.304688 Z M 58.714844 4.304688 " clip-rule="nonzero"/></clipPath><clipPath id="08189e81e9"><path d="M 21.652344 4.304688 L 95.777344 4.304688 L 95.777344 78.429688 L 21.652344 78.429688 Z M 21.652344 4.304688 " clip-rule="nonzero"/></clipPath><clipPath id="e0cb5f7816"><path d="M 58.714844 4.304688 C 38.246094 4.304688 21.652344 20.898438 21.652344 41.367188 C 21.652344 61.832031 38.246094 78.429688 58.714844 78.429688 C 79.179688 78.429688 95.777344 61.832031 95.777344 41.367188 C 95.777344 20.898438 79.179688 4.304688 58.714844 4.304688 Z M 58.714844 4.304688 " clip-rule="nonzero"/></clipPath><clipPath id="411ccaa606"><path d="M 4.757812 28.203125 L 97 28.203125 L 97 110.550781 L 4.757812 110.550781 Z M 4.757812 28.203125 " clip-rule="nonzero"/></clipPath><clipPath id="8232623b86"><path d="M 56.921875 31.738281 L 95.953125 100.039062 C 97.195312 102.214844 97.1875 104.886719 95.929688 107.050781 C 94.675781 109.21875 92.359375 110.550781 89.855469 110.550781 L 11.980469 110.550781 C 9.476562 110.550781 7.160156 109.21875 5.902344 107.050781 C 4.648438 104.886719 4.636719 102.214844 5.878906 100.039062 L 44.910156 31.738281 C 46.140625 29.582031 48.433594 28.253906 50.914062 28.253906 C 53.402344 28.253906 55.6875 29.582031 56.921875 31.738281 Z M 56.921875 31.738281 " clip-rule="nonzero"/></clipPath><clipPath id="dc7c56d49a"><path d="M 4.65625 28 L 97 28 L 97 110.292969 L 4.65625 110.292969 Z M 4.65625 28 " clip-rule="nonzero"/></clipPath><clipPath id="53467c35b2"><path d="M 56.917969 31.738281 L 95.945312 100.039062 C 97.1875 102.210938 97.179688 104.882812 95.921875 107.046875 C 94.664062 109.214844 92.351562 110.546875 89.847656 110.546875 L 11.980469 110.546875 C 9.476562 110.546875 7.160156 109.214844 5.902344 107.046875 C 4.648438 104.882812 4.636719 102.210938 5.878906 100.039062 L 44.90625 31.738281 C 46.136719 29.582031 48.429688 28.253906 50.910156 28.253906 C 53.398438 28.253906 55.6875 29.582031 56.917969 31.738281 Z M 56.917969 31.738281 " clip-rule="nonzero"/></clipPath><clipPath id="be58e8d7a3"><path d="M 58.714844 12.261719 L 69.59375 12.261719 L 69.59375 23.140625 L 58.714844 23.140625 Z M 58.714844 12.261719 " clip-rule="nonzero"/></clipPath><clipPath id="f4164bbcb2"><path d="M 64.152344 12.261719 L 65.882812 15.96875 L 69.59375 17.699219 L 65.882812 19.433594 L 64.152344 23.140625 L 62.421875 19.433594 L 58.714844 17.699219 L 62.421875 15.96875 Z M 64.152344 12.261719 " clip-rule="nonzero"/></clipPath><clipPath id="99591a8f8b"><path d="M 58.714844 12.261719 L 69.578125 12.261719 L 69.578125 23.125 L 58.714844 23.125 Z M 58.714844 12.261719 " clip-rule="nonzero"/></clipPath><clipPath id="4458c45b55"><path d="M 64.148438 12.261719 L 65.875 15.964844 L 69.578125 17.695312 L 65.875 19.425781 L 64.148438 23.125 L 62.417969 19.425781 L 58.714844 17.695312 L 62.417969 15.964844 Z M 64.148438 12.261719 " clip-rule="nonzero"/></clipPath><clipPath id="f9ecda98c4"><path d="M 13.671875 36.71875 L 106 36.71875 L 106 119.066406 L 13.671875 119.066406 Z M 13.671875 36.71875 " clip-rule="nonzero"/></clipPath><clipPath id="9120323eb3"><path d="M 65.835938 40.253906 L 104.867188 108.554688 C 106.109375 110.730469 106.101562 113.402344 104.84375 115.570312 C 103.585938 117.734375 101.273438 119.066406 98.769531 119.066406 L 20.890625 119.066406 C 18.386719 119.066406 16.074219 117.734375 14.816406 115.570312 C 13.558594 113.402344 13.550781 110.730469 14.792969 108.554688 L 53.824219 40.253906 C 55.054688 38.097656 57.347656 36.769531 59.828125 36.769531 C 62.3125 36.769531 64.601562 38.097656 65.835938 40.253906 Z M 65.835938 40.253906 " clip-rule="nonzero"/></clipPath><clipPath id="7952c4e8c8"><path d="M 13.570312 36.125 L 106 36.125 L 106 118.8125 L 13.570312 118.8125 Z M 13.570312 36.125 " clip-rule="nonzero"/></clipPath><clipPath id="a4091f00d8"><path d="M 65.832031 40.253906 L 104.859375 108.554688 C 106.101562 110.726562 106.09375 113.402344 104.835938 115.5625 C 103.578125 117.730469 101.261719 119.0625 98.757812 119.0625 L 20.890625 119.0625 C 18.386719 119.0625 16.074219 117.730469 14.816406 115.5625 C 13.558594 113.402344 13.550781 110.726562 14.792969 108.554688 L 53.820312 40.253906 C 55.050781 38.101562 57.34375 36.769531 59.824219 36.769531 C 62.308594 36.769531 64.601562 38.101562 65.832031 40.253906 Z M 65.832031 40.253906 " clip-rule="nonzero"/></clipPath><clipPath id="75de5284e1"><path d="M 22.566406 45.753906 L 115 45.753906 L 115 128.097656 L 22.566406 128.097656 Z M 22.566406 45.753906 " clip-rule="nonzero"/></clipPath><clipPath id="7c7a25a277"><path d="M 74.730469 49.285156 L 113.761719 117.589844 C 115.003906 119.761719 114.996094 122.4375 113.738281 124.605469 C 112.484375 126.765625 110.167969 128.097656 107.664062 128.097656 L 29.789062 128.097656 C 27.28125 128.097656 24.96875 126.765625 23.710938 124.605469 C 22.453125 122.4375 22.445312 119.761719 23.6875 117.589844 L 62.71875 49.285156 C 63.949219 47.128906 66.242188 45.800781 68.726562 45.800781 C 71.210938 45.800781 73.5 47.128906 74.730469 49.285156 Z M 74.730469 49.285156 " clip-rule="nonzero"/></clipPath><clipPath id="90740463f9"><path d="M 22.46875 45.15625 L 114.976562 45.15625 L 114.976562 127.84375 L 22.46875 127.84375 Z M 22.46875 45.15625 " clip-rule="nonzero"/></clipPath><clipPath id="431b9f10e5"><path d="M 74.726562 49.285156 L 113.757812 117.585938 C 115 119.761719 114.992188 122.433594 113.730469 124.597656 C 112.472656 126.765625 110.160156 128.097656 107.65625 128.097656 L 29.789062 128.097656 C 27.28125 128.097656 24.96875 126.765625 23.710938 124.597656 C 22.453125 122.433594 22.445312 119.761719 23.6875 117.585938 L 62.714844 49.285156 C 63.949219 47.132812 66.242188 45.800781 68.722656 45.800781 C 71.203125 45.800781 73.496094 47.132812 74.726562 49.285156 Z M 74.726562 49.285156 " clip-rule="nonzero"/></clipPath></defs><path fill="#ffffff" d="M 144.292969 42.921875 L 140.441406 42.921875 L 136.261719 36.183594 L 134.820312 37.210938 L 134.820312 42.921875 L 131.433594 42.921875 L 131.433594 26.925781 L 134.820312 26.925781 L 134.820312 34.238281 C 135.042969 33.929688 135.269531 33.617188 135.484375 33.300781 C 135.703125 32.992188 135.921875 32.679688 136.152344 32.363281 L 140.492188 26.925781 L 144.257812 26.925781 L 138.675781 34.003906 Z M 144.292969 42.921875 " fill-opacity="1" fill-rule="nonzero"/><path fill="#ffffff" d="M 146.3125 26.925781 L 149.699219 26.925781 L 149.699219 42.921875 L 146.3125 42.921875 Z M 146.3125 26.925781 " fill-opacity="1" fill-rule="nonzero"/><path fill="#ffffff" d="M 153.734375 42.921875 L 153.734375 26.925781 L 157.121094 26.925781 L 157.121094 40.113281 L 163.605469 40.113281 L 163.605469 42.921875 Z M 153.734375 42.921875 " fill-opacity="1" fill-rule="nonzero"/><path fill="#ffffff" d="M 176.175781 42.921875 L 175.023438 39.121094 L 169.1875 39.121094 L 168.035156 42.921875 L 164.375 42.921875 L 170.015625 26.851562 L 174.175781 26.851562 L 179.832031 42.921875 Z M 174.210938 36.273438 L 173.058594 32.546875 C 172.988281 32.304688 172.886719 31.996094 172.769531 31.609375 C 172.648438 31.210938 172.527344 30.8125 172.410156 30.402344 C 172.289062 29.996094 172.1875 29.640625 172.105469 29.339844 C 172.03125 29.640625 171.929688 30.015625 171.796875 30.457031 C 171.675781 30.902344 171.554688 31.320312 171.4375 31.714844 C 171.332031 32.105469 171.246094 32.378906 171.1875 32.546875 L 170.050781 36.273438 Z M 174.210938 36.273438 " fill-opacity="1" fill-rule="nonzero"/><path fill="#ffffff" d="M 194.394531 26.925781 L 188.972656 42.921875 L 185.261719 42.921875 L 179.839844 26.925781 L 183.261719 26.925781 L 186.269531 36.4375 C 186.316406 36.609375 186.398438 36.914062 186.523438 37.355469 C 186.640625 37.789062 186.761719 38.25 186.882812 38.742188 C 187 39.238281 187.085938 39.644531 187.132812 39.96875 C 187.171875 39.644531 187.242188 39.242188 187.351562 38.761719 C 187.46875 38.269531 187.585938 37.800781 187.691406 37.355469 C 187.808594 36.914062 187.894531 36.609375 187.945312 36.4375 L 190.972656 26.925781 Z M 194.394531 26.925781 " fill-opacity="1" fill-rule="nonzero"/><path fill="#ffffff" d="M 208.3125 33.933594 L 214.65625 33.933594 L 214.65625 42.238281 C 213.8125 42.515625 212.945312 42.738281 212.042969 42.902344 C 211.140625 43.058594 210.113281 43.136719 208.960938 43.136719 C 207.375 43.136719 206.027344 42.828125 204.910156 42.203125 C 203.800781 41.582031 202.960938 40.652344 202.386719 39.425781 C 201.808594 38.203125 201.523438 36.699219 201.523438 34.90625 C 201.523438 33.226562 201.847656 31.769531 202.496094 30.546875 C 203.144531 29.320312 204.085938 28.375 205.324219 27.699219 C 206.570312 27.027344 208.089844 26.691406 209.878906 26.691406 C 210.730469 26.691406 211.566406 26.789062 212.386719 26.980469 C 213.214844 27.160156 213.960938 27.394531 214.636719 27.679688 L 213.5 30.402344 C 213.019531 30.148438 212.460938 29.941406 211.828125 29.769531 C 211.199219 29.605469 210.546875 29.519531 209.863281 29.519531 C 208.875 29.519531 208.015625 29.75 207.285156 30.203125 C 206.566406 30.648438 206.007812 31.28125 205.609375 32.09375 C 205.214844 32.914062 205.015625 33.871094 205.015625 34.960938 C 205.015625 36.003906 205.152344 36.9375 205.429688 37.75 C 205.71875 38.558594 206.167969 39.1875 206.78125 39.644531 C 207.394531 40.089844 208.191406 40.308594 209.179688 40.308594 C 209.667969 40.308594 210.078125 40.292969 210.402344 40.257812 C 210.738281 40.210938 211.050781 40.15625 211.339844 40.09375 L 211.339844 36.761719 L 208.3125 36.761719 Z M 208.3125 33.933594 " fill-opacity="1" fill-rule="nonzero"/><path fill="#ffffff" d="M 223.136719 26.925781 C 224.578125 26.925781 225.769531 27.101562 226.722656 27.445312 C 227.667969 27.796875 228.371094 28.324219 228.828125 29.03125 C 229.285156 29.742188 229.515625 30.636719 229.515625 31.714844 C 229.515625 32.449219 229.375 33.09375 229.097656 33.644531 C 228.820312 34.183594 228.457031 34.648438 228 35.03125 C 227.554688 35.40625 227.066406 35.710938 226.542969 35.949219 L 231.242188 42.921875 L 227.476562 42.921875 L 223.660156 36.777344 L 221.855469 36.777344 L 221.855469 42.921875 L 218.46875 42.921875 L 218.46875 26.925781 Z M 222.882812 29.699219 L 221.855469 29.699219 L 221.855469 34.023438 L 222.957031 34.023438 C 224.074219 34.023438 224.871094 33.839844 225.351562 33.464844 C 225.84375 33.09375 226.089844 32.539062 226.089844 31.808594 C 226.089844 31.050781 225.824219 30.507812 225.296875 30.183594 C 224.78125 29.859375 223.972656 29.699219 222.882812 29.699219 Z M 222.882812 29.699219 " fill-opacity="1" fill-rule="nonzero"/><path fill="#ffffff" d="M 247.785156 34.90625 C 247.785156 36.128906 247.628906 37.257812 247.316406 38.273438 C 247.015625 39.28125 246.550781 40.15625 245.929688 40.886719 C 245.304688 41.605469 244.511719 42.164062 243.550781 42.5625 C 242.601562 42.945312 241.472656 43.136719 240.164062 43.136719 C 238.855469 43.136719 237.71875 42.945312 236.761719 42.5625 C 235.808594 42.164062 235.019531 41.605469 234.398438 40.886719 C 233.773438 40.15625 233.304688 39.28125 232.996094 38.273438 C 232.691406 37.257812 232.542969 36.125 232.542969 34.886719 C 232.542969 33.230469 232.816406 31.789062 233.355469 30.5625 C 233.90625 29.328125 234.746094 28.375 235.878906 27.699219 C 237.003906 27.015625 238.441406 26.671875 240.183594 26.671875 C 241.921875 26.671875 243.355469 27.015625 244.46875 27.699219 C 245.585938 28.375 246.417969 29.328125 246.957031 30.5625 C 247.507812 31.789062 247.785156 33.238281 247.785156 34.90625 Z M 236.113281 34.90625 C 236.113281 36.023438 236.246094 36.984375 236.527344 37.789062 C 236.800781 38.59375 237.238281 39.210938 237.839844 39.644531 C 238.441406 40.074219 239.214844 40.292969 240.164062 40.292969 C 241.125 40.292969 241.902344 40.074219 242.507812 39.644531 C 243.105469 39.210938 243.539062 38.59375 243.804688 37.789062 C 244.078125 36.984375 244.21875 36.023438 244.21875 34.90625 C 244.21875 33.226562 243.902344 31.90625 243.28125 30.941406 C 242.65625 29.984375 241.625 29.5 240.183594 29.5 C 239.234375 29.5 238.453125 29.71875 237.839844 30.148438 C 237.238281 30.582031 236.800781 31.203125 236.527344 32.003906 C 236.246094 32.8125 236.113281 33.78125 236.113281 34.90625 Z M 236.113281 34.90625 " fill-opacity="1" fill-rule="nonzero"/><path fill="#ffffff" d="M 264.125 26.925781 L 264.125 37.285156 C 264.125 38.378906 263.878906 39.367188 263.386719 40.257812 C 262.90625 41.148438 262.171875 41.851562 261.191406 42.363281 C 260.203125 42.882812 258.972656 43.136719 257.496094 43.136719 C 255.371094 43.136719 253.753906 42.597656 252.652344 41.515625 C 251.542969 40.4375 250.992188 39.007812 250.992188 37.230469 L 250.992188 26.925781 L 254.363281 26.925781 L 254.363281 36.726562 C 254.363281 38.050781 254.632812 38.972656 255.171875 39.5 C 255.714844 40.03125 256.511719 40.292969 257.570312 40.292969 C 258.3125 40.292969 258.910156 40.164062 259.371094 39.914062 C 259.839844 39.660156 260.179688 39.273438 260.398438 38.742188 C 260.621094 38.203125 260.738281 37.519531 260.738281 36.6875 L 260.738281 26.925781 Z M 264.125 26.925781 " fill-opacity="1" fill-rule="nonzero"/><path fill="#ffffff" d="M 273.140625 26.925781 C 275.203125 26.925781 276.710938 27.371094 277.660156 28.257812 C 278.605469 29.148438 279.085938 30.367188 279.085938 31.914062 C 279.085938 32.613281 278.976562 33.285156 278.761719 33.933594 C 278.554688 34.570312 278.210938 35.136719 277.734375 35.625 C 277.25 36.121094 276.617188 36.507812 275.824219 36.796875 C 275.03125 37.085938 274.050781 37.230469 272.886719 37.230469 L 271.429688 37.230469 L 271.429688 42.921875 L 268.039062 42.921875 L 268.039062 26.925781 Z M 272.976562 29.699219 L 271.429688 29.699219 L 271.429688 34.453125 L 272.542969 34.453125 C 273.179688 34.453125 273.734375 34.375 274.203125 34.203125 C 274.671875 34.035156 275.03125 33.769531 275.28125 33.410156 C 275.535156 33.050781 275.660156 32.59375 275.660156 32.039062 C 275.660156 31.25 275.4375 30.664062 274.996094 30.273438 C 274.5625 29.890625 273.886719 29.699219 272.976562 29.699219 Z M 272.976562 29.699219 " fill-opacity="1" fill-rule="nonzero"/><path fill="#ffffff" d="M 134.765625 73.960938 L 131.433594 73.960938 L 131.433594 57.964844 L 140.601562 57.964844 L 140.601562 60.738281 L 134.765625 60.738281 L 134.765625 64.863281 L 140.1875 64.863281 L 140.1875 67.636719 L 134.765625 67.636719 Z M 134.765625 73.960938 " fill-opacity="1" fill-rule="nonzero"/><path fill="#ffffff" d="M 148.398438 57.964844 C 149.839844 57.964844 151.03125 58.140625 151.984375 58.488281 C 152.929688 58.835938 153.632812 59.363281 154.089844 60.070312 C 154.546875 60.785156 154.773438 61.675781 154.773438 62.757812 C 154.773438 63.492188 154.636719 64.132812 154.359375 64.683594 C 154.082031 65.222656 153.714844 65.6875 153.261719 66.070312 C 152.816406 66.445312 152.328125 66.75 151.800781 66.988281 L 156.503906 73.960938 L 152.738281 73.960938 L 148.917969 67.820312 L 147.117188 67.820312 L 147.117188 73.960938 L 143.730469 73.960938 L 143.730469 57.964844 Z M 148.144531 60.738281 L 147.117188 60.738281 L 147.117188 65.0625 L 148.21875 65.0625 C 149.335938 65.0625 150.132812 64.878906 150.613281 64.503906 C 151.105469 64.132812 151.351562 63.582031 151.351562 62.847656 C 151.351562 62.089844 151.085938 61.550781 150.558594 61.226562 C 150.042969 60.902344 149.234375 60.738281 148.144531 60.738281 Z M 148.144531 60.738281 " fill-opacity="1" fill-rule="nonzero"/><path fill="#ffffff" d="M 167.730469 73.960938 L 158.527344 73.960938 L 158.527344 57.964844 L 167.730469 57.964844 L 167.730469 60.738281 L 161.914062 60.738281 L 161.914062 64.25 L 167.335938 64.25 L 167.335938 67.042969 L 161.914062 67.042969 L 161.914062 71.152344 L 167.730469 71.152344 Z M 167.730469 73.960938 " fill-opacity="1" fill-rule="nonzero"/><path fill="#ffffff" d="M 180.285156 73.960938 L 171.078125 73.960938 L 171.078125 57.964844 L 180.285156 57.964844 L 180.285156 60.738281 L 174.464844 60.738281 L 174.464844 64.25 L 179.886719 64.25 L 179.886719 67.042969 L 174.464844 67.042969 L 174.464844 71.152344 L 180.285156 71.152344 Z M 180.285156 73.960938 " fill-opacity="1" fill-rule="nonzero"/><path fill="#ffffff" d="M 196.90625 65.800781 C 196.90625 67.617188 196.554688 69.128906 195.859375 70.339844 C 195.175781 71.542969 194.175781 72.449219 192.871094 73.0625 C 191.558594 73.664062 189.988281 73.960938 188.152344 73.960938 L 183.628906 73.960938 L 183.628906 57.964844 L 188.65625 57.964844 C 190.320312 57.964844 191.777344 58.265625 193.015625 58.863281 C 194.25 59.453125 195.203125 60.332031 195.878906 61.496094 C 196.5625 62.660156 196.90625 64.097656 196.90625 65.800781 Z M 193.375 65.890625 C 193.375 64.714844 193.199219 63.746094 192.851562 62.992188 C 192.5 62.226562 191.992188 61.65625 191.320312 61.296875 C 190.644531 60.925781 189.8125 60.738281 188.816406 60.738281 L 187.015625 60.738281 L 187.015625 71.152344 L 188.476562 71.152344 C 190.132812 71.152344 191.363281 70.714844 192.167969 69.835938 C 192.96875 68.960938 193.375 67.648438 193.375 65.890625 Z M 193.375 65.890625 " fill-opacity="1" fill-rule="nonzero"/><path fill="#ffffff" d="M 214.738281 65.945312 C 214.738281 67.171875 214.582031 68.296875 214.269531 69.3125 C 213.96875 70.324219 213.503906 71.195312 212.882812 71.925781 C 212.257812 72.648438 211.464844 73.207031 210.503906 73.601562 C 209.554688 73.984375 208.425781 74.179688 207.117188 74.179688 C 205.808594 74.179688 204.671875 73.984375 203.710938 73.601562 C 202.761719 73.207031 201.972656 72.648438 201.351562 71.925781 C 200.726562 71.195312 200.257812 70.324219 199.949219 69.3125 C 199.644531 68.296875 199.496094 67.164062 199.496094 65.925781 C 199.496094 64.269531 199.765625 62.828125 200.308594 61.601562 C 200.855469 60.367188 201.699219 59.414062 202.832031 58.738281 C 203.957031 58.054688 205.394531 57.710938 207.136719 57.710938 C 208.875 57.710938 210.304688 58.054688 211.421875 58.738281 C 212.539062 59.414062 213.367188 60.367188 213.910156 61.601562 C 214.460938 62.828125 214.738281 64.277344 214.738281 65.945312 Z M 203.0625 65.945312 C 203.0625 67.0625 203.199219 68.027344 203.480469 68.828125 C 203.753906 69.632812 204.191406 70.25 204.792969 70.683594 C 205.394531 71.117188 206.167969 71.332031 207.117188 71.332031 C 208.078125 71.332031 208.855469 71.117188 209.460938 70.683594 C 210.058594 70.25 210.492188 69.632812 210.757812 68.828125 C 211.03125 68.027344 211.171875 67.0625 211.171875 65.945312 C 211.171875 64.265625 210.855469 62.945312 210.234375 61.980469 C 209.609375 61.023438 208.578125 60.539062 207.136719 60.539062 C 206.183594 60.539062 205.40625 60.757812 204.792969 61.1875 C 204.191406 61.621094 203.753906 62.242188 203.480469 63.042969 C 203.199219 63.851562 203.0625 64.820312 203.0625 65.945312 Z M 203.0625 65.945312 " fill-opacity="1" fill-rule="nonzero"/><path fill="#ffffff" d="M 224.828125 73.960938 L 220.972656 61.40625 L 220.863281 61.40625 C 220.886719 61.707031 220.910156 62.15625 220.9375 62.757812 C 220.972656 63.359375 221 64 221.027344 64.683594 C 221.0625 65.359375 221.082031 65.972656 221.082031 66.519531 L 221.082031 73.960938 L 218.054688 73.960938 L 218.054688 57.964844 L 222.667969 57.964844 L 226.449219 70.195312 L 226.523438 70.195312 L 230.539062 57.964844 L 235.152344 57.964844 L 235.152344 73.960938 L 232 73.960938 L 232 66.394531 C 232 65.890625 232.003906 65.308594 232.015625 64.648438 C 232.039062 63.988281 232.0625 63.363281 232.089844 62.773438 C 232.125 62.175781 232.148438 61.730469 232.160156 61.441406 L 232.050781 61.441406 L 227.925781 73.960938 Z M 224.828125 73.960938 " fill-opacity="1" fill-rule="nonzero"/><path fill="#ffffff" d="M 259.203125 73.960938 L 254.878906 73.960938 L 247.925781 61.855469 L 247.816406 61.855469 C 247.851562 62.359375 247.878906 62.875 247.90625 63.386719 C 247.929688 63.890625 247.949219 64.40625 247.960938 64.917969 C 247.984375 65.421875 248.007812 65.925781 248.03125 66.429688 L 248.03125 73.960938 L 245.007812 73.960938 L 245.007812 57.964844 L 249.277344 57.964844 L 256.230469 69.945312 L 256.300781 69.945312 C 256.289062 69.453125 256.269531 68.960938 256.25 68.46875 C 256.222656 67.976562 256.199219 67.488281 256.175781 67.007812 C 256.164062 66.515625 256.148438 66.027344 256.140625 65.53125 L 256.140625 57.964844 L 259.203125 57.964844 Z M 259.203125 73.960938 " fill-opacity="1" fill-rule="nonzero"/><path fill="#ffffff" d="M 272.433594 73.960938 L 263.226562 73.960938 L 263.226562 57.964844 L 272.433594 57.964844 L 272.433594 60.738281 L 266.613281 60.738281 L 266.613281 64.25 L 272.035156 64.25 L 272.035156 67.042969 L 266.613281 67.042969 L 266.613281 71.152344 L 272.433594 71.152344 Z M 272.433594 73.960938 " fill-opacity="1" fill-rule="nonzero"/><path fill="#ffffff" d="M 281.9375 73.960938 L 278.550781 73.960938 L 278.550781 60.792969 L 274.210938 60.792969 L 274.210938 57.964844 L 286.28125 57.964844 L 286.28125 60.792969 L 281.9375 60.792969 Z M 281.9375 73.960938 " fill-opacity="1" fill-rule="nonzero"/><path fill="#ffffff" d="M 308.410156 57.964844 L 304.339844 73.960938 L 300.464844 73.960938 L 298.304688 65.546875 C 298.253906 65.394531 298.195312 65.152344 298.125 64.828125 C 298.050781 64.496094 297.96875 64.132812 297.890625 63.746094 C 297.816406 63.351562 297.75 62.984375 297.691406 62.648438 C 297.628906 62.300781 297.585938 62.027344 297.566406 61.820312 C 297.539062 62.027344 297.496094 62.300781 297.4375 62.648438 C 297.375 62.984375 297.304688 63.347656 297.222656 63.730469 C 297.152344 64.117188 297.078125 64.476562 297.007812 64.808594 C 296.933594 65.148438 296.871094 65.40625 296.828125 65.585938 L 294.664062 73.960938 L 290.828125 73.960938 L 286.738281 57.964844 L 290.070312 57.964844 L 292.125 66.703125 C 292.183594 66.96875 292.25 67.277344 292.324219 67.636719 C 292.394531 68 292.464844 68.378906 292.539062 68.773438 C 292.621094 69.167969 292.691406 69.558594 292.753906 69.925781 C 292.828125 70.300781 292.871094 70.621094 292.898438 70.882812 C 292.933594 70.605469 292.980469 70.285156 293.042969 69.925781 C 293.101562 69.558594 293.160156 69.179688 293.222656 68.792969 C 293.296875 68.410156 293.367188 68.050781 293.441406 67.726562 C 293.511719 67.394531 293.574219 67.125 293.636719 66.917969 L 295.980469 57.964844 L 299.1875 57.964844 L 301.511719 66.917969 C 301.554688 67.125 301.617188 67.394531 301.691406 67.726562 C 301.761719 68.050781 301.835938 68.410156 301.90625 68.792969 C 301.980469 69.179688 302.042969 69.558594 302.105469 69.925781 C 302.164062 70.300781 302.214844 70.621094 302.25 70.882812 C 302.292969 70.519531 302.363281 70.082031 302.449219 69.566406 C 302.542969 69.039062 302.644531 68.515625 302.753906 68 C 302.863281 67.484375 302.953125 67.054688 303.023438 66.703125 L 305.058594 57.964844 Z M 308.410156 57.964844 " fill-opacity="1" fill-rule="nonzero"/><path fill="#ffffff" d="M 324.941406 65.945312 C 324.941406 67.171875 324.785156 68.296875 324.472656 69.3125 C 324.171875 70.324219 323.707031 71.195312 323.085938 71.925781 C 322.460938 72.648438 321.667969 73.207031 320.707031 73.601562 C 319.757812 73.984375 318.628906 74.179688 317.320312 74.179688 C 316.011719 74.179688 314.875 73.984375 313.917969 73.601562 C 312.964844 73.207031 312.179688 72.648438 311.558594 71.925781 C 310.929688 71.195312 310.460938 70.324219 310.152344 69.3125 C 309.851562 68.296875 309.703125 67.164062 309.703125 65.925781 C 309.703125 64.269531 309.972656 62.828125 310.511719 61.601562 C 311.0625 60.367188 311.902344 59.414062 313.035156 58.738281 C 314.160156 58.054688 315.597656 57.710938 317.339844 57.710938 C 319.078125 57.710938 320.511719 58.054688 321.628906 58.738281 C 322.746094 59.414062 323.574219 60.367188 324.113281 61.601562 C 324.664062 62.828125 324.941406 64.277344 324.941406 65.945312 Z M 313.269531 65.945312 C 313.269531 67.0625 313.402344 68.027344 313.683594 68.828125 C 313.957031 69.632812 314.394531 70.25 314.996094 70.683594 C 315.597656 71.117188 316.371094 71.332031 317.320312 71.332031 C 318.28125 71.332031 319.058594 71.117188 319.664062 70.683594 C 320.261719 70.25 320.695312 69.632812 320.960938 68.828125 C 321.234375 68.027344 321.375 67.0625 321.375 65.945312 C 321.375 64.265625 321.058594 62.945312 320.4375 61.980469 C 319.8125 61.023438 318.78125 60.539062 317.339844 60.539062 C 316.390625 60.539062 315.609375 60.757812 314.996094 61.1875 C 314.394531 61.621094 313.957031 62.242188 313.683594 63.042969 C 313.402344 63.851562 313.269531 64.820312 313.269531 65.945312 Z M 313.269531 65.945312 " fill-opacity="1" fill-rule="nonzero"/><path fill="#ffffff" d="M 332.925781 57.964844 C 334.367188 57.964844 335.558594 58.140625 336.511719 58.488281 C 337.457031 58.835938 338.160156 59.363281 338.617188 60.070312 C 339.074219 60.785156 339.300781 61.675781 339.300781 62.757812 C 339.300781 63.492188 339.164062 64.132812 338.886719 64.683594 C 338.609375 65.222656 338.242188 65.6875 337.789062 66.070312 C 337.34375 66.445312 336.855469 66.75 336.328125 66.988281 L 341.03125 73.960938 L 337.265625 73.960938 L 333.445312 67.820312 L 331.644531 67.820312 L 331.644531 73.960938 L 328.257812 73.960938 L 328.257812 57.964844 Z M 332.671875 60.738281 L 331.644531 60.738281 L 331.644531 65.0625 L 332.746094 65.0625 C 333.863281 65.0625 334.660156 64.878906 335.140625 64.503906 C 335.632812 64.132812 335.878906 63.582031 335.878906 62.847656 C 335.878906 62.089844 335.613281 61.550781 335.085938 61.226562 C 334.570312 60.902344 333.761719 60.738281 332.671875 60.738281 Z M 332.671875 60.738281 " fill-opacity="1" fill-rule="nonzero"/><path fill="#ffffff" d="M 355.917969 73.960938 L 352.0625 73.960938 L 347.882812 67.222656 L 346.441406 68.25 L 346.441406 73.960938 L 343.054688 73.960938 L 343.054688 57.964844 L 346.441406 57.964844 L 346.441406 65.277344 C 346.664062 64.96875 346.890625 64.65625 347.105469 64.339844 C 347.324219 64.03125 347.542969 63.71875 347.773438 63.40625 L 352.113281 57.964844 L 355.878906 57.964844 L 350.296875 65.042969 Z M 355.917969 73.960938 " fill-opacity="1" fill-rule="nonzero"/><path fill="#ffffff" d="M 367.375 69.511719 C 367.375 70.460938 367.140625 71.289062 366.671875 72 C 366.214844 72.695312 365.546875 73.238281 364.671875 73.621094 C 363.796875 73.988281 362.730469 74.179688 361.484375 74.179688 C 360.917969 74.179688 360.371094 74.140625 359.84375 74.070312 C 359.3125 73.996094 358.808594 73.890625 358.332031 73.746094 C 357.851562 73.601562 357.386719 73.429688 356.945312 73.222656 L 356.945312 70.070312 C 357.703125 70.410156 358.484375 70.714844 359.304688 70.988281 C 360.121094 71.253906 360.929688 71.386719 361.738281 71.386719 C 362.285156 71.386719 362.730469 71.3125 363.070312 71.167969 C 363.417969 71.015625 363.664062 70.808594 363.808594 70.558594 C 363.960938 70.304688 364.042969 70.011719 364.042969 69.675781 C 364.042969 69.277344 363.902344 68.945312 363.628906 68.664062 C 363.363281 68.378906 362.996094 68.105469 362.53125 67.855469 C 362.0625 67.601562 361.53125 67.339844 360.945312 67.0625 C 360.570312 66.882812 360.160156 66.664062 359.71875 66.414062 C 359.285156 66.160156 358.871094 65.855469 358.476562 65.496094 C 358.078125 65.125 357.753906 64.679688 357.503906 64.160156 C 357.25 63.648438 357.125 63.023438 357.125 62.289062 C 357.125 61.328125 357.339844 60.511719 357.773438 59.835938 C 358.214844 59.152344 358.84375 58.628906 359.664062 58.269531 C 360.480469 57.910156 361.441406 57.730469 362.546875 57.730469 C 363.375 57.730469 364.167969 57.828125 364.925781 58.019531 C 365.683594 58.210938 366.476562 58.496094 367.304688 58.863281 L 366.203125 61.496094 C 365.46875 61.199219 364.808594 60.96875 364.222656 60.808594 C 363.632812 60.644531 363.039062 60.558594 362.4375 60.558594 C 362.015625 60.558594 361.65625 60.625 361.359375 60.757812 C 361.054688 60.890625 360.828125 61.082031 360.671875 61.332031 C 360.515625 61.574219 360.441406 61.855469 360.441406 62.179688 C 360.441406 62.554688 360.550781 62.875 360.78125 63.132812 C 361.007812 63.398438 361.34375 63.652344 361.789062 63.890625 C 362.230469 64.132812 362.789062 64.410156 363.464844 64.71875 C 364.28125 65.117188 364.980469 65.527344 365.554688 65.945312 C 366.140625 66.355469 366.59375 66.84375 366.90625 67.421875 C 367.21875 67.988281 367.375 68.683594 367.375 69.511719 Z M 367.375 69.511719 " fill-opacity="1" fill-rule="nonzero"/><path fill="#ffffff" d="M 141.214844 105 L 140.0625 101.199219 L 134.222656 101.199219 L 133.070312 105 L 129.414062 105 L 135.054688 88.929688 L 139.214844 88.929688 L 144.871094 105 Z M 139.25 98.355469 L 138.097656 94.625 C 138.027344 94.386719 137.925781 94.074219 137.808594 93.6875 C 137.6875 93.292969 137.566406 92.890625 137.449219 92.480469 C 137.328125 92.074219 137.222656 91.71875 137.144531 91.417969 C 137.070312 91.71875 136.96875 92.09375 136.835938 92.535156 C 136.714844 92.980469 136.59375 93.398438 136.476562 93.796875 C 136.367188 94.183594 136.28125 94.457031 136.222656 94.625 L 135.089844 98.355469 Z M 139.25 98.355469 " fill-opacity="1" fill-rule="nonzero"/><path fill="#ffffff" d="M 156.335938 100.550781 C 156.335938 101.5 156.101562 102.332031 155.632812 103.039062 C 155.171875 103.734375 154.503906 104.277344 153.632812 104.660156 C 152.753906 105.027344 151.691406 105.21875 150.441406 105.21875 C 149.875 105.21875 149.332031 105.179688 148.804688 105.109375 C 148.273438 105.039062 147.769531 104.929688 147.289062 104.785156 C 146.808594 104.640625 146.34375 104.46875 145.902344 104.261719 L 145.902344 101.109375 C 146.660156 101.449219 147.445312 101.753906 148.261719 102.027344 C 149.078125 102.292969 149.890625 102.425781 150.695312 102.425781 C 151.246094 102.425781 151.691406 102.351562 152.027344 102.207031 C 152.375 102.054688 152.621094 101.847656 152.765625 101.597656 C 152.921875 101.34375 153 101.050781 153 100.714844 C 153 100.316406 152.863281 99.984375 152.585938 99.703125 C 152.320312 99.417969 151.957031 99.144531 151.488281 98.894531 C 151.019531 98.640625 150.488281 98.378906 149.902344 98.101562 C 149.527344 97.921875 149.117188 97.703125 148.675781 97.453125 C 148.246094 97.199219 147.832031 96.894531 147.433594 96.535156 C 147.039062 96.164062 146.714844 95.71875 146.460938 95.199219 C 146.210938 94.6875 146.082031 94.0625 146.082031 93.328125 C 146.082031 92.367188 146.300781 91.554688 146.730469 90.878906 C 147.171875 90.191406 147.804688 89.671875 148.625 89.308594 C 149.4375 88.949219 150.398438 88.769531 151.507812 88.769531 C 152.335938 88.769531 153.128906 88.867188 153.882812 89.058594 C 154.640625 89.25 155.433594 89.535156 156.261719 89.90625 L 155.164062 92.535156 C 154.429688 92.238281 153.765625 92.007812 153.179688 91.851562 C 152.589844 91.683594 151.996094 91.597656 151.398438 91.597656 C 150.972656 91.597656 150.613281 91.664062 150.316406 91.796875 C 150.015625 91.929688 149.785156 92.121094 149.632812 92.371094 C 149.476562 92.617188 149.398438 92.894531 149.398438 93.21875 C 149.398438 93.59375 149.511719 93.914062 149.742188 94.175781 C 149.964844 94.441406 150.304688 94.691406 150.75 94.929688 C 151.191406 95.175781 151.75 95.449219 152.425781 95.757812 C 153.238281 96.15625 153.9375 96.566406 154.515625 96.984375 C 155.101562 97.394531 155.550781 97.886719 155.867188 98.460938 C 156.175781 99.027344 156.335938 99.722656 156.335938 100.550781 Z M 156.335938 100.550781 " fill-opacity="1" fill-rule="nonzero"/><path fill="#ffffff" d="M 168.675781 100.550781 C 168.675781 101.5 168.441406 102.332031 167.976562 103.039062 C 167.515625 103.734375 166.847656 104.277344 165.976562 104.660156 C 165.097656 105.027344 164.035156 105.21875 162.785156 105.21875 C 162.21875 105.21875 161.675781 105.179688 161.148438 105.109375 C 160.617188 105.039062 160.109375 104.929688 159.632812 104.785156 C 159.152344 104.640625 158.6875 104.46875 158.246094 104.261719 L 158.246094 101.109375 C 159.003906 101.449219 159.785156 101.753906 160.605469 102.027344 C 161.421875 102.292969 162.230469 102.425781 163.039062 102.425781 C 163.589844 102.425781 164.035156 102.351562 164.371094 102.207031 C 164.71875 102.054688 164.964844 101.847656 165.109375 101.597656 C 165.261719 101.34375 165.34375 101.050781 165.34375 100.714844 C 165.34375 100.316406 165.203125 99.984375 164.929688 99.703125 C 164.664062 99.417969 164.300781 99.144531 163.832031 98.894531 C 163.363281 98.640625 162.832031 98.378906 162.246094 98.101562 C 161.871094 97.921875 161.460938 97.703125 161.019531 97.453125 C 160.589844 97.199219 160.175781 96.894531 159.777344 96.535156 C 159.382812 96.164062 159.058594 95.71875 158.804688 95.199219 C 158.550781 94.6875 158.425781 94.0625 158.425781 93.328125 C 158.425781 92.367188 158.644531 91.554688 159.074219 90.878906 C 159.515625 90.191406 160.148438 89.671875 160.964844 89.308594 C 161.78125 88.949219 162.742188 88.769531 163.847656 88.769531 C 164.679688 88.769531 165.46875 88.867188 166.226562 89.058594 C 166.984375 89.25 167.777344 89.535156 168.605469 89.90625 L 167.507812 92.535156 C 166.773438 92.238281 166.109375 92.007812 165.523438 91.851562 C 164.933594 91.683594 164.339844 91.597656 163.742188 91.597656 C 163.316406 91.597656 162.957031 91.664062 162.660156 91.796875 C 162.359375 91.929688 162.128906 92.121094 161.976562 92.371094 C 161.816406 92.617188 161.742188 92.894531 161.742188 93.21875 C 161.742188 93.59375 161.855469 93.914062 162.082031 94.175781 C 162.308594 94.441406 162.648438 94.691406 163.09375 94.929688 C 163.535156 95.175781 164.09375 95.449219 164.769531 95.757812 C 165.582031 96.15625 166.28125 96.566406 166.859375 96.984375 C 167.441406 97.394531 167.894531 97.886719 168.210938 98.460938 C 168.519531 99.027344 168.675781 99.722656 168.675781 100.550781 Z M 168.675781 100.550781 " fill-opacity="1" fill-rule="nonzero"/><path fill="#ffffff" d="M 186.101562 96.984375 C 186.101562 98.210938 185.945312 99.335938 185.632812 100.351562 C 185.332031 101.363281 184.867188 102.234375 184.246094 102.964844 C 183.621094 103.6875 182.828125 104.246094 181.867188 104.640625 C 180.917969 105.023438 179.785156 105.21875 178.480469 105.21875 C 177.171875 105.21875 176.035156 105.023438 175.074219 104.640625 C 174.125 104.246094 173.335938 103.6875 172.714844 102.964844 C 172.089844 102.234375 171.621094 101.363281 171.308594 100.351562 C 171.007812 99.335938 170.859375 98.203125 170.859375 96.964844 C 170.859375 95.308594 171.128906 93.867188 171.671875 92.644531 C 172.21875 91.410156 173.0625 90.453125 174.191406 89.777344 C 175.320312 89.09375 176.753906 88.75 178.5 88.75 C 180.238281 88.75 181.667969 89.09375 182.785156 89.777344 C 183.902344 90.453125 184.730469 91.410156 185.273438 92.644531 C 185.820312 93.867188 186.101562 95.316406 186.101562 96.984375 Z M 174.425781 96.984375 C 174.425781 98.101562 174.5625 99.066406 174.839844 99.867188 C 175.117188 100.671875 175.554688 101.289062 176.15625 101.722656 C 176.753906 102.15625 177.53125 102.371094 178.480469 102.371094 C 179.441406 102.371094 180.21875 102.15625 180.824219 101.722656 C 181.421875 101.289062 181.855469 100.671875 182.121094 99.867188 C 182.394531 99.066406 182.535156 98.101562 182.535156 96.984375 C 182.535156 95.304688 182.21875 93.984375 181.597656 93.019531 C 180.972656 92.0625 179.941406 91.578125 178.5 91.578125 C 177.546875 91.578125 176.769531 91.796875 176.15625 92.226562 C 175.554688 92.660156 175.117188 93.28125 174.839844 94.082031 C 174.5625 94.890625 174.425781 95.859375 174.425781 96.984375 Z M 174.425781 96.984375 " fill-opacity="1" fill-rule="nonzero"/><path fill="#ffffff" d="M 196.210938 91.597656 C 195.5625 91.597656 194.984375 91.722656 194.480469 91.976562 C 193.984375 92.226562 193.566406 92.597656 193.21875 93.074219 C 192.878906 93.542969 192.625 94.117188 192.445312 94.785156 C 192.273438 95.460938 192.191406 96.210938 192.191406 97.039062 C 192.191406 98.183594 192.328125 99.15625 192.605469 99.957031 C 192.894531 100.75 193.332031 101.359375 193.921875 101.777344 C 194.507812 102.1875 195.273438 102.390625 196.210938 102.390625 C 196.859375 102.390625 197.507812 102.316406 198.15625 102.171875 C 198.8125 102.027344 199.527344 101.824219 200.296875 101.558594 L 200.296875 104.40625 C 199.585938 104.695312 198.882812 104.902344 198.191406 105.019531 C 197.507812 105.148438 196.734375 105.21875 195.886719 105.21875 C 194.238281 105.21875 192.878906 104.882812 191.8125 104.207031 C 190.753906 103.523438 189.96875 102.570312 189.453125 101.34375 C 188.949219 100.109375 188.695312 98.667969 188.695312 97.019531 C 188.695312 95.808594 188.859375 94.707031 189.183594 93.707031 C 189.515625 92.695312 190.003906 91.828125 190.640625 91.09375 C 191.277344 90.351562 192.054688 89.777344 192.984375 89.382812 C 193.921875 88.976562 194.992188 88.769531 196.210938 88.769531 C 197 88.769531 197.792969 88.871094 198.585938 89.074219 C 199.390625 89.28125 200.160156 89.558594 200.894531 89.90625 L 199.792969 92.660156 C 199.191406 92.371094 198.589844 92.128906 197.992188 91.921875 C 197.390625 91.707031 196.792969 91.597656 196.210938 91.597656 Z M 196.210938 91.597656 " fill-opacity="1" fill-rule="nonzero"/><path fill="#ffffff" d="M 203.699219 89.003906 L 207.085938 89.003906 L 207.085938 105 L 203.699219 105 Z M 203.699219 89.003906 " fill-opacity="1" fill-rule="nonzero"/><path fill="#ffffff" d="M 220.898438 105 L 219.746094 101.199219 L 213.910156 101.199219 L 212.757812 105 L 209.097656 105 L 214.738281 88.929688 L 218.898438 88.929688 L 224.554688 105 Z M 218.933594 98.355469 L 217.78125 94.625 C 217.710938 94.386719 217.613281 94.074219 217.496094 93.6875 C 217.371094 93.292969 217.25 92.890625 217.132812 92.480469 C 217.011719 92.074219 216.910156 91.71875 216.828125 91.417969 C 216.753906 91.71875 216.652344 92.09375 216.519531 92.535156 C 216.398438 92.980469 216.277344 93.398438 216.160156 93.796875 C 216.054688 94.183594 215.96875 94.457031 215.910156 94.625 L 214.773438 98.355469 Z M 218.933594 98.355469 " fill-opacity="1" fill-rule="nonzero"/><path fill="#ffffff" d="M 232.738281 105 L 229.351562 105 L 229.351562 91.832031 L 225.011719 91.832031 L 225.011719 89.003906 L 237.082031 89.003906 L 237.082031 91.832031 L 232.738281 91.832031 Z M 232.738281 105 " fill-opacity="1" fill-rule="nonzero"/><path fill="#ffffff" d="M 239.558594 89.003906 L 242.945312 89.003906 L 242.945312 105 L 239.558594 105 Z M 239.558594 89.003906 " fill-opacity="1" fill-rule="nonzero"/><path fill="#ffffff" d="M 261.496094 96.984375 C 261.496094 98.210938 261.339844 99.335938 261.027344 100.351562 C 260.726562 101.363281 260.261719 102.234375 259.640625 102.964844 C 259.015625 103.6875 258.222656 104.246094 257.261719 104.640625 C 256.3125 105.023438 255.183594 105.21875 253.875 105.21875 C 252.566406 105.21875 251.429688 105.023438 250.472656 104.640625 C 249.519531 104.246094 248.734375 103.6875 248.109375 102.964844 C 247.484375 102.234375 247.015625 101.363281 246.707031 100.351562 C 246.402344 99.335938 246.253906 98.203125 246.253906 96.964844 C 246.253906 95.308594 246.527344 93.867188 247.066406 92.644531 C 247.617188 91.410156 248.457031 90.453125 249.589844 89.777344 C 250.714844 89.09375 252.152344 88.75 253.894531 88.75 C 255.632812 88.75 257.066406 89.09375 258.183594 89.777344 C 259.296875 90.453125 260.128906 91.410156 260.667969 92.644531 C 261.21875 93.867188 261.496094 95.316406 261.496094 96.984375 Z M 249.824219 96.984375 C 249.824219 98.101562 249.957031 99.066406 250.238281 99.867188 C 250.511719 100.671875 250.949219 101.289062 251.550781 101.722656 C 252.152344 102.15625 252.925781 102.371094 253.875 102.371094 C 254.835938 102.371094 255.613281 102.15625 256.21875 101.722656 C 256.816406 101.289062 257.25 100.671875 257.515625 99.867188 C 257.789062 99.066406 257.929688 98.101562 257.929688 96.984375 C 257.929688 95.304688 257.613281 93.984375 256.992188 93.019531 C 256.367188 92.0625 255.335938 91.578125 253.894531 91.578125 C 252.945312 91.578125 252.164062 91.796875 251.550781 92.226562 C 250.949219 92.660156 250.511719 93.28125 250.238281 94.082031 C 249.957031 94.890625 249.824219 95.859375 249.824219 96.984375 Z M 249.824219 96.984375 " fill-opacity="1" fill-rule="nonzero"/><path fill="#ffffff" d="M 279.007812 105 L 274.683594 105 L 267.730469 92.894531 L 267.625 92.894531 C 267.660156 93.398438 267.6875 93.914062 267.714844 94.425781 C 267.734375 94.929688 267.753906 95.445312 267.765625 95.957031 C 267.789062 96.460938 267.8125 96.964844 267.839844 97.472656 L 267.839844 105 L 264.8125 105 L 264.8125 89.003906 L 269.082031 89.003906 L 276.035156 100.984375 L 276.109375 100.984375 C 276.09375 100.492188 276.078125 100.003906 276.054688 99.507812 C 276.027344 99.015625 276.003906 98.527344 275.980469 98.046875 C 275.96875 97.554688 275.957031 97.066406 275.945312 96.570312 L 275.945312 89.003906 L 279.007812 89.003906 Z M 279.007812 105 " fill-opacity="1" fill-rule="nonzero"/><g clip-path="url(#f830658aea)"><g clip-path="url(#963ac8836f)"><path fill="#ffffff" d="M 21.652344 4.304688 L 95.78125 4.304688 L 95.78125 78.433594 L 21.652344 78.433594 Z M 21.652344 4.304688 " fill-opacity="1" fill-rule="nonzero"/></g></g><g clip-path="url(#08189e81e9)"><g clip-path="url(#e0cb5f7816)"><path stroke-linecap="butt" transform="matrix(0.864743, 0, 0, 0.864743, 21.651283, 4.303146)" fill="none" stroke-linejoin="miter" d="M 42.860786 0.00178215 C 19.190456 0.00178215 0.00122684 19.191012 0.00122684 42.861342 C 0.00122684 66.527155 19.190456 85.720901 42.860786 85.720901 C 66.526599 85.720901 85.720346 66.527155 85.720346 42.861342 C 85.720346 19.191012 66.526599 0.00178215 42.860786 0.00178215 Z M 42.860786 0.00178215 " stroke="#000000" stroke-width="6" stroke-opacity="1" stroke-miterlimit="4"/></g></g><g clip-path="url(#411ccaa606)"><g clip-path="url(#8232623b86)"><path fill="#ffffff" d="M -0.128906 21.226562 L 102.109375 21.226562 L 102.109375 110.550781 L -0.128906 110.550781 Z M -0.128906 21.226562 " fill-opacity="1" fill-rule="nonzero"/></g></g><g clip-path="url(#dc7c56d49a)"><g clip-path="url(#53467c35b2)"><path stroke-linecap="butt" transform="matrix(0.864743, 0, 0, 0.864743, -0.12746, 21.227609)" fill="none" stroke-linejoin="miter" d="M 65.96808 12.154679 L 111.09981 91.138595 C 112.536292 93.65018 112.527257 96.739971 111.072707 99.242521 C 109.618156 101.749589 106.943951 103.289967 104.048401 103.289967 L 14.001767 103.289967 C 11.106217 103.289967 8.427495 101.749589 6.972944 99.242521 C 5.52291 96.739971 5.509358 93.65018 6.94584 91.138595 L 52.077571 12.154679 C 53.500501 9.661163 56.15212 8.125302 59.020567 8.125302 C 61.898048 8.125302 64.545149 9.661163 65.96808 12.154679 Z M 65.96808 12.154679 " stroke="#000000" stroke-width="6" stroke-opacity="1" stroke-miterlimit="4"/></g></g><g clip-path="url(#be58e8d7a3)"><g clip-path="url(#f4164bbcb2)"><path fill="#ffffff" d="M 58.714844 12.261719 L 69.59375 12.261719 L 69.59375 23.140625 L 58.714844 23.140625 Z M 58.714844 12.261719 " fill-opacity="1" fill-rule="nonzero"/></g></g><g clip-path="url(#99591a8f8b)"><g clip-path="url(#4458c45b55)"><path stroke-linecap="butt" transform="matrix(0.864743, 0, 0, 0.864743, 58.716108, 12.264617)" fill="none" stroke-linejoin="miter" d="M 6.282017 -0.00335124 L 8.278636 4.278991 L 12.560979 6.280128 L 8.278636 8.281264 L 6.282017 12.559089 L 4.28088 8.281264 L -0.00146184 6.280128 L 4.28088 4.278991 Z M 6.282017 -0.00335124 " stroke="#000000" stroke-width="6" stroke-opacity="1" stroke-miterlimit="4"/></g></g><g clip-path="url(#f9ecda98c4)"><g clip-path="url(#9120323eb3)"><path fill="#ffffff" d="M 8.785156 29.742188 L 111.023438 29.742188 L 111.023438 119.066406 L 8.785156 119.066406 Z M 8.785156 29.742188 " fill-opacity="1" fill-rule="nonzero"/></g></g><g clip-path="url(#7952c4e8c8)"><g clip-path="url(#a4091f00d8)"><path stroke-linecap="butt" transform="matrix(0.864743, 0, 0, 0.864743, 8.785625, 29.745175)" fill="none" stroke-linejoin="miter" d="M 65.96921 12.152435 L 111.100941 91.136351 C 112.537423 93.647936 112.528388 96.742244 111.073837 99.240277 C 109.619287 101.747344 106.940564 103.287723 104.045014 103.287723 L 13.998381 103.287723 C 11.102831 103.287723 8.428625 101.747344 6.974075 99.240277 C 5.519524 96.742244 5.510489 93.647936 6.946971 91.136351 L 52.078702 12.152435 C 53.501632 9.663436 56.153251 8.123058 59.021697 8.123058 C 61.894661 8.123058 64.54628 9.663436 65.96921 12.152435 Z M 65.96921 12.152435 " stroke="#000000" stroke-width="6" stroke-opacity="1" stroke-miterlimit="4"/></g></g><g clip-path="url(#75de5284e1)"><g clip-path="url(#7c7a25a277)"><path fill="#ffffff" d="M 17.679688 38.773438 L 119.917969 38.773438 L 119.917969 128.097656 L 17.679688 128.097656 Z M 17.679688 38.773438 " fill-opacity="1" fill-rule="nonzero"/></g></g><g clip-path="url(#90740463f9)"><g clip-path="url(#431b9f10e5)"><path stroke-linecap="butt" transform="matrix(0.864743, 0, 0, 0.864743, 17.681744, 38.77629)" fill="none" stroke-linejoin="miter" d="M 65.967374 12.15259 L 111.103622 91.136507 C 112.540104 93.652609 112.531069 96.7424 111.072001 99.24495 C 109.61745 101.752017 106.943245 103.292396 104.047695 103.292396 L 14.001061 103.292396 C 11.100994 103.292396 8.426789 101.752017 6.972238 99.24495 C 5.517687 96.7424 5.508653 93.652609 6.945135 91.136507 L 52.076865 12.15259 C 53.504313 9.663592 56.155932 8.123214 59.024378 8.123214 C 61.892825 8.123214 64.544444 9.663592 65.967374 12.15259 Z M 65.967374 12.15259 " stroke="#000000" stroke-width="6" stroke-opacity="1" stroke-miterlimit="4"/></g></g></svg>